<?xml version="1.0" encoding="UTF-8" standalone="no"?>
<!-- Created with matplotlib (https://matplotlib.org/) -->

<svg
   xmlns:dc="http://purl.org/dc/elements/1.1/"
   xmlns:cc="http://creativecommons.org/ns#"
   xmlns:rdf="http://www.w3.org/1999/02/22-rdf-syntax-ns#"
   xmlns:svg="http://www.w3.org/2000/svg"
   xmlns="http://www.w3.org/2000/svg"
   xmlns:xlink="http://www.w3.org/1999/xlink"
   xmlns:sodipodi="http://sodipodi.sourceforge.net/DTD/sodipodi-0.dtd"
   xmlns:inkscape="http://www.inkscape.org/namespaces/inkscape"
   height="311.488906pt"
   version="1.1"
   viewBox="0 0 190.935 311.488906"
   width="190.935pt"
   id="svg261"
   sodipodi:docname="phases_violin.svg"
   inkscape:version="0.92.4 5da689c313, 2019-01-14">
  <metadata
     id="metadata265">
    <rdf:RDF>
      <cc:Work
         rdf:about="">
        <dc:format>image/svg+xml</dc:format>
        <dc:type
           rdf:resource="http://purl.org/dc/dcmitype/StillImage" />
      </cc:Work>
    </rdf:RDF>
  </metadata>
  <sodipodi:namedview
     pagecolor="#ffffff"
     bordercolor="#666666"
     borderopacity="1"
     objecttolerance="10"
     gridtolerance="10"
     guidetolerance="10"
     inkscape:pageopacity="0"
     inkscape:pageshadow="2"
     inkscape:window-width="1264"
     inkscape:window-height="1360"
     id="namedview263"
     showgrid="false"
     inkscape:zoom="1.6072214"
     inkscape:cx="115.22961"
     inkscape:cy="346.59271"
     inkscape:window-x="1284"
     inkscape:window-y="39"
     inkscape:window-maximized="0"
     inkscape:current-layer="text_3" />
  <defs
     id="defs4">
    <style
       type="text/css"
       id="style2">
*{stroke-linecap:butt;stroke-linejoin:round;}
  </style>
  </defs>
  <g
     id="figure_1">
    <g
       id="patch_1">
      <path
         d="M 0 311.488906  L 190.935 311.488906  L 190.935 0  L 0 0  z "
         style="fill:#ffffff;"
         id="path6" />
    </g>
    <g
       id="axes_1">
      <g
         id="patch_2">
        <path
           d="M 72.615 275.82  L 174.735 275.82  L 174.735 16.2  L 72.615 16.2  z "
           style="fill:#ffffff;"
           id="path9" />
      </g>
      <g
         id="matplotlib.axis_1">
        <g
           id="xtick_1">
          <g
             id="text_1">
            <!-- B1 -->
            <defs
               id="defs14">
              <path
                 d="M 19.671875 34.8125  L 19.671875 8.109375  L 35.5 8.109375  Q 43.453125 8.109375 47.28125 11.40625  Q 51.125 14.703125 51.125 21.484375  Q 51.125 28.328125 47.28125 31.5625  Q 43.453125 34.8125 35.5 34.8125  z M 19.671875 64.796875  L 19.671875 42.828125  L 34.28125 42.828125  Q 41.5 42.828125 45.03125 45.53125  Q 48.578125 48.25 48.578125 53.8125  Q 48.578125 59.328125 45.03125 62.0625  Q 41.5 64.796875 34.28125 64.796875  z M 9.8125 72.90625  L 35.015625 72.90625  Q 46.296875 72.90625 52.390625 68.21875  Q 58.5 63.53125 58.5 54.890625  Q 58.5 48.1875 55.375 44.234375  Q 52.25 40.28125 46.1875 39.3125  Q 53.46875 37.75 57.5 32.78125  Q 61.53125 27.828125 61.53125 20.40625  Q 61.53125 10.640625 54.890625 5.3125  Q 48.25 0 35.984375 0  L 9.8125 0  z "
                 id="DejaVuSans-66" />
              <path
                 d="M 12.40625 8.296875  L 28.515625 8.296875  L 28.515625 63.921875  L 10.984375 60.40625  L 10.984375 69.390625  L 28.421875 72.90625  L 38.28125 72.90625  L 38.28125 8.296875  L 54.390625 8.296875  L 54.390625 0  L 12.40625 0  z "
                 id="DejaVuSans-49" />
            </defs>
            <g
               style="fill:#1f77b4"
               transform="translate(78.725664 300.857422)scale(0.165 -0.165)"
               id="g20">
              <use
                 xlink:href="#DejaVuSans-66"
                 id="use16"
                 style="fill:#1f77b4" />
              <use
                 x="68.603516"
                 xlink:href="#DejaVuSans-49"
                 id="use18"
                 style="fill:#1f77b4" />
            </g>
          </g>
        </g>
        <g
           id="xtick_2">
          <g
             id="text_2">
            <!-- B2 -->
            <defs
               id="defs25">
              <path
                 d="M 19.1875 8.296875  L 53.609375 8.296875  L 53.609375 0  L 7.328125 0  L 7.328125 8.296875  Q 12.9375 14.109375 22.625 23.890625  Q 32.328125 33.6875 34.8125 36.53125  Q 39.546875 41.84375 41.421875 45.53125  Q 43.3125 49.21875 43.3125 52.78125  Q 43.3125 58.59375 39.234375 62.25  Q 35.15625 65.921875 28.609375 65.921875  Q 23.96875 65.921875 18.8125 64.3125  Q 13.671875 62.703125 7.8125 59.421875  L 7.8125 69.390625  Q 13.765625 71.78125 18.9375 73  Q 24.125 74.21875 28.421875 74.21875  Q 39.75 74.21875 46.484375 68.546875  Q 53.21875 62.890625 53.21875 53.421875  Q 53.21875 48.921875 51.53125 44.890625  Q 49.859375 40.875 45.40625 35.40625  Q 44.1875 33.984375 37.640625 27.21875  Q 31.109375 20.453125 19.1875 8.296875  z "
                 id="DejaVuSans-50" />
            </defs>
            <g
               style="fill:#ff7f0e"
               transform="translate(112.765664 300.857422)scale(0.165 -0.165)"
               id="g31">
              <use
                 xlink:href="#DejaVuSans-66"
                 id="use27"
                 style="fill:#ff7f0e" />
              <use
                 x="68.603516"
                 xlink:href="#DejaVuSans-50"
                 id="use29"
                 style="fill:#ff7f0e" />
            </g>
          </g>
        </g>
        <g
           id="xtick_3">
          <g
             id="text_3">
            <!-- B3 -->
            <defs
               id="defs36">
              <path
                 d="M 40.578125 39.3125  Q 47.65625 37.796875 51.625 33  Q 55.609375 28.21875 55.609375 21.1875  Q 55.609375 10.40625 48.1875 4.484375  Q 40.765625 -1.421875 27.09375 -1.421875  Q 22.515625 -1.421875 17.65625 -0.515625  Q 12.796875 0.390625 7.625 2.203125  L 7.625 11.71875  Q 11.71875 9.328125 16.59375 8.109375  Q 21.484375 6.890625 26.8125 6.890625  Q 36.078125 6.890625 40.9375 10.546875  Q 45.796875 14.203125 45.796875 21.1875  Q 45.796875 27.640625 41.28125 31.265625  Q 36.765625 34.90625 28.71875 34.90625  L 20.21875 34.90625  L 20.21875 43.015625  L 29.109375 43.015625  Q 36.375 43.015625 40.234375 45.921875  Q 44.09375 48.828125 44.09375 54.296875  Q 44.09375 59.90625 40.109375 62.90625  Q 36.140625 65.921875 28.71875 65.921875  Q 24.65625 65.921875 20.015625 65.03125  Q 15.375 64.15625 9.8125 62.3125  L 9.8125 71.09375  Q 15.4375 72.65625 20.34375 73.4375  Q 25.25 74.21875 29.59375 74.21875  Q 40.828125 74.21875 47.359375 69.109375  Q 53.90625 64.015625 53.90625 55.328125  Q 53.90625 49.265625 50.4375 45.09375  Q 46.96875 40.921875 40.578125 39.3125  z "
                 id="DejaVuSans-51" />
            </defs>
            <g
               style="fill:#2ca02c"
               transform="translate(146.805664 300.857422)scale(0.165 -0.165)"
               id="g42">
              <use
                 xlink:href="#DejaVuSans-66"
                 id="use38"
                 style="fill:#2ca02c" />
              <use
                 x="68.603516"
                 xlink:href="#DejaVuSans-51"
                 id="use40"
                 style="fill:#2ca02c" />
            </g>
          </g>
        </g>
      </g>
      <g
         id="matplotlib.axis_2">
        <g
           id="ytick_1">
          <g
             id="line2d_1">
            <path
               clip-path="url(#pa22cb6c788)"
               d="M 72.615 261.552919  L 174.735 261.552919  "
               style="fill:none;stroke:#cccccc;stroke-linecap:round;stroke-width:1.5;"
               id="path47" />
          </g>
          <g
             id="text_4">
            <!-- 50 -->
            <defs
               id="defs52">
              <path
                 d="M 10.796875 72.90625  L 49.515625 72.90625  L 49.515625 64.59375  L 19.828125 64.59375  L 19.828125 46.734375  Q 21.96875 47.46875 24.109375 47.828125  Q 26.265625 48.1875 28.421875 48.1875  Q 40.625 48.1875 47.75 41.5  Q 54.890625 34.8125 54.890625 23.390625  Q 54.890625 11.625 47.5625 5.09375  Q 40.234375 -1.421875 26.90625 -1.421875  Q 22.3125 -1.421875 17.546875 -0.640625  Q 12.796875 0.140625 7.71875 1.703125  L 7.71875 11.625  Q 12.109375 9.234375 16.796875 8.0625  Q 21.484375 6.890625 26.703125 6.890625  Q 35.15625 6.890625 40.078125 11.328125  Q 45.015625 15.765625 45.015625 23.390625  Q 45.015625 31 40.078125 35.4375  Q 35.15625 39.890625 26.703125 39.890625  Q 22.75 39.890625 18.8125 39.015625  Q 14.890625 38.140625 10.796875 36.28125  z "
                 id="DejaVuSans-53" />
              <path
                 d="M 31.78125 66.40625  Q 24.171875 66.40625 20.328125 58.90625  Q 16.5 51.421875 16.5 36.375  Q 16.5 21.390625 20.328125 13.890625  Q 24.171875 6.390625 31.78125 6.390625  Q 39.453125 6.390625 43.28125 13.890625  Q 47.125 21.390625 47.125 36.375  Q 47.125 51.421875 43.28125 58.90625  Q 39.453125 66.40625 31.78125 66.40625  z M 31.78125 74.21875  Q 44.046875 74.21875 50.515625 64.515625  Q 56.984375 54.828125 56.984375 36.375  Q 56.984375 17.96875 50.515625 8.265625  Q 44.046875 -1.421875 31.78125 -1.421875  Q 19.53125 -1.421875 13.0625 8.265625  Q 6.59375 17.96875 6.59375 36.375  Q 6.59375 54.828125 13.0625 64.515625  Q 19.53125 74.21875 31.78125 74.21875  z "
                 id="DejaVuSans-48" />
            </defs>
            <g
               style="fill:#262626;"
               transform="translate(39.11875 267.82163)scale(0.165 -0.165)"
               id="g58">
              <use
                 xlink:href="#DejaVuSans-53"
                 id="use54" />
              <use
                 x="63.623047"
                 xlink:href="#DejaVuSans-48"
                 id="use56" />
            </g>
          </g>
        </g>
        <g
           id="ytick_2">
          <g
             id="line2d_2">
            <path
               clip-path="url(#pa22cb6c788)"
               d="M 72.615 212.535828  L 174.735 212.535828  "
               style="fill:none;stroke:#cccccc;stroke-linecap:round;stroke-width:1.5;"
               id="path62" />
          </g>
          <g
             id="text_5">
            <!-- 100 -->
            <g
               style="fill:#262626;"
               transform="translate(28.620625 218.804539)scale(0.165 -0.165)"
               id="g71">
              <use
                 xlink:href="#DejaVuSans-49"
                 id="use65" />
              <use
                 x="63.623047"
                 xlink:href="#DejaVuSans-48"
                 id="use67" />
              <use
                 x="127.246094"
                 xlink:href="#DejaVuSans-48"
                 id="use69" />
            </g>
          </g>
        </g>
        <g
           id="ytick_3">
          <g
             id="line2d_3">
            <path
               clip-path="url(#pa22cb6c788)"
               d="M 72.615 163.518737  L 174.735 163.518737  "
               style="fill:none;stroke:#cccccc;stroke-linecap:round;stroke-width:1.5;"
               id="path75" />
          </g>
          <g
             id="text_6">
            <!-- 150 -->
            <g
               style="fill:#262626;"
               transform="translate(28.620625 169.787447)scale(0.165 -0.165)"
               id="g84">
              <use
                 xlink:href="#DejaVuSans-49"
                 id="use78" />
              <use
                 x="63.623047"
                 xlink:href="#DejaVuSans-53"
                 id="use80" />
              <use
                 x="127.246094"
                 xlink:href="#DejaVuSans-48"
                 id="use82" />
            </g>
          </g>
        </g>
        <g
           id="ytick_4">
          <g
             id="line2d_4">
            <path
               clip-path="url(#pa22cb6c788)"
               d="M 72.615 114.501645  L 174.735 114.501645  "
               style="fill:none;stroke:#cccccc;stroke-linecap:round;stroke-width:1.5;"
               id="path88" />
          </g>
          <g
             id="text_7">
            <!-- 200 -->
            <g
               style="fill:#262626;"
               transform="translate(28.620625 120.770356)scale(0.165 -0.165)"
               id="g97">
              <use
                 xlink:href="#DejaVuSans-50"
                 id="use91" />
              <use
                 x="63.623047"
                 xlink:href="#DejaVuSans-48"
                 id="use93" />
              <use
                 x="127.246094"
                 xlink:href="#DejaVuSans-48"
                 id="use95" />
            </g>
          </g>
        </g>
        <g
           id="ytick_5">
          <g
             id="line2d_5">
            <path
               clip-path="url(#pa22cb6c788)"
               d="M 72.615 65.484554  L 174.735 65.484554  "
               style="fill:none;stroke:#cccccc;stroke-linecap:round;stroke-width:1.5;"
               id="path101" />
          </g>
          <g
             id="text_8">
            <!-- 250 -->
            <g
               style="fill:#262626;"
               transform="translate(28.620625 71.753264)scale(0.165 -0.165)"
               id="g110">
              <use
                 xlink:href="#DejaVuSans-50"
                 id="use104" />
              <use
                 x="63.623047"
                 xlink:href="#DejaVuSans-53"
                 id="use106" />
              <use
                 x="127.246094"
                 xlink:href="#DejaVuSans-48"
                 id="use108" />
            </g>
          </g>
        </g>
        <g
           id="ytick_6">
          <g
             id="line2d_6">
            <path
               clip-path="url(#pa22cb6c788)"
               d="M 72.615 16.467462  L 174.735 16.467462  "
               style="fill:none;stroke:#cccccc;stroke-linecap:round;stroke-width:1.5;"
               id="path114" />
          </g>
          <g
             id="text_9">
            <!-- 300 -->
            <g
               style="fill:#262626;"
               transform="translate(28.620625 22.736173)scale(0.165 -0.165)"
               id="g123">
              <use
                 xlink:href="#DejaVuSans-51"
                 id="use117" />
              <use
                 x="63.623047"
                 xlink:href="#DejaVuSans-48"
                 id="use119" />
              <use
                 x="127.246094"
                 xlink:href="#DejaVuSans-48"
                 id="use121" />
            </g>
          </g>
        </g>
        <g
           id="text_10">
          <!-- $D_{access}$ -->
          <defs
             id="defs132">
            <path
               d="M 16.890625 72.90625  L 38.09375 72.90625  Q 54.984375 72.90625 63.59375 65.75  Q 72.21875 58.59375 72.21875 44.484375  Q 72.21875 35.15625 68.9375 26.53125  Q 65.671875 17.921875 59.90625 12.015625  Q 54.109375 5.953125 45.171875 2.96875  Q 36.234375 0 24.03125 0  L 2.6875 0  z M 25.203125 64.796875  L 14.203125 8.109375  L 27.09375 8.109375  Q 43.65625 8.109375 52.734375 17.625  Q 61.8125 27.15625 61.8125 44.484375  Q 61.8125 54.984375 55.953125 59.890625  Q 50.09375 64.796875 37.59375 64.796875  z "
               id="DejaVuSans-Oblique-68" />
            <path
               d="M 53.71875 31.203125  L 47.609375 0  L 38.625 0  L 40.28125 8.296875  Q 36.328125 3.421875 31.265625 1  Q 26.21875 -1.421875 20.015625 -1.421875  Q 13.03125 -1.421875 8.5625 2.84375  Q 4.109375 7.125 4.109375 13.8125  Q 4.109375 23.390625 11.75 28.953125  Q 19.390625 34.515625 32.8125 34.515625  L 45.3125 34.515625  L 45.796875 36.921875  Q 45.90625 37.3125 45.953125 37.765625  Q 46 38.234375 46 39.203125  Q 46 43.5625 42.453125 45.96875  Q 38.921875 48.390625 32.515625 48.390625  Q 28.125 48.390625 23.5 47.265625  Q 18.890625 46.140625 14.015625 43.890625  L 15.578125 52.203125  Q 20.65625 54.109375 25.515625 55.046875  Q 30.375 56 34.90625 56  Q 44.578125 56 49.625 51.796875  Q 54.6875 47.609375 54.6875 39.59375  Q 54.6875 37.984375 54.4375 35.8125  Q 54.203125 33.640625 53.71875 31.203125  z M 44 27.484375  L 35.015625 27.484375  Q 23.96875 27.484375 18.671875 24.53125  Q 13.375 21.578125 13.375 15.375  Q 13.375 11.078125 16.078125 8.640625  Q 18.796875 6.203125 23.578125 6.203125  Q 30.90625 6.203125 36.375 11.453125  Q 41.84375 16.703125 43.609375 25.484375  z "
               id="DejaVuSans-Oblique-97" />
            <path
               d="M 53.609375 52.59375  L 51.8125 43.703125  Q 48.578125 46.046875 44.9375 47.21875  Q 41.3125 48.390625 37.40625 48.390625  Q 33.109375 48.390625 29.21875 46.875  Q 25.34375 45.359375 22.703125 42.578125  Q 18.5 38.328125 16.203125 32.609375  Q 13.921875 26.90625 13.921875 20.796875  Q 13.921875 13.421875 17.609375 9.8125  Q 21.296875 6.203125 28.8125 6.203125  Q 32.515625 6.203125 36.6875 7.328125  Q 40.875 8.453125 45.40625 10.6875  L 43.703125 1.8125  Q 39.796875 0.203125 35.671875 -0.609375  Q 31.546875 -1.421875 27.203125 -1.421875  Q 16.3125 -1.421875 10.453125 4.015625  Q 4.59375 9.46875 4.59375 19.578125  Q 4.59375 28.078125 7.640625 35.234375  Q 10.6875 42.390625 16.703125 48.09375  Q 20.796875 52 26.3125 54  Q 31.84375 56 38.375 56  Q 42.1875 56 45.9375 55.140625  Q 49.703125 54.296875 53.609375 52.59375  z "
               id="DejaVuSans-Oblique-99" />
            <path
               d="M 48.09375 32.234375  Q 48.25 33.015625 48.3125 33.84375  Q 48.390625 34.671875 48.390625 35.5  Q 48.390625 41.453125 44.890625 44.921875  Q 41.40625 48.390625 35.40625 48.390625  Q 28.71875 48.390625 23.578125 44.15625  Q 18.453125 39.9375 15.828125 32.171875  z M 55.90625 25.203125  L 14.109375 25.203125  Q 13.8125 23.34375 13.71875 22.265625  Q 13.625 21.1875 13.625 20.40625  Q 13.625 13.625 17.796875 9.90625  Q 21.96875 6.203125 29.59375 6.203125  Q 35.453125 6.203125 40.671875 7.515625  Q 45.90625 8.84375 50.390625 11.375  L 48.6875 2.484375  Q 43.84375 0.53125 38.6875 -0.4375  Q 33.546875 -1.421875 28.21875 -1.421875  Q 16.84375 -1.421875 10.71875 4.015625  Q 4.59375 9.46875 4.59375 19.484375  Q 4.59375 28.03125 7.640625 35.375  Q 10.6875 42.71875 16.609375 48.484375  Q 20.40625 52.09375 25.65625 54.046875  Q 30.90625 56 36.8125 56  Q 46.09375 56 51.578125 50.4375  Q 57.078125 44.875 57.078125 35.5  Q 57.078125 33.25 56.78125 30.6875  Q 56.5 28.125 55.90625 25.203125  z "
               id="DejaVuSans-Oblique-101" />
            <path
               d="M 50 53.078125  L 48.296875 44.578125  Q 44.734375 46.53125 40.765625 47.5  Q 36.8125 48.484375 32.625 48.484375  Q 25.53125 48.484375 21.453125 46.0625  Q 17.390625 43.65625 17.390625 39.5  Q 17.390625 34.671875 26.859375 32.078125  Q 27.59375 31.890625 27.9375 31.78125  L 30.8125 30.90625  Q 39.796875 28.421875 42.796875 25.6875  Q 45.796875 22.953125 45.796875 18.21875  Q 45.796875 9.515625 38.890625 4.046875  Q 31.984375 -1.421875 20.796875 -1.421875  Q 16.453125 -1.421875 11.671875 -0.578125  Q 6.890625 0.25 1.125 2  L 2.875 11.28125  Q 7.8125 8.734375 12.59375 7.421875  Q 17.390625 6.109375 21.78125 6.109375  Q 28.375 6.109375 32.5 8.9375  Q 36.625 11.765625 36.625 16.109375  Q 36.625 20.796875 25.78125 23.6875  L 24.859375 23.921875  L 21.78125 24.703125  Q 14.9375 26.515625 11.765625 29.46875  Q 8.59375 32.421875 8.59375 37.015625  Q 8.59375 45.75 15.15625 50.875  Q 21.734375 56 33.015625 56  Q 37.453125 56 41.671875 55.265625  Q 45.90625 54.546875 50 53.078125  z "
               id="DejaVuSans-Oblique-115" />
          </defs>
          <g
             style="fill:#262626;"
             transform="translate(20.877188 174.45)rotate(-90)scale(0.18 -0.18)"
             id="g148">
            <use
               transform="translate(0 0.09375)"
               xlink:href="#DejaVuSans-Oblique-68"
               id="use134" />
            <use
               transform="translate(77.001953 -16.3125)scale(0.7)"
               xlink:href="#DejaVuSans-Oblique-97"
               id="use136" />
            <use
               transform="translate(119.897461 -16.3125)scale(0.7)"
               xlink:href="#DejaVuSans-Oblique-99"
               id="use138" />
            <use
               transform="translate(158.383789 -16.3125)scale(0.7)"
               xlink:href="#DejaVuSans-Oblique-99"
               id="use140" />
            <use
               transform="translate(196.870117 -16.3125)scale(0.7)"
               xlink:href="#DejaVuSans-Oblique-101"
               id="use142" />
            <use
               transform="translate(239.936523 -16.3125)scale(0.7)"
               xlink:href="#DejaVuSans-Oblique-115"
               id="use144" />
            <use
               transform="translate(276.40625 -16.3125)scale(0.7)"
               xlink:href="#DejaVuSans-Oblique-115"
               id="use146" />
          </g>
        </g>
      </g>
      <g
         id="patch_3">
        <path
           d="M 72.615 275.82  L 72.615 16.2  "
           style="fill:none;stroke:#cccccc;stroke-linecap:square;stroke-linejoin:miter;stroke-width:1.875;"
           id="path152" />
      </g>
      <g
         id="patch_4">
        <path
           d="M 72.615 275.82  L 174.735 275.82  "
           style="fill:none;stroke:#cccccc;stroke-linecap:square;stroke-linejoin:miter;stroke-width:1.875;"
           id="path155" />
      </g>
      <g
         id="PathCollection_1">
        <defs
           id="defs159">
          <path
             d="M 0 2.5  C 0.663008 2.5 1.29895 2.236584 1.767767 1.767767  C 2.236584 1.29895 2.5 0.663008 2.5 0  C 2.5 -0.663008 2.236584 -1.29895 1.767767 -1.767767  C 1.29895 -2.236584 0.663008 -2.5 0 -2.5  C -0.663008 -2.5 -1.29895 -2.236584 -1.767767 -1.767767  C -2.236584 -1.29895 -2.5 -0.663008 -2.5 0  C -2.5 0.663008 -2.236584 1.29895 -1.767767 1.767767  C -1.29895 2.236584 -0.663008 2.5 0 2.5  z "
             id="C0_0_722fa272c4" />
        </defs>
        <g
           clip-path="url(#pa22cb6c788)"
           id="g163">
          <use
             style="fill:#1f77b4;"
             x="89.635"
             xlink:href="#C0_0_722fa272c4"
             y="258.535488"
             id="use161" />
        </g>
        <g
           clip-path="url(#pa22cb6c788)"
           id="g167">
          <use
             style="fill:#1f77b4;"
             x="85.376373"
             xlink:href="#C0_0_722fa272c4"
             y="258.091571"
             id="use165" />
        </g>
        <g
           clip-path="url(#pa22cb6c788)"
           id="g171">
          <use
             style="fill:#1f77b4;"
             x="93.826905"
             xlink:href="#C0_0_722fa272c4"
             y="257.612731"
             id="use169" />
        </g>
        <g
           clip-path="url(#pa22cb6c788)"
           id="g175">
          <use
             style="fill:#1f77b4;"
             x="81.449796"
             xlink:href="#C0_0_722fa272c4"
             y="256.260832"
             id="use173" />
        </g>
        <g
           clip-path="url(#pa22cb6c788)"
           id="g179">
          <use
             style="fill:#1f77b4;"
             x="97.86154"
             xlink:href="#C0_0_722fa272c4"
             y="256.07874"
             id="use177" />
        </g>
        <g
           clip-path="url(#pa22cb6c788)"
           id="g183">
          <use
             style="fill:#1f77b4;"
             x="77.174946"
             xlink:href="#C0_0_722fa272c4"
             y="256.07008"
             id="use181" />
        </g>
        <g
           clip-path="url(#pa22cb6c788)"
           id="g187">
          <use
             style="fill:#1f77b4;"
             x="102.136804"
             xlink:href="#C0_0_722fa272c4"
             y="255.899091"
             id="use185" />
        </g>
      </g>
      <g
         id="PathCollection_2">
        <defs
           id="defs191">
          <path
             d="M 0 2.5  C 0.663008 2.5 1.29895 2.236584 1.767767 1.767767  C 2.236584 1.29895 2.5 0.663008 2.5 0  C 2.5 -0.663008 2.236584 -1.29895 1.767767 -1.767767  C 1.29895 -2.236584 0.663008 -2.5 0 -2.5  C -0.663008 -2.5 -1.29895 -2.236584 -1.767767 -1.767767  C -2.236584 -1.29895 -2.5 -0.663008 -2.5 0  C -2.5 0.663008 -2.236584 1.29895 -1.767767 1.767767  C -1.29895 2.236584 -0.663008 2.5 0 2.5  z "
             id="C1_0_caa2711584" />
        </defs>
        <g
           clip-path="url(#pa22cb6c788)"
           id="g195">
          <use
             style="fill:#ff7f0e;"
             x="123.675"
             xlink:href="#C1_0_caa2711584"
             y="85.322145"
             id="use193" />
        </g>
        <g
           clip-path="url(#pa22cb6c788)"
           id="g199">
          <use
             style="fill:#ff7f0e;"
             x="123.675"
             xlink:href="#C1_0_caa2711584"
             y="57.328266"
             id="use197" />
        </g>
        <g
           clip-path="url(#pa22cb6c788)"
           id="g203">
          <use
             style="fill:#ff7f0e;"
             x="119.579435"
             xlink:href="#C1_0_caa2711584"
             y="55.994787"
             id="use201" />
        </g>
        <g
           clip-path="url(#pa22cb6c788)"
           id="g207">
          <use
             style="fill:#ff7f0e;"
             x="127.212466"
             xlink:href="#C1_0_caa2711584"
             y="54.735478"
             id="use205" />
        </g>
        <g
           clip-path="url(#pa22cb6c788)"
           id="g211">
          <use
             style="fill:#ff7f0e;"
             x="123.675"
             xlink:href="#C1_0_caa2711584"
             y="47.965154"
             id="use209" />
        </g>
        <g
           clip-path="url(#pa22cb6c788)"
           id="g215">
          <use
             style="fill:#ff7f0e;"
             x="123.675"
             xlink:href="#C1_0_caa2711584"
             y="37.666185"
             id="use213" />
        </g>
        <g
           clip-path="url(#pa22cb6c788)"
           id="g219">
          <use
             style="fill:#ff7f0e;"
             x="123.675"
             xlink:href="#C1_0_caa2711584"
             y="28.026823"
             id="use217" />
        </g>
      </g>
      <g
         id="PathCollection_3">
        <defs
           id="defs223">
          <path
             d="M 0 2.5  C 0.663008 2.5 1.29895 2.236584 1.767767 1.767767  C 2.236584 1.29895 2.5 0.663008 2.5 0  C 2.5 -0.663008 2.236584 -1.29895 1.767767 -1.767767  C 1.29895 -2.236584 0.663008 -2.5 0 -2.5  C -0.663008 -2.5 -1.29895 -2.236584 -1.767767 -1.767767  C -2.236584 -1.29895 -2.5 -0.663008 -2.5 0  C -2.5 0.663008 -2.236584 1.29895 -1.767767 1.767767  C -1.29895 2.236584 -0.663008 2.5 0 2.5  z "
             id="C2_0_f32c75790e" />
        </defs>
        <g
           clip-path="url(#pa22cb6c788)"
           id="g227">
          <use
             style="fill:#2ca02c;"
             x="157.715"
             xlink:href="#C2_0_f32c75790e"
             y="261.767852"
             id="use225" />
        </g>
        <g
           clip-path="url(#pa22cb6c788)"
           id="g231">
          <use
             style="fill:#2ca02c;"
             x="153.480417"
             xlink:href="#C2_0_f32c75790e"
             y="261.109002"
             id="use229" />
        </g>
        <g
           clip-path="url(#pa22cb6c788)"
           id="g235">
          <use
             style="fill:#2ca02c;"
             x="161.946876"
             xlink:href="#C2_0_f32c75790e"
             y="261.089117"
             id="use233" />
        </g>
        <g
           clip-path="url(#pa22cb6c788)"
           id="g239">
          <use
             style="fill:#2ca02c;"
             x="166.201381"
             xlink:href="#C2_0_f32c75790e"
             y="260.601479"
             id="use237" />
        </g>
        <g
           clip-path="url(#pa22cb6c788)"
           id="g243">
          <use
             style="fill:#2ca02c;"
             x="149.379905"
             xlink:href="#C2_0_f32c75790e"
             y="259.793287"
             id="use241" />
        </g>
        <g
           clip-path="url(#pa22cb6c788)"
           id="g247">
          <use
             style="fill:#2ca02c;"
             x="145.10321"
             xlink:href="#C2_0_f32c75790e"
             y="259.658865"
             id="use245" />
        </g>
        <g
           clip-path="url(#pa22cb6c788)"
           id="g251">
          <use
             style="fill:#2ca02c;"
             x="170.33189"
             xlink:href="#C2_0_f32c75790e"
             y="259.399592"
             id="use249" />
        </g>
      </g>
      <g
         id="g4777"
         transform="translate(102.56672)"
         style="stroke-linecap:butt;stroke-linejoin:round">
        <path
           id="path4775"
           style="fill:none;stroke:#cccccc;stroke-width:1.875;stroke-linecap:square;stroke-linejoin:miter"
           d="M 72.615,275.82 V 16.2"
           inkscape:connector-curvature="0" />
      </g>
      <g
         id="g4781"
         transform="translate(0,-259.5)"
         style="stroke-linecap:butt;stroke-linejoin:round">
        <path
           id="path4779"
           style="fill:none;stroke:#cccccc;stroke-width:1.875;stroke-linecap:square;stroke-linejoin:miter"
           d="m 72.615,275.82 h 102.12"
           inkscape:connector-curvature="0" />
      </g>
    </g>
  </g>
  <defs
     id="defs259">
    <clipPath
       id="pa22cb6c788">
      <rect
         height="259.62"
         width="102.12"
         x="72.615"
         y="16.2"
         id="rect256" />
    </clipPath>
  </defs>
</svg>
