<?xml version="1.0" encoding="utf-8" standalone="no"?>
<!DOCTYPE svg PUBLIC "-//W3C//DTD SVG 1.1//EN"
  "http://www.w3.org/Graphics/SVG/1.1/DTD/svg11.dtd">
<!-- Created with matplotlib (https://matplotlib.org/) -->
<svg height="288pt" version="1.1" viewBox="0 0 432 288" width="432pt" xmlns="http://www.w3.org/2000/svg" xmlns:xlink="http://www.w3.org/1999/xlink">
 <defs>
  <style type="text/css">
*{stroke-linecap:butt;stroke-linejoin:round;}
  </style>
 </defs>
 <g id="figure_1">
  <g id="patch_1">
   <path d="M 0 288 
L 432 288 
L 432 0 
L 0 0 
z
" style="fill:#ffffff;"/>
  </g>
  <g id="axes_1">
   <g id="patch_2">
    <path d="M 54 252 
L 388.8 252 
L 388.8 34.56 
L 54 34.56 
z
" style="fill:#ffffff;"/>
   </g>
   <g id="matplotlib.axis_1">
    <g id="xtick_1">
     <g id="line2d_1">
      <path clip-path="url(#pfd590ad765)" d="M 111.823132 252 
L 111.823132 34.56 
" style="fill:none;stroke:#cccccc;stroke-linecap:round;stroke-width:0.8;"/>
     </g>
     <g id="text_1">
      <!-- $\mathdefault{10^{0}}$ -->
      <defs>
       <path d="M 12.40625 8.296875 
L 28.515625 8.296875 
L 28.515625 63.921875 
L 10.984375 60.40625 
L 10.984375 69.390625 
L 28.421875 72.90625 
L 38.28125 72.90625 
L 38.28125 8.296875 
L 54.390625 8.296875 
L 54.390625 0 
L 12.40625 0 
z
" id="DejaVuSans-49"/>
       <path d="M 31.78125 66.40625 
Q 24.171875 66.40625 20.328125 58.90625 
Q 16.5 51.421875 16.5 36.375 
Q 16.5 21.390625 20.328125 13.890625 
Q 24.171875 6.390625 31.78125 6.390625 
Q 39.453125 6.390625 43.28125 13.890625 
Q 47.125 21.390625 47.125 36.375 
Q 47.125 51.421875 43.28125 58.90625 
Q 39.453125 66.40625 31.78125 66.40625 
z
M 31.78125 74.21875 
Q 44.046875 74.21875 50.515625 64.515625 
Q 56.984375 54.828125 56.984375 36.375 
Q 56.984375 17.96875 50.515625 8.265625 
Q 44.046875 -1.421875 31.78125 -1.421875 
Q 19.53125 -1.421875 13.0625 8.265625 
Q 6.59375 17.96875 6.59375 36.375 
Q 6.59375 54.828125 13.0625 64.515625 
Q 19.53125 74.21875 31.78125 74.21875 
z
" id="DejaVuSans-48"/>
      </defs>
      <g style="fill:#262626;" transform="translate(103.023132 266.598437)scale(0.1 -0.1)">
       <use transform="translate(0 0.765625)" xlink:href="#DejaVuSans-49"/>
       <use transform="translate(63.623047 0.765625)" xlink:href="#DejaVuSans-48"/>
       <use transform="translate(128.203125 39.046875)scale(0.7)" xlink:href="#DejaVuSans-48"/>
      </g>
     </g>
    </g>
    <g id="xtick_2">
     <g id="line2d_2">
      <path clip-path="url(#pfd590ad765)" d="M 182.588422 252 
L 182.588422 34.56 
" style="fill:none;stroke:#cccccc;stroke-linecap:round;stroke-width:0.8;"/>
     </g>
     <g id="text_2">
      <!-- $\mathdefault{10^{1}}$ -->
      <g style="fill:#262626;" transform="translate(173.788422 266.598437)scale(0.1 -0.1)">
       <use transform="translate(0 0.684375)" xlink:href="#DejaVuSans-49"/>
       <use transform="translate(63.623047 0.684375)" xlink:href="#DejaVuSans-48"/>
       <use transform="translate(128.203125 38.965625)scale(0.7)" xlink:href="#DejaVuSans-49"/>
      </g>
     </g>
    </g>
    <g id="xtick_3">
     <g id="line2d_3">
      <path clip-path="url(#pfd590ad765)" d="M 253.353713 252 
L 253.353713 34.56 
" style="fill:none;stroke:#cccccc;stroke-linecap:round;stroke-width:0.8;"/>
     </g>
     <g id="text_3">
      <!-- $\mathdefault{10^{2}}$ -->
      <defs>
       <path d="M 19.1875 8.296875 
L 53.609375 8.296875 
L 53.609375 0 
L 7.328125 0 
L 7.328125 8.296875 
Q 12.9375 14.109375 22.625 23.890625 
Q 32.328125 33.6875 34.8125 36.53125 
Q 39.546875 41.84375 41.421875 45.53125 
Q 43.3125 49.21875 43.3125 52.78125 
Q 43.3125 58.59375 39.234375 62.25 
Q 35.15625 65.921875 28.609375 65.921875 
Q 23.96875 65.921875 18.8125 64.3125 
Q 13.671875 62.703125 7.8125 59.421875 
L 7.8125 69.390625 
Q 13.765625 71.78125 18.9375 73 
Q 24.125 74.21875 28.421875 74.21875 
Q 39.75 74.21875 46.484375 68.546875 
Q 53.21875 62.890625 53.21875 53.421875 
Q 53.21875 48.921875 51.53125 44.890625 
Q 49.859375 40.875 45.40625 35.40625 
Q 44.1875 33.984375 37.640625 27.21875 
Q 31.109375 20.453125 19.1875 8.296875 
z
" id="DejaVuSans-50"/>
      </defs>
      <g style="fill:#262626;" transform="translate(244.553713 266.598437)scale(0.1 -0.1)">
       <use transform="translate(0 0.765625)" xlink:href="#DejaVuSans-49"/>
       <use transform="translate(63.623047 0.765625)" xlink:href="#DejaVuSans-48"/>
       <use transform="translate(128.203125 39.046875)scale(0.7)" xlink:href="#DejaVuSans-50"/>
      </g>
     </g>
    </g>
    <g id="xtick_4">
     <g id="line2d_4">
      <path clip-path="url(#pfd590ad765)" d="M 324.119003 252 
L 324.119003 34.56 
" style="fill:none;stroke:#cccccc;stroke-linecap:round;stroke-width:0.8;"/>
     </g>
     <g id="text_4">
      <!-- $\mathdefault{10^{3}}$ -->
      <defs>
       <path d="M 40.578125 39.3125 
Q 47.65625 37.796875 51.625 33 
Q 55.609375 28.21875 55.609375 21.1875 
Q 55.609375 10.40625 48.1875 4.484375 
Q 40.765625 -1.421875 27.09375 -1.421875 
Q 22.515625 -1.421875 17.65625 -0.515625 
Q 12.796875 0.390625 7.625 2.203125 
L 7.625 11.71875 
Q 11.71875 9.328125 16.59375 8.109375 
Q 21.484375 6.890625 26.8125 6.890625 
Q 36.078125 6.890625 40.9375 10.546875 
Q 45.796875 14.203125 45.796875 21.1875 
Q 45.796875 27.640625 41.28125 31.265625 
Q 36.765625 34.90625 28.71875 34.90625 
L 20.21875 34.90625 
L 20.21875 43.015625 
L 29.109375 43.015625 
Q 36.375 43.015625 40.234375 45.921875 
Q 44.09375 48.828125 44.09375 54.296875 
Q 44.09375 59.90625 40.109375 62.90625 
Q 36.140625 65.921875 28.71875 65.921875 
Q 24.65625 65.921875 20.015625 65.03125 
Q 15.375 64.15625 9.8125 62.3125 
L 9.8125 71.09375 
Q 15.4375 72.65625 20.34375 73.4375 
Q 25.25 74.21875 29.59375 74.21875 
Q 40.828125 74.21875 47.359375 69.109375 
Q 53.90625 64.015625 53.90625 55.328125 
Q 53.90625 49.265625 50.4375 45.09375 
Q 46.96875 40.921875 40.578125 39.3125 
z
" id="DejaVuSans-51"/>
      </defs>
      <g style="fill:#262626;" transform="translate(315.319003 266.598437)scale(0.1 -0.1)">
       <use transform="translate(0 0.765625)" xlink:href="#DejaVuSans-49"/>
       <use transform="translate(63.623047 0.765625)" xlink:href="#DejaVuSans-48"/>
       <use transform="translate(128.203125 39.046875)scale(0.7)" xlink:href="#DejaVuSans-51"/>
      </g>
     </g>
    </g>
    <g id="xtick_5"/>
    <g id="xtick_6"/>
    <g id="xtick_7"/>
    <g id="xtick_8"/>
    <g id="xtick_9"/>
    <g id="xtick_10"/>
    <g id="xtick_11"/>
    <g id="xtick_12"/>
    <g id="xtick_13"/>
    <g id="xtick_14"/>
    <g id="xtick_15"/>
    <g id="xtick_16"/>
    <g id="xtick_17"/>
    <g id="xtick_18"/>
    <g id="xtick_19"/>
    <g id="xtick_20"/>
    <g id="xtick_21"/>
    <g id="xtick_22"/>
    <g id="xtick_23"/>
    <g id="xtick_24"/>
    <g id="xtick_25"/>
    <g id="xtick_26"/>
    <g id="xtick_27"/>
    <g id="xtick_28"/>
    <g id="xtick_29"/>
    <g id="xtick_30"/>
    <g id="xtick_31"/>
    <g id="xtick_32"/>
    <g id="xtick_33"/>
    <g id="xtick_34"/>
    <g id="xtick_35"/>
    <g id="xtick_36"/>
    <g id="xtick_37"/>
    <g id="xtick_38"/>
    <g id="xtick_39"/>
    <g id="xtick_40"/>
    <g id="xtick_41"/>
    <g id="xtick_42"/>
    <g id="xtick_43"/>
    <g id="text_5">
     <!-- Throttle rate -->
     <defs>
      <path d="M -0.296875 72.90625 
L 61.375 72.90625 
L 61.375 64.59375 
L 35.5 64.59375 
L 35.5 0 
L 25.59375 0 
L 25.59375 64.59375 
L -0.296875 64.59375 
z
" id="DejaVuSans-84"/>
      <path d="M 54.890625 33.015625 
L 54.890625 0 
L 45.90625 0 
L 45.90625 32.71875 
Q 45.90625 40.484375 42.875 44.328125 
Q 39.84375 48.1875 33.796875 48.1875 
Q 26.515625 48.1875 22.3125 43.546875 
Q 18.109375 38.921875 18.109375 30.90625 
L 18.109375 0 
L 9.078125 0 
L 9.078125 75.984375 
L 18.109375 75.984375 
L 18.109375 46.1875 
Q 21.34375 51.125 25.703125 53.5625 
Q 30.078125 56 35.796875 56 
Q 45.21875 56 50.046875 50.171875 
Q 54.890625 44.34375 54.890625 33.015625 
z
" id="DejaVuSans-104"/>
      <path d="M 41.109375 46.296875 
Q 39.59375 47.171875 37.8125 47.578125 
Q 36.03125 48 33.890625 48 
Q 26.265625 48 22.1875 43.046875 
Q 18.109375 38.09375 18.109375 28.8125 
L 18.109375 0 
L 9.078125 0 
L 9.078125 54.6875 
L 18.109375 54.6875 
L 18.109375 46.1875 
Q 20.953125 51.171875 25.484375 53.578125 
Q 30.03125 56 36.53125 56 
Q 37.453125 56 38.578125 55.875 
Q 39.703125 55.765625 41.0625 55.515625 
z
" id="DejaVuSans-114"/>
      <path d="M 30.609375 48.390625 
Q 23.390625 48.390625 19.1875 42.75 
Q 14.984375 37.109375 14.984375 27.296875 
Q 14.984375 17.484375 19.15625 11.84375 
Q 23.34375 6.203125 30.609375 6.203125 
Q 37.796875 6.203125 41.984375 11.859375 
Q 46.1875 17.53125 46.1875 27.296875 
Q 46.1875 37.015625 41.984375 42.703125 
Q 37.796875 48.390625 30.609375 48.390625 
z
M 30.609375 56 
Q 42.328125 56 49.015625 48.375 
Q 55.71875 40.765625 55.71875 27.296875 
Q 55.71875 13.875 49.015625 6.21875 
Q 42.328125 -1.421875 30.609375 -1.421875 
Q 18.84375 -1.421875 12.171875 6.21875 
Q 5.515625 13.875 5.515625 27.296875 
Q 5.515625 40.765625 12.171875 48.375 
Q 18.84375 56 30.609375 56 
z
" id="DejaVuSans-111"/>
      <path d="M 18.3125 70.21875 
L 18.3125 54.6875 
L 36.8125 54.6875 
L 36.8125 47.703125 
L 18.3125 47.703125 
L 18.3125 18.015625 
Q 18.3125 11.328125 20.140625 9.421875 
Q 21.96875 7.515625 27.59375 7.515625 
L 36.8125 7.515625 
L 36.8125 0 
L 27.59375 0 
Q 17.1875 0 13.234375 3.875 
Q 9.28125 7.765625 9.28125 18.015625 
L 9.28125 47.703125 
L 2.6875 47.703125 
L 2.6875 54.6875 
L 9.28125 54.6875 
L 9.28125 70.21875 
z
" id="DejaVuSans-116"/>
      <path d="M 9.421875 75.984375 
L 18.40625 75.984375 
L 18.40625 0 
L 9.421875 0 
z
" id="DejaVuSans-108"/>
      <path d="M 56.203125 29.59375 
L 56.203125 25.203125 
L 14.890625 25.203125 
Q 15.484375 15.921875 20.484375 11.0625 
Q 25.484375 6.203125 34.421875 6.203125 
Q 39.59375 6.203125 44.453125 7.46875 
Q 49.3125 8.734375 54.109375 11.28125 
L 54.109375 2.78125 
Q 49.265625 0.734375 44.1875 -0.34375 
Q 39.109375 -1.421875 33.890625 -1.421875 
Q 20.796875 -1.421875 13.15625 6.1875 
Q 5.515625 13.8125 5.515625 26.8125 
Q 5.515625 40.234375 12.765625 48.109375 
Q 20.015625 56 32.328125 56 
Q 43.359375 56 49.78125 48.890625 
Q 56.203125 41.796875 56.203125 29.59375 
z
M 47.21875 32.234375 
Q 47.125 39.59375 43.09375 43.984375 
Q 39.0625 48.390625 32.421875 48.390625 
Q 24.90625 48.390625 20.390625 44.140625 
Q 15.875 39.890625 15.1875 32.171875 
z
" id="DejaVuSans-101"/>
      <path id="DejaVuSans-32"/>
      <path d="M 34.28125 27.484375 
Q 23.390625 27.484375 19.1875 25 
Q 14.984375 22.515625 14.984375 16.5 
Q 14.984375 11.71875 18.140625 8.90625 
Q 21.296875 6.109375 26.703125 6.109375 
Q 34.1875 6.109375 38.703125 11.40625 
Q 43.21875 16.703125 43.21875 25.484375 
L 43.21875 27.484375 
z
M 52.203125 31.203125 
L 52.203125 0 
L 43.21875 0 
L 43.21875 8.296875 
Q 40.140625 3.328125 35.546875 0.953125 
Q 30.953125 -1.421875 24.3125 -1.421875 
Q 15.921875 -1.421875 10.953125 3.296875 
Q 6 8.015625 6 15.921875 
Q 6 25.140625 12.171875 29.828125 
Q 18.359375 34.515625 30.609375 34.515625 
L 43.21875 34.515625 
L 43.21875 35.40625 
Q 43.21875 41.609375 39.140625 45 
Q 35.0625 48.390625 27.6875 48.390625 
Q 23 48.390625 18.546875 47.265625 
Q 14.109375 46.140625 10.015625 43.890625 
L 10.015625 52.203125 
Q 14.9375 54.109375 19.578125 55.046875 
Q 24.21875 56 28.609375 56 
Q 40.484375 56 46.34375 49.84375 
Q 52.203125 43.703125 52.203125 31.203125 
z
" id="DejaVuSans-97"/>
     </defs>
     <g style="fill:#262626;" transform="translate(189.932813 280.276563)scale(0.1 -0.1)">
      <use xlink:href="#DejaVuSans-84"/>
      <use x="61.083984" xlink:href="#DejaVuSans-104"/>
      <use x="124.462891" xlink:href="#DejaVuSans-114"/>
      <use x="165.544922" xlink:href="#DejaVuSans-111"/>
      <use x="226.726562" xlink:href="#DejaVuSans-116"/>
      <use x="265.935547" xlink:href="#DejaVuSans-116"/>
      <use x="305.144531" xlink:href="#DejaVuSans-108"/>
      <use x="332.927734" xlink:href="#DejaVuSans-101"/>
      <use x="394.451172" xlink:href="#DejaVuSans-32"/>
      <use x="426.238281" xlink:href="#DejaVuSans-114"/>
      <use x="467.351562" xlink:href="#DejaVuSans-97"/>
      <use x="528.630859" xlink:href="#DejaVuSans-116"/>
      <use x="567.839844" xlink:href="#DejaVuSans-101"/>
     </g>
    </g>
   </g>
   <g id="matplotlib.axis_2">
    <g id="ytick_1">
     <g id="line2d_5">
      <path clip-path="url(#pfd590ad765)" d="M 54 242.134533 
L 388.8 242.134533 
" style="fill:none;stroke:#cccccc;stroke-linecap:round;stroke-width:0.8;"/>
     </g>
     <g id="text_6">
      <!-- 0 -->
      <g style="fill:#262626;" transform="translate(40.6375 245.933751)scale(0.1 -0.1)">
       <use xlink:href="#DejaVuSans-48"/>
      </g>
     </g>
    </g>
    <g id="ytick_2">
     <g id="line2d_6">
      <path clip-path="url(#pfd590ad765)" d="M 54 193.955465 
L 388.8 193.955465 
" style="fill:none;stroke:#cccccc;stroke-linecap:round;stroke-width:0.8;"/>
     </g>
     <g id="text_7">
      <!-- 100 -->
      <g style="fill:#262626;" transform="translate(27.9125 197.754683)scale(0.1 -0.1)">
       <use xlink:href="#DejaVuSans-49"/>
       <use x="63.623047" xlink:href="#DejaVuSans-48"/>
       <use x="127.246094" xlink:href="#DejaVuSans-48"/>
      </g>
     </g>
    </g>
    <g id="ytick_3">
     <g id="line2d_7">
      <path clip-path="url(#pfd590ad765)" d="M 54 145.776396 
L 388.8 145.776396 
" style="fill:none;stroke:#cccccc;stroke-linecap:round;stroke-width:0.8;"/>
     </g>
     <g id="text_8">
      <!-- 200 -->
      <g style="fill:#262626;" transform="translate(27.9125 149.575615)scale(0.1 -0.1)">
       <use xlink:href="#DejaVuSans-50"/>
       <use x="63.623047" xlink:href="#DejaVuSans-48"/>
       <use x="127.246094" xlink:href="#DejaVuSans-48"/>
      </g>
     </g>
    </g>
    <g id="ytick_4">
     <g id="line2d_8">
      <path clip-path="url(#pfd590ad765)" d="M 54 97.597328 
L 388.8 97.597328 
" style="fill:none;stroke:#cccccc;stroke-linecap:round;stroke-width:0.8;"/>
     </g>
     <g id="text_9">
      <!-- 300 -->
      <g style="fill:#262626;" transform="translate(27.9125 101.396547)scale(0.1 -0.1)">
       <use xlink:href="#DejaVuSans-51"/>
       <use x="63.623047" xlink:href="#DejaVuSans-48"/>
       <use x="127.246094" xlink:href="#DejaVuSans-48"/>
      </g>
     </g>
    </g>
    <g id="ytick_5">
     <g id="line2d_9">
      <path clip-path="url(#pfd590ad765)" d="M 54 49.41826 
L 388.8 49.41826 
" style="fill:none;stroke:#cccccc;stroke-linecap:round;stroke-width:0.8;"/>
     </g>
     <g id="text_10">
      <!-- 400 -->
      <defs>
       <path d="M 37.796875 64.3125 
L 12.890625 25.390625 
L 37.796875 25.390625 
z
M 35.203125 72.90625 
L 47.609375 72.90625 
L 47.609375 25.390625 
L 58.015625 25.390625 
L 58.015625 17.1875 
L 47.609375 17.1875 
L 47.609375 0 
L 37.796875 0 
L 37.796875 17.1875 
L 4.890625 17.1875 
L 4.890625 26.703125 
z
" id="DejaVuSans-52"/>
      </defs>
      <g style="fill:#262626;" transform="translate(27.9125 53.217479)scale(0.1 -0.1)">
       <use xlink:href="#DejaVuSans-52"/>
       <use x="63.623047" xlink:href="#DejaVuSans-48"/>
       <use x="127.246094" xlink:href="#DejaVuSans-48"/>
      </g>
     </g>
    </g>
    <g id="text_11">
     <!-- Overhead(%) -->
     <defs>
      <path d="M 39.40625 66.21875 
Q 28.65625 66.21875 22.328125 58.203125 
Q 16.015625 50.203125 16.015625 36.375 
Q 16.015625 22.609375 22.328125 14.59375 
Q 28.65625 6.59375 39.40625 6.59375 
Q 50.140625 6.59375 56.421875 14.59375 
Q 62.703125 22.609375 62.703125 36.375 
Q 62.703125 50.203125 56.421875 58.203125 
Q 50.140625 66.21875 39.40625 66.21875 
z
M 39.40625 74.21875 
Q 54.734375 74.21875 63.90625 63.9375 
Q 73.09375 53.65625 73.09375 36.375 
Q 73.09375 19.140625 63.90625 8.859375 
Q 54.734375 -1.421875 39.40625 -1.421875 
Q 24.03125 -1.421875 14.8125 8.828125 
Q 5.609375 19.09375 5.609375 36.375 
Q 5.609375 53.65625 14.8125 63.9375 
Q 24.03125 74.21875 39.40625 74.21875 
z
" id="DejaVuSans-79"/>
      <path d="M 2.984375 54.6875 
L 12.5 54.6875 
L 29.59375 8.796875 
L 46.6875 54.6875 
L 56.203125 54.6875 
L 35.6875 0 
L 23.484375 0 
z
" id="DejaVuSans-118"/>
      <path d="M 45.40625 46.390625 
L 45.40625 75.984375 
L 54.390625 75.984375 
L 54.390625 0 
L 45.40625 0 
L 45.40625 8.203125 
Q 42.578125 3.328125 38.25 0.953125 
Q 33.9375 -1.421875 27.875 -1.421875 
Q 17.96875 -1.421875 11.734375 6.484375 
Q 5.515625 14.40625 5.515625 27.296875 
Q 5.515625 40.1875 11.734375 48.09375 
Q 17.96875 56 27.875 56 
Q 33.9375 56 38.25 53.625 
Q 42.578125 51.265625 45.40625 46.390625 
z
M 14.796875 27.296875 
Q 14.796875 17.390625 18.875 11.75 
Q 22.953125 6.109375 30.078125 6.109375 
Q 37.203125 6.109375 41.296875 11.75 
Q 45.40625 17.390625 45.40625 27.296875 
Q 45.40625 37.203125 41.296875 42.84375 
Q 37.203125 48.484375 30.078125 48.484375 
Q 22.953125 48.484375 18.875 42.84375 
Q 14.796875 37.203125 14.796875 27.296875 
z
" id="DejaVuSans-100"/>
      <path d="M 31 75.875 
Q 24.46875 64.65625 21.28125 53.65625 
Q 18.109375 42.671875 18.109375 31.390625 
Q 18.109375 20.125 21.3125 9.0625 
Q 24.515625 -2 31 -13.1875 
L 23.1875 -13.1875 
Q 15.875 -1.703125 12.234375 9.375 
Q 8.59375 20.453125 8.59375 31.390625 
Q 8.59375 42.28125 12.203125 53.3125 
Q 15.828125 64.359375 23.1875 75.875 
z
" id="DejaVuSans-40"/>
      <path d="M 72.703125 32.078125 
Q 68.453125 32.078125 66.03125 28.46875 
Q 63.625 24.859375 63.625 18.40625 
Q 63.625 12.0625 66.03125 8.421875 
Q 68.453125 4.78125 72.703125 4.78125 
Q 76.859375 4.78125 79.265625 8.421875 
Q 81.6875 12.0625 81.6875 18.40625 
Q 81.6875 24.8125 79.265625 28.4375 
Q 76.859375 32.078125 72.703125 32.078125 
z
M 72.703125 38.28125 
Q 80.421875 38.28125 84.953125 32.90625 
Q 89.5 27.546875 89.5 18.40625 
Q 89.5 9.28125 84.9375 3.921875 
Q 80.375 -1.421875 72.703125 -1.421875 
Q 64.890625 -1.421875 60.34375 3.921875 
Q 55.8125 9.28125 55.8125 18.40625 
Q 55.8125 27.59375 60.375 32.9375 
Q 64.9375 38.28125 72.703125 38.28125 
z
M 22.3125 68.015625 
Q 18.109375 68.015625 15.6875 64.375 
Q 13.28125 60.75 13.28125 54.390625 
Q 13.28125 47.953125 15.671875 44.328125 
Q 18.0625 40.71875 22.3125 40.71875 
Q 26.5625 40.71875 28.96875 44.328125 
Q 31.390625 47.953125 31.390625 54.390625 
Q 31.390625 60.6875 28.953125 64.34375 
Q 26.515625 68.015625 22.3125 68.015625 
z
M 66.40625 74.21875 
L 74.21875 74.21875 
L 28.609375 -1.421875 
L 20.796875 -1.421875 
z
M 22.3125 74.21875 
Q 30.03125 74.21875 34.609375 68.875 
Q 39.203125 63.53125 39.203125 54.390625 
Q 39.203125 45.171875 34.640625 39.84375 
Q 30.078125 34.515625 22.3125 34.515625 
Q 14.546875 34.515625 10.03125 39.859375 
Q 5.515625 45.21875 5.515625 54.390625 
Q 5.515625 63.484375 10.046875 68.84375 
Q 14.59375 74.21875 22.3125 74.21875 
z
" id="DejaVuSans-37"/>
      <path d="M 8.015625 75.875 
L 15.828125 75.875 
Q 23.140625 64.359375 26.78125 53.3125 
Q 30.421875 42.28125 30.421875 31.390625 
Q 30.421875 20.453125 26.78125 9.375 
Q 23.140625 -1.703125 15.828125 -13.1875 
L 8.015625 -13.1875 
Q 14.5 -2 17.703125 9.0625 
Q 20.90625 20.125 20.90625 31.390625 
Q 20.90625 42.671875 17.703125 53.65625 
Q 14.5 64.65625 8.015625 75.875 
z
" id="DejaVuSans-41"/>
     </defs>
     <g style="fill:#262626;" transform="translate(21.832812 176.4425)rotate(-90)scale(0.1 -0.1)">
      <use xlink:href="#DejaVuSans-79"/>
      <use x="78.710938" xlink:href="#DejaVuSans-118"/>
      <use x="137.890625" xlink:href="#DejaVuSans-101"/>
      <use x="199.414062" xlink:href="#DejaVuSans-114"/>
      <use x="240.511719" xlink:href="#DejaVuSans-104"/>
      <use x="303.890625" xlink:href="#DejaVuSans-101"/>
      <use x="365.414062" xlink:href="#DejaVuSans-97"/>
      <use x="426.693359" xlink:href="#DejaVuSans-100"/>
      <use x="490.169922" xlink:href="#DejaVuSans-40"/>
      <use x="529.183594" xlink:href="#DejaVuSans-37"/>
      <use x="624.203125" xlink:href="#DejaVuSans-41"/>
     </g>
    </g>
   </g>
   <g id="line2d_10">
    <path clip-path="url(#pfd590ad765)" d="M -1 97.881036 
L 69.218182 97.88138 
L 90.520657 103.597759 
L 102.981806 107.531714 
L 111.823132 113.15982 
L 118.680997 114.630934 
L 124.284281 115.202397 
L 129.02179 116.52041 
L 133.125607 118.528822 
L 136.74543 120.924782 
L 139.983472 123.146969 
L 142.912638 125.088475 
L 145.586756 127.336236 
L 148.046707 129.186092 
L 150.324265 131.411213 
L 152.444621 133.027606 
L 154.428082 134.882522 
L 166.889231 149.283662 
L 175.730557 161.407672 
L 182.588422 171.156142 
L 188.191706 178.64837 
L 192.929215 184.060885 
L 197.033032 188.22633 
L 200.652855 192.031682 
L 203.890897 195.218451 
L 206.820063 197.814902 
L 209.494181 200.222392 
L 211.954132 202.361452 
L 214.23169 204.059243 
L 216.352046 205.935693 
L 218.335507 207.435051 
L 220.198682 208.634823 
L 221.95533 210.774532 
L 223.616977 219.19969 
L 225.193372 227.942507 
L 226.692839 231.826694 
L 228.122538 233.112453 
L 229.488673 233.285966 
L 230.796656 233.635862 
L 232.051238 233.556828 
L 242.39203 234.96159 
L 256.282878 237.182106 
" style="fill:none;stroke:#a8a495;stroke-linecap:round;stroke-width:0.45;"/>
   </g>
   <g id="line2d_11">
    <path clip-path="url(#pfd590ad765)" d="M -1 61.860152 
L 69.218182 61.861 
L 90.520657 68.271913 
L 102.981806 71.544101 
L 111.823132 78.326348 
L 118.680997 82.138458 
L 124.284281 86.572496 
L 129.02179 90.352705 
L 133.125607 95.485798 
L 136.74543 99.286092 
L 139.983472 102.653359 
L 145.586756 108.474193 
L 148.046707 110.791578 
L 150.324265 112.650014 
L 152.444621 116.22203 
L 154.428082 118.923436 
L 166.889231 135.151854 
L 175.730557 172.097288 
L 182.588422 179.091656 
L 188.191706 182.964101 
L 192.929215 187.435429 
L 197.033032 191.920857 
L 200.652855 194.488109 
L 203.890897 197.871238 
L 206.820063 200.356039 
L 209.494181 202.666992 
L 211.954132 204.791639 
L 214.23169 205.924403 
L 216.352046 207.855789 
L 218.335507 209.404215 
L 220.198682 210.856398 
L 221.95533 211.93681 
L 223.616977 213.256611 
L 225.193372 214.255562 
L 226.692839 215.139907 
L 228.122538 216.202927 
L 229.488673 217.18975 
L 230.796656 217.723932 
L 232.051238 218.477931 
L 242.39203 223.947821 
L 250.11567 227.462686 
L 256.282878 229.827779 
" style="fill:none;stroke:#a8a495;stroke-linecap:round;stroke-width:0.45;"/>
   </g>
   <g id="line2d_12">
    <path clip-path="url(#pfd590ad765)" d="M -1 132.333356 
L 90.520657 132.33387 
L 111.823132 131.942008 
L 133.125607 132.046813 
L 145.586756 132.767855 
L 154.428082 132.758679 
L 161.285947 132.815491 
L 166.889231 133.483661 
L 171.62674 133.784402 
L 175.730557 133.788311 
L 179.35038 134.993505 
L 182.588422 134.741829 
L 253.353713 158.475238 
L 274.656188 172.404041 
L 287.117337 182.527662 
L 302.816528 195.473414 
L 324.119003 212.261546 
L 345.421478 224.756141 
" style="fill:none;stroke:#a8a495;stroke-linecap:round;stroke-width:0.45;"/>
   </g>
   <g id="line2d_13">
    <path clip-path="url(#pfd590ad765)" d="M -1 125.813504 
L 69.218182 125.815309 
L 90.520657 125.96436 
L 102.981806 127.354356 
L 111.823132 131.871837 
L 118.680997 133.876155 
L 124.284281 132.251183 
L 129.02179 131.996781 
L 133.125607 131.3051 
L 136.74543 131.990884 
L 139.983472 132.937801 
L 142.912638 131.627212 
L 145.586756 131.600973 
L 148.046707 136.905225 
L 150.324265 134.96743 
L 152.444621 136.729513 
L 154.428082 138.495258 
L 166.889231 138.671244 
L 175.730557 152.046207 
L 182.588422 154.161444 
L 188.191706 158.447103 
L 192.929215 158.321649 
L 197.033032 162.448702 
L 200.652855 165.25458 
L 203.890897 170.131252 
L 206.820063 168.998632 
L 209.494181 168.06884 
L 211.954132 173.91126 
L 214.23169 175.048053 
L 216.352046 176.142328 
L 218.335507 178.083826 
L 220.198682 180.026984 
L 221.95533 180.471307 
L 223.616977 182.473869 
L 225.193372 182.574802 
L 226.692839 185.343726 
L 228.122538 185.785855 
L 229.488673 185.59092 
L 230.796656 186.590928 
L 232.051238 189.05343 
L 242.39203 196.128217 
L 250.11567 203.514897 
L 256.282878 208.268428 
" style="fill:none;stroke:#a8a495;stroke-linecap:round;stroke-width:0.45;"/>
   </g>
   <g id="line2d_14">
    <path clip-path="url(#pfd590ad765)" d="M -1 126.030292 
L 69.218182 126.030621 
L 90.520657 126.788826 
L 102.981806 131.167699 
L 111.823132 130.325166 
L 118.680997 129.94406 
L 124.284281 129.285385 
L 129.02179 130.576947 
L 133.125607 131.809988 
L 136.74543 133.107845 
L 139.983472 131.153419 
L 142.912638 137.105142 
L 145.586756 133.247346 
L 148.046707 135.176335 
L 150.324265 134.158996 
L 152.444621 135.51084 
L 154.428082 134.418246 
L 166.889231 138.353978 
L 175.730557 153.461162 
L 182.588422 154.144089 
L 188.191706 158.661676 
L 192.929215 156.977485 
L 197.033032 161.918767 
L 200.652855 162.506089 
L 203.890897 164.979429 
L 206.820063 167.810047 
L 209.494181 172.241234 
L 211.954132 171.805523 
L 214.23169 174.709752 
L 216.352046 177.053747 
L 218.335507 178.769865 
L 220.198682 179.782781 
L 221.95533 179.903843 
L 223.616977 180.72861 
L 225.193372 182.545415 
L 226.692839 183.469024 
L 228.122538 185.815012 
L 229.488673 184.744282 
L 230.796656 186.8819 
L 232.051238 187.054118 
L 242.39203 197.924075 
L 250.11567 202.826916 
L 256.282878 208.233408 
" style="fill:none;stroke:#a8a495;stroke-linecap:round;stroke-width:0.45;"/>
   </g>
   <g id="line2d_15">
    <path clip-path="url(#pfd590ad765)" d="M -1 116.485791 
L 69.218182 116.485015 
L 90.520657 116.951826 
L 102.981806 118.039326 
L 111.823132 120.91181 
L 118.680997 122.104557 
L 124.284281 122.382523 
L 129.02179 122.710783 
L 133.125607 123.582084 
L 136.74543 124.752243 
L 139.983472 125.262183 
L 142.912638 125.869156 
L 145.586756 127.037496 
L 148.046707 127.580263 
L 150.324265 128.448055 
L 152.444621 130.329527 
L 154.428082 130.848935 
L 166.889231 139.183161 
L 175.730557 148.332029 
L 182.588422 156.442092 
L 188.191706 164.578063 
L 192.929215 171.671811 
L 197.033032 177.894274 
L 200.652855 182.92825 
L 203.890897 187.302248 
L 206.820063 190.977742 
L 209.494181 194.267897 
L 211.954132 196.850783 
L 214.23169 199.221879 
L 216.352046 201.268734 
L 218.335507 203.296671 
L 220.198682 204.926774 
L 221.95533 206.52876 
L 223.616977 210.12325 
L 225.193372 214.493534 
L 226.692839 219.860423 
L 228.122538 224.31079 
L 229.488673 227.826568 
L 230.796656 229.861215 
L 232.051238 230.899863 
L 242.39203 233.174155 
L 250.11567 234.527215 
L 256.282878 235.830646 
" style="fill:none;stroke:#a8a495;stroke-linecap:round;stroke-width:0.45;"/>
   </g>
   <g id="line2d_16">
    <path clip-path="url(#pfd590ad765)" d="M -1 135.360584 
L 90.520657 135.362625 
L 111.823132 135.05321 
L 133.125607 135.204992 
L 145.586756 135.179645 
L 154.428082 136.648682 
L 161.285947 136.089411 
L 166.889231 139.083264 
L 171.62674 138.729717 
L 175.730557 140.111778 
L 179.35038 140.969009 
L 182.588422 143.813332 
L 253.353713 186.5044 
L 274.656188 202.527187 
L 287.117337 211.093501 
L 302.816528 220.071903 
L 324.119003 228.839241 
L 345.421478 234.132762 
" style="fill:none;stroke:#a8a495;stroke-linecap:round;stroke-width:0.45;"/>
   </g>
   <g id="line2d_17">
    <path clip-path="url(#pfd590ad765)" d="M -1 146.07587 
L 90.520657 146.071378 
L 111.823132 148.045472 
L 133.125607 144.828327 
L 145.586756 151.279198 
L 154.428082 151.67893 
L 161.285947 154.439011 
L 166.889231 152.799303 
L 171.62674 156.578368 
L 175.730557 158.600674 
L 179.35038 157.176839 
L 182.588422 157.546394 
L 253.353713 194.076804 
L 274.656188 207.670911 
L 287.117337 216.327173 
L 302.816528 224.317267 
L 324.119003 231.924472 
" style="fill:none;stroke:#a8a495;stroke-linecap:round;stroke-width:0.45;"/>
   </g>
   <g id="line2d_18">
    <path clip-path="url(#pfd590ad765)" d="M -1 140.454739 
L 69.218182 140.45149 
L 90.520657 138.078602 
L 102.981806 139.119511 
L 111.823132 140.602431 
L 118.680997 141.142142 
L 124.284281 141.020283 
L 129.02179 141.138672 
L 133.125607 141.214696 
L 136.74543 141.113429 
L 139.983472 141.323706 
L 142.912638 141.126109 
L 145.586756 141.389623 
L 148.046707 141.347643 
L 150.324265 141.628517 
L 152.444621 141.817963 
L 154.428082 141.84907 
L 166.889231 142.702257 
L 175.730557 144.830662 
L 182.588422 147.338347 
L 188.191706 151.492977 
L 192.929215 156.866292 
L 197.033032 162.847717 
L 200.652855 169.301579 
L 203.890897 174.593435 
L 206.820063 179.204038 
L 209.494181 183.369576 
L 211.954132 187.058212 
L 214.23169 190.083732 
L 216.352046 192.82071 
L 218.335507 195.199291 
L 220.198682 197.373298 
L 221.95533 199.221117 
L 223.616977 201.056539 
L 225.193372 202.917027 
L 226.692839 204.893603 
L 228.122538 207.450179 
L 229.488673 210.359192 
L 230.796656 213.959563 
L 232.051238 217.805777 
L 242.39203 229.050023 
L 250.11567 231.223955 
L 256.282878 232.893037 
" style="fill:none;stroke:#a8a495;stroke-linecap:round;stroke-width:0.45;"/>
   </g>
   <g id="line2d_19">
    <path clip-path="url(#pfd590ad765)" d="M -1 103.614277 
L 69.218182 103.613379 
L 90.520657 107.007754 
L 102.981806 109.021211 
L 111.823132 111.500971 
L 118.680997 115.269904 
L 124.284281 118.212431 
L 129.02179 120.954751 
L 133.125607 124.30151 
L 136.74543 125.750016 
L 139.983472 128.388074 
L 142.912638 130.291765 
L 145.586756 132.217169 
L 148.046707 133.899593 
L 150.324265 135.610824 
L 152.444621 137.513458 
L 154.428082 138.875405 
L 166.889231 149.678984 
L 175.730557 168.165406 
L 182.588422 181.870716 
L 188.191706 186.245566 
L 192.929215 189.322833 
L 197.033032 192.853317 
L 200.652855 195.490383 
L 203.890897 198.119271 
L 206.820063 200.36331 
L 209.494181 201.755768 
L 211.954132 203.991896 
L 214.23169 205.483909 
L 216.352046 207.286313 
L 218.335507 208.517755 
L 220.198682 209.894374 
L 221.95533 211.054317 
L 223.616977 212.106501 
L 225.193372 213.162806 
L 226.692839 214.42684 
L 228.122538 214.699917 
L 229.488673 215.705793 
L 230.796656 216.578476 
L 232.051238 217.267993 
L 242.39203 222.742494 
L 250.11567 226.47488 
L 256.282878 228.870726 
" style="fill:none;stroke:#a8a495;stroke-linecap:round;stroke-width:0.45;"/>
   </g>
   <g id="line2d_20">
    <path clip-path="url(#pfd590ad765)" d="M -1 130.986429 
L 90.520657 130.986846 
L 111.823132 132.275316 
L 133.125607 133.075766 
L 145.586756 135.078928 
L 154.428082 135.080319 
L 161.285947 136.859238 
L 166.889231 138.132378 
L 171.62674 139.288224 
L 175.730557 140.288297 
L 179.35038 142.221244 
L 182.588422 142.020123 
L 253.353713 197.550983 
L 274.656188 211.221074 
L 287.117337 219.056537 
L 302.816528 226.3183 
L 324.119003 233.483657 
L 345.421478 237.497944 
" style="fill:none;stroke:#a8a495;stroke-linecap:round;stroke-width:0.45;"/>
   </g>
   <g id="line2d_21">
    <path clip-path="url(#pfd590ad765)" d="M -1 128.604153 
L 69.218182 128.598653 
L 90.520657 130.784799 
L 102.981806 130.244453 
L 111.823132 130.686276 
L 118.680997 135.248447 
L 124.284281 129.575027 
L 129.02179 137.394992 
L 133.125607 133.98812 
L 136.74543 133.027877 
L 139.983472 134.631455 
L 142.912638 132.409177 
L 145.586756 132.581375 
L 148.046707 136.041124 
L 150.324265 139.055985 
L 152.444621 135.106976 
L 154.428082 134.879345 
L 166.889231 133.646588 
L 175.730557 152.301438 
L 182.588422 156.964836 
L 188.191706 159.2791 
L 192.929215 159.05066 
L 197.033032 157.484299 
L 200.652855 166.207249 
L 203.890897 165.998221 
L 206.820063 172.964583 
L 209.494181 170.631204 
L 211.954132 175.380977 
L 214.23169 173.674321 
L 216.352046 177.530005 
L 218.335507 177.202151 
L 220.198682 180.332083 
L 221.95533 180.9141 
L 223.616977 184.2528 
L 225.193372 184.310161 
L 226.692839 184.444169 
L 228.122538 186.245894 
L 229.488673 189.115287 
L 230.796656 189.174599 
L 232.051238 190.697549 
L 242.39203 196.438688 
L 250.11567 203.964673 
L 256.282878 209.706377 
" style="fill:none;stroke:#a8a495;stroke-linecap:round;stroke-width:0.45;"/>
   </g>
   <g id="line2d_22">
    <path clip-path="url(#pfd590ad765)" d="M -1 136.398416 
L 90.520657 136.400411 
L 111.823132 137.273563 
L 133.125607 140.858669 
L 145.586756 140.983669 
L 154.428082 141.226962 
L 161.285947 143.646032 
L 166.889231 146.607624 
L 171.62674 147.538486 
L 175.730557 147.362114 
L 179.35038 153.442585 
L 182.588422 154.239543 
L 253.353713 200.603958 
L 274.656188 215.486116 
L 287.117337 222.415853 
L 302.816528 229.25331 
L 324.119003 235.228573 
L 345.421478 238.360069 
" style="fill:none;stroke:#a8a495;stroke-linecap:round;stroke-width:0.45;"/>
   </g>
   <g id="line2d_23">
    <path clip-path="url(#pfd590ad765)" d="M -1 122.365369 
L 69.218182 122.367211 
L 90.520657 124.747465 
L 102.981806 127.084105 
L 111.823132 127.566084 
L 118.680997 129.770701 
L 124.284281 131.403518 
L 129.02179 133.149935 
L 133.125607 134.803364 
L 136.74543 136.566178 
L 139.983472 138.062628 
L 142.912638 140.046638 
L 145.586756 141.274764 
L 148.046707 142.971838 
L 150.324265 144.224412 
L 152.444621 145.523313 
L 154.428082 146.572116 
L 166.889231 155.194172 
L 175.730557 167.76995 
L 182.588422 181.577999 
L 188.191706 185.671166 
L 192.929215 188.670362 
L 197.033032 191.764303 
L 200.652855 194.540632 
L 203.890897 195.795777 
L 206.820063 198.422684 
L 209.494181 200.506161 
L 211.954132 202.300615 
L 214.23169 203.733444 
L 216.352046 205.460908 
L 218.335507 206.816003 
L 220.198682 208.063339 
L 221.95533 209.256223 
L 223.616977 210.485748 
L 225.193372 210.97882 
L 226.692839 212.063745 
L 228.122538 212.917076 
L 229.488673 213.884179 
L 230.796656 214.724294 
L 232.051238 215.528281 
L 242.39203 221.541064 
L 250.11567 225.017518 
L 256.282878 227.546364 
" style="fill:none;stroke:#a8a495;stroke-linecap:round;stroke-width:0.45;"/>
   </g>
   <g id="line2d_24">
    <path clip-path="url(#pfd590ad765)" d="M -1 119.194391 
L 90.520657 119.194777 
L 111.823132 119.67966 
L 145.586756 120.184782 
L 154.428082 120.694167 
L 161.285947 120.696489 
L 166.889231 121.281749 
L 171.62674 121.628086 
L 175.730557 121.630959 
L 179.35038 121.992101 
L 182.588422 122.261675 
L 253.353713 152.012136 
L 274.656188 168.143145 
L 287.117337 179.315607 
L 345.421478 225.008233 
" style="fill:none;stroke:#a8a495;stroke-linecap:round;stroke-width:0.45;"/>
   </g>
   <g id="line2d_25">
    <path clip-path="url(#pfd590ad765)" d="M -1 152.543594 
L 90.520657 152.560798 
L 111.823132 162.488483 
L 133.125607 177.59277 
L 145.586756 187.957602 
L 154.428082 195.982397 
L 161.285947 202.053613 
L 166.889231 206.513003 
L 171.62674 210.360652 
L 175.730557 213.152207 
L 179.35038 215.682143 
L 182.588422 217.606249 
L 253.353713 238.507475 
L 274.656188 240.115521 
L 287.117337 240.708193 
L 302.816528 241.202461 
L 324.119003 241.613536 
L 345.421478 241.838378 
" style="fill:none;stroke:#a8a495;stroke-linecap:round;stroke-width:0.45;"/>
   </g>
   <g id="line2d_26">
    <path clip-path="url(#pfd590ad765)" d="M -1 130.33547 
L 90.520657 130.336055 
L 111.823132 130.533142 
L 133.125607 131.235413 
L 145.586756 131.824396 
L 154.428082 132.343502 
L 166.889231 133.28489 
L 171.62674 135.690727 
L 175.730557 136.966232 
L 179.35038 137.388802 
L 182.588422 137.707542 
L 274.656188 186.685768 
L 287.117337 197.739545 
L 302.816528 210.349485 
L 324.119003 223.505987 
L 345.421478 231.8895 
" style="fill:none;stroke:#a8a495;stroke-linecap:round;stroke-width:0.45;"/>
   </g>
   <g id="line2d_27">
    <path clip-path="url(#pfd590ad765)" d="M -1 46.977934 
L 69.218182 46.967929 
L 90.520657 44.443636 
L 102.981806 51.28136 
L 111.823132 61.467297 
L 118.680997 63.244733 
L 124.284281 67.985428 
L 129.02179 70.865762 
L 133.125607 77.535179 
L 136.74543 79.816003 
L 139.983472 82.837236 
L 142.912638 87.681276 
L 145.586756 91.73943 
L 148.046707 93.820753 
L 150.324265 97.102456 
L 152.444621 99.625809 
L 154.428082 103.338389 
L 166.889231 121.832663 
L 175.730557 136.73887 
L 182.588422 151.577549 
L 188.191706 160.324452 
L 192.929215 167.180243 
L 197.033032 172.896175 
L 200.652855 178.170527 
L 203.890897 182.017206 
L 206.820063 186.187671 
L 209.494181 189.659433 
L 211.954132 192.663286 
L 214.23169 195.096956 
L 216.352046 197.424075 
L 218.335507 199.507551 
L 220.198682 201.419078 
L 221.95533 204.745573 
L 223.616977 212.822487 
L 225.193372 228.798906 
L 226.692839 229.713561 
L 228.122538 230.121712 
L 229.488673 230.638508 
L 230.796656 230.40535 
L 232.051238 230.833511 
L 242.39203 233.048787 
L 250.11567 234.537293 
L 256.282878 235.495154 
" style="fill:none;stroke:#a8a495;stroke-linecap:round;stroke-width:0.45;"/>
   </g>
   <g id="line2d_28">
    <path clip-path="url(#pfd590ad765)" d="M -1 126.331008 
L 69.218182 126.332037 
L 90.520657 131.342057 
L 102.981806 129.043708 
L 111.823132 128.676626 
L 118.680997 130.602823 
L 124.284281 125.724953 
L 129.02179 136.366565 
L 133.125607 131.682997 
L 136.74543 131.175923 
L 139.983472 134.62021 
L 142.912638 134.965239 
L 145.586756 131.558263 
L 148.046707 133.956827 
L 150.324265 132.079768 
L 152.444621 136.946686 
L 154.428082 139.31325 
L 166.889231 138.236844 
L 175.730557 140.063864 
L 182.588422 153.120257 
L 188.191706 145.336802 
L 192.929215 153.389548 
L 197.033032 159.099609 
L 200.652855 159.724844 
L 203.890897 162.449088 
L 206.820063 162.426361 
L 209.494181 164.721417 
L 211.954132 171.33787 
L 214.23169 171.035567 
L 216.352046 172.069037 
L 218.335507 172.652915 
L 220.198682 173.274361 
L 221.95533 176.96469 
L 223.616977 196.856348 
L 225.193372 199.395876 
L 226.692839 199.591151 
L 228.122538 199.339046 
L 229.488673 201.424089 
L 230.796656 201.394142 
L 232.051238 200.352259 
L 242.39203 207.19682 
L 250.11567 211.464789 
L 256.282878 214.51947 
" style="fill:none;stroke:#a8a495;stroke-linecap:round;stroke-width:0.45;"/>
   </g>
   <g id="line2d_29">
    <path clip-path="url(#pfd590ad765)" d="M -1 125.465692 
L 90.520657 125.466195 
L 111.823132 125.672232 
L 133.125607 126.150263 
L 145.586756 125.965969 
L 154.428082 125.960165 
L 161.285947 126.963819 
L 171.62674 126.657141 
L 175.730557 127.362548 
L 179.35038 128.02633 
L 182.588422 127.701293 
L 253.353713 152.745013 
L 274.656188 166.972137 
L 287.117337 177.641508 
L 302.816528 191.759028 
L 324.119003 209.71573 
L 345.421478 223.321254 
" style="fill:none;stroke:#a8a495;stroke-linecap:round;stroke-width:0.45;"/>
   </g>
   <g id="line2d_30">
    <path clip-path="url(#pfd590ad765)" d="M -1 131.359153 
L 69.218182 131.357524 
L 90.520657 134.036807 
L 102.981806 133.71831 
L 111.823132 134.498156 
L 118.680997 135.832286 
L 124.284281 136.175502 
L 129.02179 136.116773 
L 133.125607 137.343635 
L 136.74543 137.423168 
L 139.983472 137.979364 
L 142.912638 138.643415 
L 145.586756 139.037975 
L 148.046707 139.520942 
L 150.324265 140.414099 
L 152.444621 141.037232 
L 154.428082 141.786575 
L 166.889231 148.057069 
L 175.730557 155.492606 
L 182.588422 162.818872 
L 188.191706 169.305156 
L 192.929215 175.402997 
L 197.033032 180.653578 
L 200.652855 184.718703 
L 203.890897 188.92047 
L 206.820063 192.198765 
L 209.494181 194.879825 
L 211.954132 197.285007 
L 214.23169 199.521034 
L 216.352046 201.107306 
L 218.335507 203.176446 
L 220.198682 204.533629 
L 221.95533 206.319079 
L 223.616977 209.474827 
L 225.193372 213.041292 
L 226.692839 217.2869 
L 228.122538 221.48366 
L 229.488673 225.147604 
L 230.796656 227.663323 
L 232.051238 229.082555 
L 242.39203 232.143576 
L 250.11567 233.40691 
L 256.282878 234.790738 
" style="fill:none;stroke:#a8a495;stroke-linecap:round;stroke-width:0.45;"/>
   </g>
   <g id="line2d_31">
    <path clip-path="url(#pfd590ad765)" d="M -1 135.898124 
L 69.218182 135.900808 
L 90.520657 136.21043 
L 102.981806 136.832996 
L 111.823132 137.432661 
L 118.680997 139.280303 
L 124.284281 140.212788 
L 129.02179 141.598665 
L 133.125607 142.958406 
L 136.74543 144.425062 
L 139.983472 145.757689 
L 142.912638 146.89745 
L 145.586756 148.337255 
L 148.046707 149.25483 
L 150.324265 150.108568 
L 152.444621 151.086479 
L 154.428082 151.925024 
L 166.889231 158.915513 
L 175.730557 168.674288 
L 182.588422 181.62315 
L 188.191706 185.157283 
L 192.929215 188.335441 
L 197.033032 190.224589 
L 200.652855 193.065003 
L 203.890897 195.29293 
L 206.820063 197.173624 
L 209.494181 199.093994 
L 211.954132 200.856871 
L 214.23169 202.363076 
L 216.352046 203.801757 
L 218.335507 205.174112 
L 220.198682 206.743023 
L 221.95533 207.03709 
L 223.616977 208.344649 
L 225.193372 209.574156 
L 226.692839 210.432466 
L 228.122538 211.405036 
L 229.488673 212.204095 
L 230.796656 213.010827 
L 232.051238 213.704311 
L 242.39203 219.700361 
L 250.11567 223.767449 
L 256.282878 226.338136 
" style="fill:none;stroke:#a8a495;stroke-linecap:round;stroke-width:0.45;"/>
   </g>
   <g id="line2d_32">
    <path clip-path="url(#pfd590ad765)" d="M -1 134.130047 
L 90.520657 134.130287 
L 111.823132 134.357698 
L 133.125607 135.007421 
L 145.586756 135.623264 
L 154.428082 136.059976 
L 161.285947 136.407668 
L 166.889231 137.13727 
L 171.62674 139.287586 
L 175.730557 140.475656 
L 179.35038 140.606672 
L 182.588422 141.024298 
L 253.353713 170.673019 
L 274.656188 188.249166 
L 287.117337 198.814208 
L 302.816528 211.004487 
L 324.119003 223.878721 
L 345.421478 232.09174 
" style="fill:none;stroke:#a8a495;stroke-linecap:round;stroke-width:0.45;"/>
   </g>
   <g id="line2d_33">
    <path clip-path="url(#pfd590ad765)" d="M -1 134.041618 
L 90.520657 134.042409 
L 111.823132 134.710516 
L 133.125607 134.238003 
L 145.586756 135.193089 
L 154.428082 138.28785 
L 161.285947 138.620773 
L 166.889231 139.016651 
L 171.62674 136.86086 
L 175.730557 141.696056 
L 179.35038 142.006244 
L 182.588422 142.525337 
L 253.353713 181.606233 
L 274.656188 197.649821 
L 287.117337 206.37245 
L 302.816528 216.600816 
L 324.119003 227.111349 
L 345.421478 234.058388 
" style="fill:none;stroke:#a8a495;stroke-linecap:round;stroke-width:0.45;"/>
   </g>
   <g id="line2d_34">
    <path clip-path="url(#pfd590ad765)" d="M -1 137.448143 
L 90.520657 137.446269 
L 111.823132 133.807179 
L 133.125607 139.319377 
L 145.586756 139.392772 
L 154.428082 139.783025 
L 161.285947 139.956995 
L 166.889231 142.536113 
L 171.62674 144.571934 
L 175.730557 147.282211 
L 179.35038 148.742433 
L 182.588422 151.34097 
L 253.353713 184.551823 
L 274.656188 201.720477 
L 287.117337 212.206417 
L 324.119003 230.716003 
L 345.421478 235.986347 
" style="fill:none;stroke:#a8a495;stroke-linecap:round;stroke-width:0.45;"/>
   </g>
   <g id="line2d_35">
    <path clip-path="url(#pfd590ad765)" d="M -1 171.84306 
L 69.218182 171.856688 
L 90.520657 179.090348 
L 102.981806 169.890896 
L 111.823132 178.498882 
L 118.680997 164.220696 
L 124.284281 151.221385 
L 129.02179 162.587497 
L 133.125607 169.786174 
L 136.74543 180.55785 
L 139.983472 166.000594 
L 142.912638 180.162928 
L 145.586756 165.444031 
L 148.046707 174.789994 
L 150.324265 172.832702 
L 152.444621 183.516093 
L 154.428082 190.224353 
L 166.889231 186.555357 
L 175.730557 196.865048 
L 182.588422 193.060914 
L 188.191706 203.968677 
L 192.929215 181.031076 
L 197.033032 197.162744 
L 200.652855 203.648298 
L 203.890897 207.859509 
L 206.820063 211.435893 
L 209.494181 204.647877 
L 211.954132 208.308328 
L 214.23169 211.768472 
L 216.352046 212.436883 
L 218.335507 222.520612 
L 220.198682 210.027778 
L 221.95533 220.640975 
L 223.616977 211.919072 
L 225.193372 221.035947 
L 226.692839 234.361384 
L 228.122538 219.893785 
L 229.488673 225.765995 
L 230.796656 228.007464 
L 232.051238 225.851561 
L 242.39203 228.62917 
L 250.11567 229.823638 
L 256.282878 229.362287 
" style="fill:none;stroke:#a8a495;stroke-linecap:round;stroke-width:0.45;"/>
   </g>
   <g id="line2d_36">
    <path clip-path="url(#pfd590ad765)" d="M -1 124.39004 
L 69.218182 124.388166 
L 90.520657 128.269563 
L 102.981806 130.856655 
L 111.823132 134.03705 
L 118.680997 122.818792 
L 124.284281 131.847977 
L 129.02179 133.110073 
L 133.125607 128.385393 
L 136.74543 129.020973 
L 139.983472 134.1815 
L 142.912638 131.630634 
L 145.586756 135.38862 
L 148.046707 136.201257 
L 150.324265 130.162415 
L 152.444621 133.410517 
L 154.428082 132.634898 
L 166.889231 137.972064 
L 175.730557 143.953276 
L 182.588422 148.888319 
L 188.191706 151.216331 
L 192.929215 157.423505 
L 197.033032 155.419069 
L 200.652855 157.76221 
L 203.890897 160.76146 
L 206.820063 163.645557 
L 209.494181 169.524655 
L 211.954132 160.849902 
L 214.23169 164.410556 
L 216.352046 171.10524 
L 218.335507 172.378844 
L 220.198682 176.15253 
L 221.95533 175.758056 
L 223.616977 194.701553 
L 225.193372 197.502733 
L 226.692839 198.658382 
L 228.122538 199.184157 
L 229.488673 198.77836 
L 230.796656 200.871014 
L 232.051238 200.975876 
L 242.39203 206.535435 
L 250.11567 211.903869 
L 256.282878 215.166834 
" style="fill:none;stroke:#a8a495;stroke-linecap:round;stroke-width:0.45;"/>
   </g>
   <g id="line2d_37">
    <path clip-path="url(#pfd590ad765)" d="M -1 173.555319 
L 90.520657 173.554736 
L 111.823132 173.883949 
L 133.125607 175.415524 
L 145.586756 176.572279 
L 154.428082 176.741156 
L 161.285947 177.572125 
L 166.889231 179.202192 
L 171.62674 182.414406 
L 175.730557 182.424853 
L 179.35038 183.775451 
L 182.588422 183.753625 
L 253.353713 209.833057 
L 274.656188 219.796437 
L 287.117337 225.564959 
L 302.816528 230.900291 
L 324.119003 235.868318 
L 345.421478 238.792906 
" style="fill:none;stroke:#a8a495;stroke-linecap:round;stroke-width:0.45;"/>
   </g>
   <g id="line2d_38">
    <path clip-path="url(#pfd590ad765)" d="M -1 136.214901 
L 90.520657 136.213239 
L 111.823132 138.653255 
L 133.125607 139.123667 
L 145.586756 139.596197 
L 154.428082 138.114672 
L 161.285947 143.710071 
L 166.889231 143.865669 
L 171.62674 147.288351 
L 175.730557 149.165889 
L 179.35038 147.984797 
L 182.588422 152.511134 
L 253.353713 191.501101 
L 287.117337 217.14728 
L 302.816528 225.351773 
L 324.119003 233.01649 
L 345.421478 237.246287 
" style="fill:none;stroke:#a8a495;stroke-linecap:round;stroke-width:0.45;"/>
   </g>
   <g id="line2d_39">
    <path clip-path="url(#pfd590ad765)" d="M -1 123.410532 
L 69.218182 123.405122 
L 90.520657 125.448116 
L 102.981806 123.781561 
L 111.823132 132.149397 
L 118.680997 129.620019 
L 124.284281 129.705207 
L 129.02179 131.233756 
L 133.125607 131.766857 
L 136.74543 132.546575 
L 139.983472 139.563402 
L 142.912638 133.098445 
L 145.586756 140.756373 
L 148.046707 134.294151 
L 150.324265 133.245612 
L 152.444621 135.86691 
L 154.428082 123.3424 
L 166.889231 138.692866 
L 175.730557 145.883069 
L 182.588422 144.101853 
L 188.191706 152.109357 
L 192.929215 148.656864 
L 197.033032 155.299048 
L 200.652855 160.524477 
L 203.890897 160.604976 
L 206.820063 162.359921 
L 209.494181 163.427475 
L 211.954132 168.089801 
L 214.23169 165.897507 
L 216.352046 171.884102 
L 218.335507 172.690672 
L 220.198682 174.061274 
L 221.95533 179.309779 
L 223.616977 195.696236 
L 225.193372 194.884332 
L 226.692839 197.25769 
L 228.122538 199.055233 
L 229.488673 199.912956 
L 230.796656 201.347904 
L 232.051238 202.138102 
L 242.39203 206.759819 
L 250.11567 211.981638 
L 256.282878 214.626317 
" style="fill:none;stroke:#a8a495;stroke-linecap:round;stroke-width:0.45;"/>
   </g>
   <g id="line2d_40">
    <path clip-path="url(#pfd590ad765)" d="M -1 140.116 
L 69.218182 140.114581 
L 90.520657 141.146597 
L 102.981806 141.161802 
L 111.823132 140.571649 
L 118.680997 141.457291 
L 124.284281 141.641119 
L 129.02179 142.522619 
L 133.125607 142.715342 
L 136.74543 143.691511 
L 139.983472 144.617889 
L 142.912638 145.63945 
L 145.586756 147.085366 
L 148.046707 147.904537 
L 150.324265 148.938354 
L 152.444621 149.994476 
L 154.428082 151.190403 
L 166.889231 158.113716 
L 175.730557 163.506107 
L 182.588422 176.497911 
L 188.191706 183.415559 
L 192.929215 185.597326 
L 197.033032 188.397649 
L 200.652855 191.00192 
L 203.890897 193.076835 
L 206.820063 195.099252 
L 209.494181 196.927217 
L 211.954132 198.691273 
L 214.23169 200.376388 
L 216.352046 201.881741 
L 218.335507 203.665878 
L 220.198682 203.914574 
L 221.95533 205.350501 
L 223.616977 206.513106 
L 225.193372 207.643686 
L 226.692839 208.555935 
L 228.122538 209.517533 
L 229.488673 210.45562 
L 230.796656 211.558574 
L 232.051238 212.447302 
L 242.39203 218.397859 
L 250.11567 222.569992 
L 256.282878 225.255386 
" style="fill:none;stroke:#a8a495;stroke-linecap:round;stroke-width:0.45;"/>
   </g>
   <g id="line2d_41">
    <path clip-path="url(#pfd590ad765)" d="M -1 149.771864 
L 90.520657 149.775833 
L 111.823132 148.350628 
L 133.125607 151.115268 
L 145.586756 154.681506 
L 154.428082 151.661996 
L 161.285947 153.676177 
L 166.889231 154.234385 
L 171.62674 155.725483 
L 175.730557 157.067129 
L 179.35038 157.641976 
L 182.588422 155.186397 
L 253.353713 200.231886 
L 274.656188 212.466054 
L 287.117337 218.804871 
L 302.816528 225.916958 
L 324.119003 233.004346 
L 345.421478 237.263402 
" style="fill:none;stroke:#a8a495;stroke-linecap:round;stroke-width:0.45;"/>
   </g>
   <g id="line2d_42">
    <path clip-path="url(#pfd590ad765)" d="M -1 133.884343 
L 90.520657 133.888783 
L 111.823132 133.105367 
L 133.125607 133.779607 
L 145.586756 135.080972 
L 154.428082 136.558535 
L 161.285947 137.168254 
L 166.889231 138.281464 
L 171.62674 138.61548 
L 175.730557 141.420927 
L 179.35038 141.622269 
L 182.588422 144.611127 
L 253.353713 191.536245 
L 274.656188 206.780164 
L 287.117337 214.397077 
L 302.816528 223.452309 
L 324.119003 231.765994 
L 345.421478 236.690179 
" style="fill:none;stroke:#a8a495;stroke-linecap:round;stroke-width:0.45;"/>
   </g>
   <g id="line2d_43">
    <path clip-path="url(#pfd590ad765)" d="M -1 136.544242 
L 90.520657 136.562377 
L 111.823132 146.735423 
L 133.125607 164.493843 
L 145.586756 178.411443 
L 154.428082 185.851645 
L 161.285947 191.686311 
L 166.889231 196.004496 
L 171.62674 199.802221 
L 175.730557 211.994007 
L 179.35038 217.042703 
L 182.588422 218.438226 
L 253.353713 238.137594 
L 274.656188 240.021815 
L 287.117337 240.670518 
L 302.816528 241.219665 
L 324.119003 241.653953 
L 345.421478 241.879656 
" style="fill:none;stroke:#a8a495;stroke-linecap:round;stroke-width:0.45;"/>
   </g>
   <g id="line2d_44">
    <path clip-path="url(#pfd590ad765)" d="M -1 146.660994 
L 90.520657 146.664043 
L 111.823132 142.725828 
L 133.125607 148.368314 
L 145.586756 148.771651 
L 154.428082 148.84053 
L 161.285947 153.87718 
L 166.889231 153.314744 
L 171.62674 155.285168 
L 175.730557 156.872564 
L 179.35038 157.40946 
L 182.588422 161.402185 
L 253.353713 212.264863 
L 274.656188 222.923899 
L 287.117337 227.603897 
L 302.816528 232.624782 
L 324.119003 236.568507 
L 345.421478 239.322743 
" style="fill:none;stroke:#a8a495;stroke-linecap:round;stroke-width:0.45;"/>
   </g>
   <g id="line2d_45">
    <path clip-path="url(#pfd590ad765)" d="M -1 176.676094 
L 90.520657 176.685987 
L 111.823132 180.058847 
L 133.125607 183.246508 
L 145.586756 188.754265 
L 154.428082 193.764641 
L 161.285947 198.104455 
L 166.889231 201.383988 
L 171.62674 204.254347 
L 175.730557 206.863131 
L 179.35038 209.002487 
L 182.588422 211.011282 
L 253.353713 236.799904 
L 274.656188 239.20757 
L 287.117337 240.049887 
L 302.816528 240.775041 
L 324.119003 241.3504 
L 345.421478 241.691645 
" style="fill:none;stroke:#a8a495;stroke-linecap:round;stroke-width:0.45;"/>
   </g>
   <g id="line2d_46">
    <path clip-path="url(#pfd590ad765)" d="M -1 142.072784 
L 90.520657 142.072486 
L 111.823132 144.837592 
L 133.125607 145.747783 
L 145.586756 148.19923 
L 154.428082 149.949921 
L 161.285947 151.05206 
L 166.889231 151.468178 
L 171.62674 158.214322 
L 175.730557 162.132764 
L 179.35038 158.332016 
L 182.588422 162.80899 
L 253.353713 205.71704 
L 274.656188 217.379341 
L 287.117337 225.8566 
L 302.816528 231.327963 
L 324.119003 236.157905 
L 345.421478 238.980318 
" style="fill:none;stroke:#a8a495;stroke-linecap:round;stroke-width:0.45;"/>
   </g>
   <g id="line2d_47">
    <path clip-path="url(#pfd590ad765)" d="M -1 126.239967 
L 69.218182 126.239772 
L 90.520657 129.11938 
L 102.981806 126.729952 
L 111.823132 123.727503 
L 118.680997 128.194933 
L 124.284281 132.443008 
L 129.02179 127.677435 
L 133.125607 132.190785 
L 136.74543 127.351581 
L 139.983472 128.566878 
L 142.912638 127.340194 
L 145.586756 128.927874 
L 148.046707 130.807585 
L 150.324265 132.328262 
L 152.444621 127.739142 
L 154.428082 135.466652 
L 166.889231 138.050483 
L 175.730557 136.768696 
L 182.588422 146.297258 
L 188.191706 146.743785 
L 192.929215 151.51077 
L 197.033032 157.79238 
L 200.652855 160.275977 
L 203.890897 160.19741 
L 206.820063 166.800882 
L 209.494181 168.001767 
L 211.954132 170.773392 
L 214.23169 175.366424 
L 216.352046 174.220469 
L 218.335507 176.858375 
L 220.198682 178.511923 
L 221.95533 178.675669 
L 223.616977 181.159035 
L 225.193372 185.532408 
L 226.692839 190.505 
L 228.122538 193.486066 
L 229.488673 198.764987 
L 230.796656 201.651968 
L 232.051238 201.792338 
L 242.39203 209.310177 
L 250.11567 214.351275 
L 256.282878 216.480111 
" style="fill:none;stroke:#a8a495;stroke-linecap:round;stroke-width:0.45;"/>
   </g>
   <g id="line2d_48">
    <path clip-path="url(#pfd590ad765)" d="M -1 127.031595 
L 90.520657 127.032573 
L 111.823132 127.13353 
L 133.125607 127.784789 
L 145.586756 128.266388 
L 154.428082 128.833307 
L 161.285947 129.283517 
L 166.889231 130.013072 
L 171.62674 132.791481 
L 175.730557 133.654036 
L 179.35038 134.10666 
L 182.588422 134.567867 
L 253.353713 166.890418 
L 274.656188 185.683788 
L 287.117337 196.971226 
L 302.816528 209.88106 
L 324.119003 223.311734 
" style="fill:none;stroke:#a8a495;stroke-linecap:round;stroke-width:0.45;"/>
   </g>
   <g id="line2d_49">
    <path clip-path="url(#pfd590ad765)" d="M -1 112.632328 
L 90.520657 112.632949 
L 111.823132 112.180699 
L 133.125607 112.292757 
L 145.586756 112.968509 
L 154.428082 113.123261 
L 161.285947 113.498841 
L 166.889231 113.736075 
L 171.62674 114.563549 
L 175.730557 114.83253 
L 179.35038 115.14391 
L 182.588422 115.544955 
L 253.353713 145.85831 
L 274.656188 162.777278 
L 287.117337 174.414972 
L 302.816528 189.989369 
L 324.119003 209.262246 
L 345.421478 223.376524 
" style="fill:none;stroke:#a8a495;stroke-linecap:round;stroke-width:0.45;"/>
   </g>
   <g id="line2d_50">
    <path clip-path="url(#pfd590ad765)" d="M -1 145.359818 
L 69.218182 145.360826 
L 90.520657 176.898307 
L 102.981806 163.913855 
L 111.823132 164.879564 
L 118.680997 157.771483 
L 124.284281 177.802939 
L 129.02179 184.68244 
L 133.125607 172.719272 
L 136.74543 178.5678 
L 139.983472 178.910718 
L 142.912638 180.776633 
L 145.586756 178.697905 
L 148.046707 181.127027 
L 152.444621 174.940915 
L 154.428082 160.356399 
L 166.889231 192.690219 
L 175.730557 197.655742 
L 182.588422 203.356221 
L 188.191706 192.635871 
L 192.929215 200.643562 
L 197.033032 202.402055 
L 200.652855 203.550913 
L 203.890897 214.022437 
L 206.820063 209.667565 
L 209.494181 200.497924 
L 211.954132 211.729096 
L 214.23169 217.531863 
L 216.352046 217.430421 
L 218.335507 213.697111 
L 220.198682 213.431509 
L 221.95533 219.189795 
L 223.616977 222.900274 
L 225.193372 220.733222 
L 226.692839 217.311939 
L 228.122538 216.303005 
L 229.488673 223.885605 
L 230.796656 217.623759 
L 232.051238 222.828228 
L 242.39203 227.219706 
L 250.11567 228.635116 
L 256.282878 230.521856 
" style="fill:none;stroke:#a8a495;stroke-linecap:round;stroke-width:0.45;"/>
   </g>
   <g id="line2d_51">
    <path clip-path="url(#pfd590ad765)" d="M -1 145.367144 
L 90.520657 145.375141 
L 111.823132 145.681006 
L 145.586756 152.893998 
L 154.428082 155.330335 
L 161.285947 155.757892 
L 166.889231 158.482528 
L 171.62674 160.114624 
L 175.730557 162.354587 
L 179.35038 163.912964 
L 182.588422 165.995923 
L 253.353713 224.792067 
L 274.656188 231.01958 
L 287.117337 234.120314 
L 302.816528 236.625007 
L 324.119003 239.211184 
L 345.421478 240.568385 
" style="fill:none;stroke:#a8a495;stroke-linecap:round;stroke-width:0.45;"/>
   </g>
   <g id="line2d_52">
    <path clip-path="url(#pfd590ad765)" d="M -1 125.0657 
L 69.218182 125.06751 
L 90.520657 131.537959 
L 102.981806 127.896686 
L 111.823132 129.767667 
L 118.680997 128.973381 
L 124.284281 125.274229 
L 129.02179 128.330162 
L 133.125607 129.045472 
L 136.74543 130.605235 
L 139.983472 130.391083 
L 142.912638 129.099795 
L 145.586756 133.450633 
L 148.046707 130.951555 
L 150.324265 130.302301 
L 152.444621 135.73344 
L 154.428082 134.367692 
L 166.889231 138.641203 
L 175.730557 143.620933 
L 182.588422 155.930319 
L 188.191706 158.79548 
L 192.929215 161.206447 
L 197.033032 166.123564 
L 200.652855 165.941638 
L 203.890897 170.062344 
L 206.820063 176.59909 
L 209.494181 170.137644 
L 211.954132 169.740993 
L 214.23169 177.682491 
L 216.352046 177.658519 
L 218.335507 178.273697 
L 220.198682 179.363463 
L 221.95533 182.470895 
L 223.616977 181.968584 
L 225.193372 183.155766 
L 226.692839 188.618656 
L 228.122538 186.711688 
L 229.488673 187.13912 
L 230.796656 187.790876 
L 232.051238 190.184713 
L 242.39203 197.977592 
L 250.11567 203.584054 
L 256.282878 209.22733 
" style="fill:none;stroke:#a8a495;stroke-linecap:round;stroke-width:0.45;"/>
   </g>
   <g id="line2d_53">
    <path clip-path="url(#pfd590ad765)" d="M -1 152.417882 
L 90.520657 152.42775 
L 111.823132 171.640994 
L 133.125607 181.226488 
L 145.586756 187.021281 
L 154.428082 193.641373 
L 161.285947 198.003679 
L 166.889231 201.846889 
L 171.62674 205.187045 
L 175.730557 208.836958 
L 179.35038 210.764614 
L 182.588422 212.611013 
L 253.353713 238.217911 
L 274.656188 240.085503 
L 287.117337 240.738097 
L 302.816528 241.211384 
L 324.119003 241.658351 
L 345.421478 241.875089 
" style="fill:none;stroke:#a8a495;stroke-linecap:round;stroke-width:0.45;"/>
   </g>
   <g id="line2d_54">
    <path clip-path="url(#pfd590ad765)" d="M -1 147.584403 
L 90.520657 147.587188 
L 111.823132 148.137014 
L 133.125607 145.131781 
L 145.586756 146.411871 
L 154.428082 148.624675 
L 161.285947 148.089575 
L 166.889231 150.235053 
L 171.62674 146.952083 
L 175.730557 154.026579 
L 179.35038 159.344488 
L 182.588422 157.22106 
L 253.353713 197.193139 
L 274.656188 213.997927 
L 287.117337 219.020312 
L 302.816528 226.872816 
L 324.119003 234.111647 
L 345.421478 237.904015 
" style="fill:none;stroke:#a8a495;stroke-linecap:round;stroke-width:0.45;"/>
   </g>
   <g id="line2d_55">
    <path clip-path="url(#pfd590ad765)" d="M -1 123.105905 
L 111.823132 123.106222 
L 133.125607 124.246985 
L 145.586756 124.835925 
L 154.428082 125.424353 
L 161.285947 125.796241 
L 166.889231 126.687684 
L 171.62674 127.417336 
L 175.730557 130.406785 
L 179.35038 131.061419 
L 182.588422 131.896499 
L 253.353713 165.525064 
L 287.117337 196.541279 
L 302.816528 209.730294 
L 324.119003 223.260587 
L 345.421478 231.809598 
" style="fill:none;stroke:#a8a495;stroke-linecap:round;stroke-width:0.45;"/>
   </g>
   <g id="line2d_56">
    <path clip-path="url(#pfd590ad765)" d="M -1 148.578926 
L 90.520657 148.581339 
L 111.823132 142.931949 
L 133.125607 146.246306 
L 145.586756 149.822157 
L 154.428082 152.392869 
L 161.285947 153.888758 
L 166.889231 153.185518 
L 171.62674 151.773258 
L 175.730557 154.440467 
L 179.35038 151.026219 
L 182.588422 156.943237 
L 253.353713 203.35648 
L 302.816528 229.275721 
L 324.119003 234.974418 
L 345.421478 238.237922 
" style="fill:none;stroke:#a8a495;stroke-linecap:round;stroke-width:0.45;"/>
   </g>
   <g id="line2d_57">
    <path clip-path="url(#pfd590ad765)" d="M -1 189.6498 
L 90.520657 189.649888 
L 111.823132 189.741408 
L 133.125607 190.093866 
L 145.586756 189.377029 
L 154.428082 190.790559 
L 161.285947 190.983235 
L 166.889231 191.531036 
L 171.62674 191.30819 
L 175.730557 191.917072 
L 179.35038 192.422369 
L 182.588422 191.437691 
L 253.353713 215.956085 
L 274.656188 223.314604 
L 287.117337 227.116923 
L 302.816528 231.724228 
L 324.119003 236.170828 
L 345.421478 238.842402 
" style="fill:none;stroke:#a8a495;stroke-linecap:round;stroke-width:0.45;"/>
   </g>
   <g id="line2d_58">
    <path clip-path="url(#pfd590ad765)" d="M -1 139.857445 
L 90.520657 139.86621 
L 111.823132 144.504914 
L 133.125607 146.099154 
L 145.586756 150.75253 
L 154.428082 152.204843 
L 161.285947 156.158003 
L 166.889231 161.456053 
L 171.62674 168.22762 
L 175.730557 169.27304 
L 179.35038 173.756755 
L 182.588422 174.050617 
L 253.353713 218.492297 
L 274.656188 228.4453 
L 287.117337 232.191015 
L 302.816528 235.698922 
L 324.119003 238.750381 
L 345.421478 240.284339 
" style="fill:none;stroke:#a8a495;stroke-linecap:round;stroke-width:0.45;"/>
   </g>
   <g id="line2d_59">
    <path clip-path="url(#pfd590ad765)" d="M -1 131.477889 
L 90.520657 131.476186 
L 111.823132 134.561088 
L 133.125607 140.261025 
L 145.586756 139.128158 
L 154.428082 142.552808 
L 161.285947 144.342048 
L 166.889231 148.093935 
L 171.62674 149.426558 
L 175.730557 156.401514 
L 179.35038 160.248014 
L 182.588422 162.163873 
L 253.353713 210.965185 
L 274.656188 223.4969 
L 287.117337 228.726443 
L 302.816528 233.588926 
L 324.119003 237.524109 
L 345.421478 239.731817 
" style="fill:none;stroke:#a8a495;stroke-linecap:round;stroke-width:0.45;"/>
   </g>
   <g id="line2d_60">
    <path clip-path="url(#pfd590ad765)" d="M 90.520657 51.752426 
L 111.823132 48.277182 
L 124.284281 47.972692 
L 133.125607 48.905682 
L 139.983472 49.856715 
L 145.586756 77.207113 
L 150.324265 50.864346 
L 154.428082 50.720622 
L 158.047905 58.456673 
L 161.285947 65.408881 
L 189.446287 126.071952 
L 210.748762 139.425086 
L 223.209912 161.202755 
L 232.051238 174.620194 
L 253.353713 201.665432 
L 265.814862 213.124366 
L 274.656188 219.754474 
L 281.514053 223.603398 
L 302.816528 234.070407 
L 324.119003 237.811882 
L 345.421478 239.832305 
L 352.279343 240.239911 
L 373.581818 241.103282 
" style="fill:none;stroke:#a8a495;stroke-linecap:round;stroke-width:0.45;"/>
   </g>
   <g id="line2d_61">
    <path clip-path="url(#pfd590ad765)" d="M -1 108.072532 
L 90.520657 108.074007 
L 111.823132 111.197947 
L 124.284281 111.281865 
L 133.125607 113.335585 
L 139.983472 113.074874 
L 145.586756 117.905363 
L 150.324265 115.687981 
L 154.428082 109.936495 
L 158.047905 111.92554 
L 161.285947 113.123004 
L 189.446287 164.203543 
L 210.748762 194.290458 
L 223.209912 211.640517 
L 232.051238 221.147576 
L 253.353713 233.527632 
L 265.814862 236.538105 
L 274.656188 237.820918 
L 281.514053 238.589683 
L 302.816528 240.246373 
L 324.119003 241.214834 
L 345.421478 241.623817 
L 352.279343 241.713787 
L 373.581818 241.900855 
" style="fill:none;stroke:#a8a495;stroke-linecap:round;stroke-width:0.45;"/>
   </g>
   <g id="line2d_62">
    <path clip-path="url(#pfd590ad765)" d="M -1 111.080415 
L 90.520657 111.083116 
L 111.823132 108.788471 
L 124.284281 110.35399 
L 133.125607 108.52663 
L 139.983472 111.566109 
L 145.586756 110.860249 
L 150.324265 111.084328 
L 154.428082 115.260228 
L 158.047905 112.003423 
L 161.285947 112.386826 
L 189.446287 132.098883 
L 210.748762 137.013804 
L 223.209912 148.009126 
L 232.051238 155.225725 
L 253.353713 177.294085 
L 265.814862 189.03064 
L 274.656188 197.794382 
L 281.514053 202.99428 
L 302.816528 235.299978 
L 324.119003 237.99771 
L 345.421478 239.463741 
L 352.279343 239.881678 
L 373.581818 240.992433 
" style="fill:none;stroke:#a8a495;stroke-linecap:round;stroke-width:0.45;"/>
   </g>
   <g id="line2d_63">
    <path clip-path="url(#pfd590ad765)" d="M -1 108.486372 
L 90.520657 108.489097 
L 111.823132 110.671418 
L 124.284281 112.452978 
L 133.125607 112.076025 
L 139.983472 113.039141 
L 145.586756 122.405734 
L 150.324265 117.60222 
L 154.428082 116.989235 
L 158.047905 116.418545 
L 161.285947 117.057257 
L 189.446287 134.235805 
L 210.748762 153.223999 
L 223.209912 165.332773 
L 232.051238 172.10546 
L 253.353713 195.068188 
L 265.814862 205.977794 
L 274.656188 212.402481 
L 281.514053 217.308006 
L 302.816528 241.741263 
L 324.119003 241.578087 
L 345.421478 241.756165 
L 352.279343 241.761664 
L 373.581818 241.791264 
" style="fill:none;stroke:#a8a495;stroke-linecap:round;stroke-width:0.45;"/>
   </g>
   <g id="line2d_64">
    <path clip-path="url(#pfd590ad765)" d="M -1 91.257669 
L 90.520657 91.257977 
L 111.823132 97.669774 
L 124.284281 93.054944 
L 133.125607 93.389385 
L 139.983472 90.55917 
L 145.586756 113.927161 
L 150.324265 91.058707 
L 154.428082 95.411948 
L 158.047905 96.914768 
L 161.285947 97.573099 
L 189.446287 163.421517 
L 210.748762 175.418526 
L 223.209912 197.557695 
L 232.051238 209.806753 
L 253.353713 227.351618 
L 265.814862 232.215021 
L 274.656188 234.531256 
L 281.514053 235.990409 
L 302.816528 239.09188 
L 324.119003 240.535718 
L 345.421478 241.270914 
L 352.279343 241.419244 
L 373.581818 241.738169 
" style="fill:none;stroke:#a8a495;stroke-linecap:round;stroke-width:0.45;"/>
   </g>
   <g id="line2d_65">
    <path clip-path="url(#pfd590ad765)" d="M -1 159.528211 
L 90.520657 159.531069 
L 111.823132 159.312163 
L 124.284281 158.335993 
L 133.125607 160.742705 
L 139.983472 158.209165 
L 145.586756 158.617267 
L 150.324265 160.684822 
L 154.428082 162.638289 
L 158.047905 163.904919 
L 161.285947 162.259357 
L 189.446287 168.660944 
L 210.748762 174.936384 
L 223.209912 178.702213 
L 232.051238 182.022228 
L 253.353713 193.176792 
L 265.814862 199.95062 
L 274.656188 203.61685 
L 281.514053 209.795414 
L 302.816528 236.294317 
L 324.119003 238.294607 
L 345.421478 239.642447 
L 352.279343 239.82916 
L 373.581818 240.906132 
" style="fill:none;stroke:#a8a495;stroke-linecap:round;stroke-width:0.45;"/>
   </g>
   <g id="line2d_66">
    <path clip-path="url(#pfd590ad765)" d="M 90.520657 168.447778 
L 111.823132 168.247052 
L 124.284281 168.059536 
L 133.125607 168.445747 
L 139.983472 168.348049 
L 145.586756 169.198045 
L 150.324265 168.914113 
L 154.428082 171.488608 
L 158.047905 172.251877 
L 161.285947 173.177443 
L 189.446287 176.816392 
L 210.748762 185.150539 
L 223.209912 190.807521 
L 232.051238 191.733538 
L 253.353713 206.76243 
L 265.814862 214.020455 
L 274.656188 217.587853 
L 281.514053 221.282817 
L 373.581818 242.116364 
" style="fill:none;stroke:#a8a495;stroke-linecap:round;stroke-width:0.45;"/>
   </g>
   <g id="line2d_67">
    <path clip-path="url(#pfd590ad765)" d="M -1 52.872826 
L 90.520657 52.859161 
L 111.823132 54.024911 
L 124.284281 52.16993 
L 133.125607 52.416146 
L 139.983472 51.651882 
L 145.586756 82.630097 
L 150.324265 55.448624 
L 154.428082 52.235354 
L 158.047905 55.549535 
L 161.285947 55.699888 
L 189.446287 104.427394 
L 210.748762 130.130566 
L 223.209912 151.588995 
L 232.051238 165.010318 
L 253.353713 194.640681 
L 265.814862 207.142295 
L 274.656188 215.052581 
L 281.514053 219.801004 
L 302.816528 235.150094 
L 324.119003 238.437564 
L 345.421478 240.076751 
L 352.279343 240.410509 
L 373.581818 241.17223 
" style="fill:none;stroke:#a8a495;stroke-linecap:round;stroke-width:0.45;"/>
   </g>
   <g id="line2d_68"/>
   <g id="line2d_69"/>
   <g id="line2d_70"/>
   <g id="line2d_71"/>
   <g id="line2d_72"/>
   <g id="line2d_73"/>
   <g id="line2d_74"/>
   <g id="line2d_75"/>
   <g id="line2d_76"/>
   <g id="line2d_77"/>
   <g id="line2d_78"/>
   <g id="line2d_79"/>
   <g id="line2d_80"/>
   <g id="line2d_81"/>
   <g id="line2d_82"/>
   <g id="line2d_83"/>
   <g id="line2d_84"/>
   <g id="line2d_85"/>
   <g id="line2d_86"/>
   <g id="line2d_87"/>
   <g id="line2d_88"/>
   <g id="line2d_89"/>
   <g id="line2d_90"/>
   <g id="line2d_91"/>
   <g id="line2d_92"/>
   <g id="line2d_93"/>
   <g id="line2d_94"/>
   <g id="line2d_95"/>
   <g id="line2d_96"/>
   <g id="line2d_97"/>
   <g id="line2d_98"/>
   <g id="line2d_99"/>
   <g id="line2d_100"/>
   <g id="line2d_101"/>
   <g id="line2d_102"/>
   <g id="line2d_103"/>
   <g id="line2d_104"/>
   <g id="line2d_105"/>
   <g id="line2d_106"/>
   <g id="line2d_107"/>
   <g id="line2d_108"/>
   <g id="line2d_109"/>
   <g id="line2d_110"/>
   <g id="line2d_111"/>
   <g id="line2d_112"/>
   <g id="line2d_113"/>
   <g id="line2d_114"/>
   <g id="line2d_115"/>
   <g id="line2d_116"/>
   <g id="line2d_117"/>
   <g id="line2d_118"/>
   <g id="line2d_119"/>
   <g id="line2d_120"/>
   <g id="line2d_121"/>
   <g id="line2d_122"/>
   <g id="line2d_123"/>
   <g id="line2d_124"/>
   <g id="line2d_125"/>
   <g id="line2d_126"/>
   <g id="patch_3">
    <path d="M 54 252 
L 54 34.56 
" style="fill:none;stroke:#cccccc;stroke-linecap:square;stroke-linejoin:miter;stroke-width:0.8;"/>
   </g>
   <g id="patch_4">
    <path d="M 388.8 252 
L 388.8 34.56 
" style="fill:none;stroke:#cccccc;stroke-linecap:square;stroke-linejoin:miter;stroke-width:0.8;"/>
   </g>
   <g id="patch_5">
    <path d="M 54 252 
L 388.8 252 
" style="fill:none;stroke:#cccccc;stroke-linecap:square;stroke-linejoin:miter;stroke-width:0.8;"/>
   </g>
   <g id="patch_6">
    <path d="M 54 34.56 
L 388.8 34.56 
" style="fill:none;stroke:#cccccc;stroke-linecap:square;stroke-linejoin:miter;stroke-width:0.8;"/>
   </g>
  </g>
 </g>
 <defs>
  <clipPath id="pfd590ad765">
   <rect height="217.44" width="334.8" x="54" y="34.56"/>
  </clipPath>
 </defs>
</svg>
