<?xml version="1.0" encoding="utf-8" standalone="no"?>
<!DOCTYPE svg PUBLIC "-//W3C//DTD SVG 1.1//EN"
  "http://www.w3.org/Graphics/SVG/1.1/DTD/svg11.dtd">
<!-- Created with matplotlib (https://matplotlib.org/) -->
<svg height="288pt" version="1.1" viewBox="0 0 432 288" width="432pt" xmlns="http://www.w3.org/2000/svg" xmlns:xlink="http://www.w3.org/1999/xlink">
 <defs>
  <style type="text/css">
*{stroke-linecap:butt;stroke-linejoin:round;}
  </style>
 </defs>
 <g id="figure_1">
  <g id="patch_1">
   <path d="M 0 288 
L 432 288 
L 432 0 
L 0 0 
z
" style="fill:#ffffff;"/>
  </g>
  <g id="axes_1">
   <g id="patch_2">
    <path d="M 54 252 
L 388.8 252 
L 388.8 34.56 
L 54 34.56 
z
" style="fill:#ffffff;"/>
   </g>
   <g id="matplotlib.axis_1">
    <g id="xtick_1">
     <g id="line2d_1">
      <path clip-path="url(#pbf49c329da)" d="M 92.123828 252 
L 92.123828 34.56 
" style="fill:none;stroke:#cccccc;stroke-linecap:round;stroke-width:0.8;"/>
     </g>
     <g id="text_1">
      <!-- $\mathdefault{10^{0}}$ -->
      <defs>
       <path d="M 12.40625 8.296875 
L 28.515625 8.296875 
L 28.515625 63.921875 
L 10.984375 60.40625 
L 10.984375 69.390625 
L 28.421875 72.90625 
L 38.28125 72.90625 
L 38.28125 8.296875 
L 54.390625 8.296875 
L 54.390625 0 
L 12.40625 0 
z
" id="DejaVuSans-49"/>
       <path d="M 31.78125 66.40625 
Q 24.171875 66.40625 20.328125 58.90625 
Q 16.5 51.421875 16.5 36.375 
Q 16.5 21.390625 20.328125 13.890625 
Q 24.171875 6.390625 31.78125 6.390625 
Q 39.453125 6.390625 43.28125 13.890625 
Q 47.125 21.390625 47.125 36.375 
Q 47.125 51.421875 43.28125 58.90625 
Q 39.453125 66.40625 31.78125 66.40625 
z
M 31.78125 74.21875 
Q 44.046875 74.21875 50.515625 64.515625 
Q 56.984375 54.828125 56.984375 36.375 
Q 56.984375 17.96875 50.515625 8.265625 
Q 44.046875 -1.421875 31.78125 -1.421875 
Q 19.53125 -1.421875 13.0625 8.265625 
Q 6.59375 17.96875 6.59375 36.375 
Q 6.59375 54.828125 13.0625 64.515625 
Q 19.53125 74.21875 31.78125 74.21875 
z
" id="DejaVuSans-48"/>
      </defs>
      <g style="fill:#262626;" transform="translate(83.323828 266.598437)scale(0.1 -0.1)">
       <use transform="translate(0 0.765625)" xlink:href="#DejaVuSans-49"/>
       <use transform="translate(63.623047 0.765625)" xlink:href="#DejaVuSans-48"/>
       <use transform="translate(128.203125 39.046875)scale(0.7)" xlink:href="#DejaVuSans-48"/>
      </g>
     </g>
    </g>
    <g id="xtick_2">
     <g id="line2d_2">
      <path clip-path="url(#pbf49c329da)" d="M 168.214737 252 
L 168.214737 34.56 
" style="fill:none;stroke:#cccccc;stroke-linecap:round;stroke-width:0.8;"/>
     </g>
     <g id="text_2">
      <!-- $\mathdefault{10^{1}}$ -->
      <g style="fill:#262626;" transform="translate(159.414737 266.598437)scale(0.1 -0.1)">
       <use transform="translate(0 0.684375)" xlink:href="#DejaVuSans-49"/>
       <use transform="translate(63.623047 0.684375)" xlink:href="#DejaVuSans-48"/>
       <use transform="translate(128.203125 38.965625)scale(0.7)" xlink:href="#DejaVuSans-49"/>
      </g>
     </g>
    </g>
    <g id="xtick_3">
     <g id="line2d_3">
      <path clip-path="url(#pbf49c329da)" d="M 244.305646 252 
L 244.305646 34.56 
" style="fill:none;stroke:#cccccc;stroke-linecap:round;stroke-width:0.8;"/>
     </g>
     <g id="text_3">
      <!-- $\mathdefault{10^{2}}$ -->
      <defs>
       <path d="M 19.1875 8.296875 
L 53.609375 8.296875 
L 53.609375 0 
L 7.328125 0 
L 7.328125 8.296875 
Q 12.9375 14.109375 22.625 23.890625 
Q 32.328125 33.6875 34.8125 36.53125 
Q 39.546875 41.84375 41.421875 45.53125 
Q 43.3125 49.21875 43.3125 52.78125 
Q 43.3125 58.59375 39.234375 62.25 
Q 35.15625 65.921875 28.609375 65.921875 
Q 23.96875 65.921875 18.8125 64.3125 
Q 13.671875 62.703125 7.8125 59.421875 
L 7.8125 69.390625 
Q 13.765625 71.78125 18.9375 73 
Q 24.125 74.21875 28.421875 74.21875 
Q 39.75 74.21875 46.484375 68.546875 
Q 53.21875 62.890625 53.21875 53.421875 
Q 53.21875 48.921875 51.53125 44.890625 
Q 49.859375 40.875 45.40625 35.40625 
Q 44.1875 33.984375 37.640625 27.21875 
Q 31.109375 20.453125 19.1875 8.296875 
z
" id="DejaVuSans-50"/>
      </defs>
      <g style="fill:#262626;" transform="translate(235.505646 266.598437)scale(0.1 -0.1)">
       <use transform="translate(0 0.765625)" xlink:href="#DejaVuSans-49"/>
       <use transform="translate(63.623047 0.765625)" xlink:href="#DejaVuSans-48"/>
       <use transform="translate(128.203125 39.046875)scale(0.7)" xlink:href="#DejaVuSans-50"/>
      </g>
     </g>
    </g>
    <g id="xtick_4">
     <g id="line2d_4">
      <path clip-path="url(#pbf49c329da)" d="M 320.396555 252 
L 320.396555 34.56 
" style="fill:none;stroke:#cccccc;stroke-linecap:round;stroke-width:0.8;"/>
     </g>
     <g id="text_4">
      <!-- $\mathdefault{10^{3}}$ -->
      <defs>
       <path d="M 40.578125 39.3125 
Q 47.65625 37.796875 51.625 33 
Q 55.609375 28.21875 55.609375 21.1875 
Q 55.609375 10.40625 48.1875 4.484375 
Q 40.765625 -1.421875 27.09375 -1.421875 
Q 22.515625 -1.421875 17.65625 -0.515625 
Q 12.796875 0.390625 7.625 2.203125 
L 7.625 11.71875 
Q 11.71875 9.328125 16.59375 8.109375 
Q 21.484375 6.890625 26.8125 6.890625 
Q 36.078125 6.890625 40.9375 10.546875 
Q 45.796875 14.203125 45.796875 21.1875 
Q 45.796875 27.640625 41.28125 31.265625 
Q 36.765625 34.90625 28.71875 34.90625 
L 20.21875 34.90625 
L 20.21875 43.015625 
L 29.109375 43.015625 
Q 36.375 43.015625 40.234375 45.921875 
Q 44.09375 48.828125 44.09375 54.296875 
Q 44.09375 59.90625 40.109375 62.90625 
Q 36.140625 65.921875 28.71875 65.921875 
Q 24.65625 65.921875 20.015625 65.03125 
Q 15.375 64.15625 9.8125 62.3125 
L 9.8125 71.09375 
Q 15.4375 72.65625 20.34375 73.4375 
Q 25.25 74.21875 29.59375 74.21875 
Q 40.828125 74.21875 47.359375 69.109375 
Q 53.90625 64.015625 53.90625 55.328125 
Q 53.90625 49.265625 50.4375 45.09375 
Q 46.96875 40.921875 40.578125 39.3125 
z
" id="DejaVuSans-51"/>
      </defs>
      <g style="fill:#262626;" transform="translate(311.596555 266.598437)scale(0.1 -0.1)">
       <use transform="translate(0 0.765625)" xlink:href="#DejaVuSans-49"/>
       <use transform="translate(63.623047 0.765625)" xlink:href="#DejaVuSans-48"/>
       <use transform="translate(128.203125 39.046875)scale(0.7)" xlink:href="#DejaVuSans-51"/>
      </g>
     </g>
    </g>
    <g id="xtick_5"/>
    <g id="xtick_6"/>
    <g id="xtick_7"/>
    <g id="xtick_8"/>
    <g id="xtick_9"/>
    <g id="xtick_10"/>
    <g id="xtick_11"/>
    <g id="xtick_12"/>
    <g id="xtick_13"/>
    <g id="xtick_14"/>
    <g id="xtick_15"/>
    <g id="xtick_16"/>
    <g id="xtick_17"/>
    <g id="xtick_18"/>
    <g id="xtick_19"/>
    <g id="xtick_20"/>
    <g id="xtick_21"/>
    <g id="xtick_22"/>
    <g id="xtick_23"/>
    <g id="xtick_24"/>
    <g id="xtick_25"/>
    <g id="xtick_26"/>
    <g id="xtick_27"/>
    <g id="xtick_28"/>
    <g id="xtick_29"/>
    <g id="xtick_30"/>
    <g id="xtick_31"/>
    <g id="xtick_32"/>
    <g id="xtick_33"/>
    <g id="xtick_34"/>
    <g id="xtick_35"/>
    <g id="xtick_36"/>
    <g id="xtick_37"/>
    <g id="xtick_38"/>
    <g id="xtick_39"/>
    <g id="xtick_40"/>
    <g id="xtick_41"/>
    <g id="text_5">
     <!-- Throttle rate -->
     <defs>
      <path d="M -0.296875 72.90625 
L 61.375 72.90625 
L 61.375 64.59375 
L 35.5 64.59375 
L 35.5 0 
L 25.59375 0 
L 25.59375 64.59375 
L -0.296875 64.59375 
z
" id="DejaVuSans-84"/>
      <path d="M 54.890625 33.015625 
L 54.890625 0 
L 45.90625 0 
L 45.90625 32.71875 
Q 45.90625 40.484375 42.875 44.328125 
Q 39.84375 48.1875 33.796875 48.1875 
Q 26.515625 48.1875 22.3125 43.546875 
Q 18.109375 38.921875 18.109375 30.90625 
L 18.109375 0 
L 9.078125 0 
L 9.078125 75.984375 
L 18.109375 75.984375 
L 18.109375 46.1875 
Q 21.34375 51.125 25.703125 53.5625 
Q 30.078125 56 35.796875 56 
Q 45.21875 56 50.046875 50.171875 
Q 54.890625 44.34375 54.890625 33.015625 
z
" id="DejaVuSans-104"/>
      <path d="M 41.109375 46.296875 
Q 39.59375 47.171875 37.8125 47.578125 
Q 36.03125 48 33.890625 48 
Q 26.265625 48 22.1875 43.046875 
Q 18.109375 38.09375 18.109375 28.8125 
L 18.109375 0 
L 9.078125 0 
L 9.078125 54.6875 
L 18.109375 54.6875 
L 18.109375 46.1875 
Q 20.953125 51.171875 25.484375 53.578125 
Q 30.03125 56 36.53125 56 
Q 37.453125 56 38.578125 55.875 
Q 39.703125 55.765625 41.0625 55.515625 
z
" id="DejaVuSans-114"/>
      <path d="M 30.609375 48.390625 
Q 23.390625 48.390625 19.1875 42.75 
Q 14.984375 37.109375 14.984375 27.296875 
Q 14.984375 17.484375 19.15625 11.84375 
Q 23.34375 6.203125 30.609375 6.203125 
Q 37.796875 6.203125 41.984375 11.859375 
Q 46.1875 17.53125 46.1875 27.296875 
Q 46.1875 37.015625 41.984375 42.703125 
Q 37.796875 48.390625 30.609375 48.390625 
z
M 30.609375 56 
Q 42.328125 56 49.015625 48.375 
Q 55.71875 40.765625 55.71875 27.296875 
Q 55.71875 13.875 49.015625 6.21875 
Q 42.328125 -1.421875 30.609375 -1.421875 
Q 18.84375 -1.421875 12.171875 6.21875 
Q 5.515625 13.875 5.515625 27.296875 
Q 5.515625 40.765625 12.171875 48.375 
Q 18.84375 56 30.609375 56 
z
" id="DejaVuSans-111"/>
      <path d="M 18.3125 70.21875 
L 18.3125 54.6875 
L 36.8125 54.6875 
L 36.8125 47.703125 
L 18.3125 47.703125 
L 18.3125 18.015625 
Q 18.3125 11.328125 20.140625 9.421875 
Q 21.96875 7.515625 27.59375 7.515625 
L 36.8125 7.515625 
L 36.8125 0 
L 27.59375 0 
Q 17.1875 0 13.234375 3.875 
Q 9.28125 7.765625 9.28125 18.015625 
L 9.28125 47.703125 
L 2.6875 47.703125 
L 2.6875 54.6875 
L 9.28125 54.6875 
L 9.28125 70.21875 
z
" id="DejaVuSans-116"/>
      <path d="M 9.421875 75.984375 
L 18.40625 75.984375 
L 18.40625 0 
L 9.421875 0 
z
" id="DejaVuSans-108"/>
      <path d="M 56.203125 29.59375 
L 56.203125 25.203125 
L 14.890625 25.203125 
Q 15.484375 15.921875 20.484375 11.0625 
Q 25.484375 6.203125 34.421875 6.203125 
Q 39.59375 6.203125 44.453125 7.46875 
Q 49.3125 8.734375 54.109375 11.28125 
L 54.109375 2.78125 
Q 49.265625 0.734375 44.1875 -0.34375 
Q 39.109375 -1.421875 33.890625 -1.421875 
Q 20.796875 -1.421875 13.15625 6.1875 
Q 5.515625 13.8125 5.515625 26.8125 
Q 5.515625 40.234375 12.765625 48.109375 
Q 20.015625 56 32.328125 56 
Q 43.359375 56 49.78125 48.890625 
Q 56.203125 41.796875 56.203125 29.59375 
z
M 47.21875 32.234375 
Q 47.125 39.59375 43.09375 43.984375 
Q 39.0625 48.390625 32.421875 48.390625 
Q 24.90625 48.390625 20.390625 44.140625 
Q 15.875 39.890625 15.1875 32.171875 
z
" id="DejaVuSans-101"/>
      <path id="DejaVuSans-32"/>
      <path d="M 34.28125 27.484375 
Q 23.390625 27.484375 19.1875 25 
Q 14.984375 22.515625 14.984375 16.5 
Q 14.984375 11.71875 18.140625 8.90625 
Q 21.296875 6.109375 26.703125 6.109375 
Q 34.1875 6.109375 38.703125 11.40625 
Q 43.21875 16.703125 43.21875 25.484375 
L 43.21875 27.484375 
z
M 52.203125 31.203125 
L 52.203125 0 
L 43.21875 0 
L 43.21875 8.296875 
Q 40.140625 3.328125 35.546875 0.953125 
Q 30.953125 -1.421875 24.3125 -1.421875 
Q 15.921875 -1.421875 10.953125 3.296875 
Q 6 8.015625 6 15.921875 
Q 6 25.140625 12.171875 29.828125 
Q 18.359375 34.515625 30.609375 34.515625 
L 43.21875 34.515625 
L 43.21875 35.40625 
Q 43.21875 41.609375 39.140625 45 
Q 35.0625 48.390625 27.6875 48.390625 
Q 23 48.390625 18.546875 47.265625 
Q 14.109375 46.140625 10.015625 43.890625 
L 10.015625 52.203125 
Q 14.9375 54.109375 19.578125 55.046875 
Q 24.21875 56 28.609375 56 
Q 40.484375 56 46.34375 49.84375 
Q 52.203125 43.703125 52.203125 31.203125 
z
" id="DejaVuSans-97"/>
     </defs>
     <g style="fill:#262626;" transform="translate(189.932813 280.276563)scale(0.1 -0.1)">
      <use xlink:href="#DejaVuSans-84"/>
      <use x="61.083984" xlink:href="#DejaVuSans-104"/>
      <use x="124.462891" xlink:href="#DejaVuSans-114"/>
      <use x="165.544922" xlink:href="#DejaVuSans-111"/>
      <use x="226.726562" xlink:href="#DejaVuSans-116"/>
      <use x="265.935547" xlink:href="#DejaVuSans-116"/>
      <use x="305.144531" xlink:href="#DejaVuSans-108"/>
      <use x="332.927734" xlink:href="#DejaVuSans-101"/>
      <use x="394.451172" xlink:href="#DejaVuSans-32"/>
      <use x="426.238281" xlink:href="#DejaVuSans-114"/>
      <use x="467.351562" xlink:href="#DejaVuSans-97"/>
      <use x="528.630859" xlink:href="#DejaVuSans-116"/>
      <use x="567.839844" xlink:href="#DejaVuSans-101"/>
     </g>
    </g>
   </g>
   <g id="matplotlib.axis_2">
    <g id="ytick_1">
     <g id="line2d_5">
      <path clip-path="url(#pbf49c329da)" d="M 54 242.116364 
L 388.8 242.116364 
" style="fill:none;stroke:#cccccc;stroke-linecap:round;stroke-width:0.8;"/>
     </g>
     <g id="text_6">
      <!-- 0 -->
      <g style="fill:#262626;" transform="translate(40.6375 245.915582)scale(0.1 -0.1)">
       <use xlink:href="#DejaVuSans-48"/>
      </g>
     </g>
    </g>
    <g id="ytick_2">
     <g id="line2d_6">
      <path clip-path="url(#pbf49c329da)" d="M 54 217.591236 
L 388.8 217.591236 
" style="fill:none;stroke:#cccccc;stroke-linecap:round;stroke-width:0.8;"/>
     </g>
     <g id="text_7">
      <!-- 50 -->
      <defs>
       <path d="M 10.796875 72.90625 
L 49.515625 72.90625 
L 49.515625 64.59375 
L 19.828125 64.59375 
L 19.828125 46.734375 
Q 21.96875 47.46875 24.109375 47.828125 
Q 26.265625 48.1875 28.421875 48.1875 
Q 40.625 48.1875 47.75 41.5 
Q 54.890625 34.8125 54.890625 23.390625 
Q 54.890625 11.625 47.5625 5.09375 
Q 40.234375 -1.421875 26.90625 -1.421875 
Q 22.3125 -1.421875 17.546875 -0.640625 
Q 12.796875 0.140625 7.71875 1.703125 
L 7.71875 11.625 
Q 12.109375 9.234375 16.796875 8.0625 
Q 21.484375 6.890625 26.703125 6.890625 
Q 35.15625 6.890625 40.078125 11.328125 
Q 45.015625 15.765625 45.015625 23.390625 
Q 45.015625 31 40.078125 35.4375 
Q 35.15625 39.890625 26.703125 39.890625 
Q 22.75 39.890625 18.8125 39.015625 
Q 14.890625 38.140625 10.796875 36.28125 
z
" id="DejaVuSans-53"/>
      </defs>
      <g style="fill:#262626;" transform="translate(34.275 221.390455)scale(0.1 -0.1)">
       <use xlink:href="#DejaVuSans-53"/>
       <use x="63.623047" xlink:href="#DejaVuSans-48"/>
      </g>
     </g>
    </g>
    <g id="ytick_3">
     <g id="line2d_7">
      <path clip-path="url(#pbf49c329da)" d="M 54 193.066109 
L 388.8 193.066109 
" style="fill:none;stroke:#cccccc;stroke-linecap:round;stroke-width:0.8;"/>
     </g>
     <g id="text_8">
      <!-- 100 -->
      <g style="fill:#262626;" transform="translate(27.9125 196.865327)scale(0.1 -0.1)">
       <use xlink:href="#DejaVuSans-49"/>
       <use x="63.623047" xlink:href="#DejaVuSans-48"/>
       <use x="127.246094" xlink:href="#DejaVuSans-48"/>
      </g>
     </g>
    </g>
    <g id="ytick_4">
     <g id="line2d_8">
      <path clip-path="url(#pbf49c329da)" d="M 54 168.540981 
L 388.8 168.540981 
" style="fill:none;stroke:#cccccc;stroke-linecap:round;stroke-width:0.8;"/>
     </g>
     <g id="text_9">
      <!-- 150 -->
      <g style="fill:#262626;" transform="translate(27.9125 172.3402)scale(0.1 -0.1)">
       <use xlink:href="#DejaVuSans-49"/>
       <use x="63.623047" xlink:href="#DejaVuSans-53"/>
       <use x="127.246094" xlink:href="#DejaVuSans-48"/>
      </g>
     </g>
    </g>
    <g id="ytick_5">
     <g id="line2d_9">
      <path clip-path="url(#pbf49c329da)" d="M 54 144.015854 
L 388.8 144.015854 
" style="fill:none;stroke:#cccccc;stroke-linecap:round;stroke-width:0.8;"/>
     </g>
     <g id="text_10">
      <!-- 200 -->
      <g style="fill:#262626;" transform="translate(27.9125 147.815072)scale(0.1 -0.1)">
       <use xlink:href="#DejaVuSans-50"/>
       <use x="63.623047" xlink:href="#DejaVuSans-48"/>
       <use x="127.246094" xlink:href="#DejaVuSans-48"/>
      </g>
     </g>
    </g>
    <g id="ytick_6">
     <g id="line2d_10">
      <path clip-path="url(#pbf49c329da)" d="M 54 119.490726 
L 388.8 119.490726 
" style="fill:none;stroke:#cccccc;stroke-linecap:round;stroke-width:0.8;"/>
     </g>
     <g id="text_11">
      <!-- 250 -->
      <g style="fill:#262626;" transform="translate(27.9125 123.289945)scale(0.1 -0.1)">
       <use xlink:href="#DejaVuSans-50"/>
       <use x="63.623047" xlink:href="#DejaVuSans-53"/>
       <use x="127.246094" xlink:href="#DejaVuSans-48"/>
      </g>
     </g>
    </g>
    <g id="ytick_7">
     <g id="line2d_11">
      <path clip-path="url(#pbf49c329da)" d="M 54 94.965598 
L 388.8 94.965598 
" style="fill:none;stroke:#cccccc;stroke-linecap:round;stroke-width:0.8;"/>
     </g>
     <g id="text_12">
      <!-- 300 -->
      <g style="fill:#262626;" transform="translate(27.9125 98.764817)scale(0.1 -0.1)">
       <use xlink:href="#DejaVuSans-51"/>
       <use x="63.623047" xlink:href="#DejaVuSans-48"/>
       <use x="127.246094" xlink:href="#DejaVuSans-48"/>
      </g>
     </g>
    </g>
    <g id="ytick_8">
     <g id="line2d_12">
      <path clip-path="url(#pbf49c329da)" d="M 54 70.440471 
L 388.8 70.440471 
" style="fill:none;stroke:#cccccc;stroke-linecap:round;stroke-width:0.8;"/>
     </g>
     <g id="text_13">
      <!-- 350 -->
      <g style="fill:#262626;" transform="translate(27.9125 74.23969)scale(0.1 -0.1)">
       <use xlink:href="#DejaVuSans-51"/>
       <use x="63.623047" xlink:href="#DejaVuSans-53"/>
       <use x="127.246094" xlink:href="#DejaVuSans-48"/>
      </g>
     </g>
    </g>
    <g id="ytick_9">
     <g id="line2d_13">
      <path clip-path="url(#pbf49c329da)" d="M 54 45.915343 
L 388.8 45.915343 
" style="fill:none;stroke:#cccccc;stroke-linecap:round;stroke-width:0.8;"/>
     </g>
     <g id="text_14">
      <!-- 400 -->
      <defs>
       <path d="M 37.796875 64.3125 
L 12.890625 25.390625 
L 37.796875 25.390625 
z
M 35.203125 72.90625 
L 47.609375 72.90625 
L 47.609375 25.390625 
L 58.015625 25.390625 
L 58.015625 17.1875 
L 47.609375 17.1875 
L 47.609375 0 
L 37.796875 0 
L 37.796875 17.1875 
L 4.890625 17.1875 
L 4.890625 26.703125 
z
" id="DejaVuSans-52"/>
      </defs>
      <g style="fill:#262626;" transform="translate(27.9125 49.714562)scale(0.1 -0.1)">
       <use xlink:href="#DejaVuSans-52"/>
       <use x="63.623047" xlink:href="#DejaVuSans-48"/>
       <use x="127.246094" xlink:href="#DejaVuSans-48"/>
      </g>
     </g>
    </g>
    <g id="text_15">
     <!-- Overhead(%) -->
     <defs>
      <path d="M 39.40625 66.21875 
Q 28.65625 66.21875 22.328125 58.203125 
Q 16.015625 50.203125 16.015625 36.375 
Q 16.015625 22.609375 22.328125 14.59375 
Q 28.65625 6.59375 39.40625 6.59375 
Q 50.140625 6.59375 56.421875 14.59375 
Q 62.703125 22.609375 62.703125 36.375 
Q 62.703125 50.203125 56.421875 58.203125 
Q 50.140625 66.21875 39.40625 66.21875 
z
M 39.40625 74.21875 
Q 54.734375 74.21875 63.90625 63.9375 
Q 73.09375 53.65625 73.09375 36.375 
Q 73.09375 19.140625 63.90625 8.859375 
Q 54.734375 -1.421875 39.40625 -1.421875 
Q 24.03125 -1.421875 14.8125 8.828125 
Q 5.609375 19.09375 5.609375 36.375 
Q 5.609375 53.65625 14.8125 63.9375 
Q 24.03125 74.21875 39.40625 74.21875 
z
" id="DejaVuSans-79"/>
      <path d="M 2.984375 54.6875 
L 12.5 54.6875 
L 29.59375 8.796875 
L 46.6875 54.6875 
L 56.203125 54.6875 
L 35.6875 0 
L 23.484375 0 
z
" id="DejaVuSans-118"/>
      <path d="M 45.40625 46.390625 
L 45.40625 75.984375 
L 54.390625 75.984375 
L 54.390625 0 
L 45.40625 0 
L 45.40625 8.203125 
Q 42.578125 3.328125 38.25 0.953125 
Q 33.9375 -1.421875 27.875 -1.421875 
Q 17.96875 -1.421875 11.734375 6.484375 
Q 5.515625 14.40625 5.515625 27.296875 
Q 5.515625 40.1875 11.734375 48.09375 
Q 17.96875 56 27.875 56 
Q 33.9375 56 38.25 53.625 
Q 42.578125 51.265625 45.40625 46.390625 
z
M 14.796875 27.296875 
Q 14.796875 17.390625 18.875 11.75 
Q 22.953125 6.109375 30.078125 6.109375 
Q 37.203125 6.109375 41.296875 11.75 
Q 45.40625 17.390625 45.40625 27.296875 
Q 45.40625 37.203125 41.296875 42.84375 
Q 37.203125 48.484375 30.078125 48.484375 
Q 22.953125 48.484375 18.875 42.84375 
Q 14.796875 37.203125 14.796875 27.296875 
z
" id="DejaVuSans-100"/>
      <path d="M 31 75.875 
Q 24.46875 64.65625 21.28125 53.65625 
Q 18.109375 42.671875 18.109375 31.390625 
Q 18.109375 20.125 21.3125 9.0625 
Q 24.515625 -2 31 -13.1875 
L 23.1875 -13.1875 
Q 15.875 -1.703125 12.234375 9.375 
Q 8.59375 20.453125 8.59375 31.390625 
Q 8.59375 42.28125 12.203125 53.3125 
Q 15.828125 64.359375 23.1875 75.875 
z
" id="DejaVuSans-40"/>
      <path d="M 72.703125 32.078125 
Q 68.453125 32.078125 66.03125 28.46875 
Q 63.625 24.859375 63.625 18.40625 
Q 63.625 12.0625 66.03125 8.421875 
Q 68.453125 4.78125 72.703125 4.78125 
Q 76.859375 4.78125 79.265625 8.421875 
Q 81.6875 12.0625 81.6875 18.40625 
Q 81.6875 24.8125 79.265625 28.4375 
Q 76.859375 32.078125 72.703125 32.078125 
z
M 72.703125 38.28125 
Q 80.421875 38.28125 84.953125 32.90625 
Q 89.5 27.546875 89.5 18.40625 
Q 89.5 9.28125 84.9375 3.921875 
Q 80.375 -1.421875 72.703125 -1.421875 
Q 64.890625 -1.421875 60.34375 3.921875 
Q 55.8125 9.28125 55.8125 18.40625 
Q 55.8125 27.59375 60.375 32.9375 
Q 64.9375 38.28125 72.703125 38.28125 
z
M 22.3125 68.015625 
Q 18.109375 68.015625 15.6875 64.375 
Q 13.28125 60.75 13.28125 54.390625 
Q 13.28125 47.953125 15.671875 44.328125 
Q 18.0625 40.71875 22.3125 40.71875 
Q 26.5625 40.71875 28.96875 44.328125 
Q 31.390625 47.953125 31.390625 54.390625 
Q 31.390625 60.6875 28.953125 64.34375 
Q 26.515625 68.015625 22.3125 68.015625 
z
M 66.40625 74.21875 
L 74.21875 74.21875 
L 28.609375 -1.421875 
L 20.796875 -1.421875 
z
M 22.3125 74.21875 
Q 30.03125 74.21875 34.609375 68.875 
Q 39.203125 63.53125 39.203125 54.390625 
Q 39.203125 45.171875 34.640625 39.84375 
Q 30.078125 34.515625 22.3125 34.515625 
Q 14.546875 34.515625 10.03125 39.859375 
Q 5.515625 45.21875 5.515625 54.390625 
Q 5.515625 63.484375 10.046875 68.84375 
Q 14.59375 74.21875 22.3125 74.21875 
z
" id="DejaVuSans-37"/>
      <path d="M 8.015625 75.875 
L 15.828125 75.875 
Q 23.140625 64.359375 26.78125 53.3125 
Q 30.421875 42.28125 30.421875 31.390625 
Q 30.421875 20.453125 26.78125 9.375 
Q 23.140625 -1.703125 15.828125 -13.1875 
L 8.015625 -13.1875 
Q 14.5 -2 17.703125 9.0625 
Q 20.90625 20.125 20.90625 31.390625 
Q 20.90625 42.671875 17.703125 53.65625 
Q 14.5 64.65625 8.015625 75.875 
z
" id="DejaVuSans-41"/>
     </defs>
     <g style="fill:#262626;" transform="translate(21.832812 176.4425)rotate(-90)scale(0.1 -0.1)">
      <use xlink:href="#DejaVuSans-79"/>
      <use x="78.710938" xlink:href="#DejaVuSans-118"/>
      <use x="137.890625" xlink:href="#DejaVuSans-101"/>
      <use x="199.414062" xlink:href="#DejaVuSans-114"/>
      <use x="240.511719" xlink:href="#DejaVuSans-104"/>
      <use x="303.890625" xlink:href="#DejaVuSans-101"/>
      <use x="365.414062" xlink:href="#DejaVuSans-97"/>
      <use x="426.693359" xlink:href="#DejaVuSans-100"/>
      <use x="490.169922" xlink:href="#DejaVuSans-40"/>
      <use x="529.183594" xlink:href="#DejaVuSans-37"/>
      <use x="624.203125" xlink:href="#DejaVuSans-41"/>
     </g>
    </g>
   </g>
   <g id="line2d_14">
    <path clip-path="url(#pbf49c329da)" d="M -1 130.83442 
L 92.123828 130.84302 
L 115.029474 127.953965 
L 128.428418 125.823676 
L 137.93512 130.588789 
L 145.309091 136.040966 
L 151.334064 138.921767 
L 156.428106 136.87477 
L 160.840766 141.335112 
L 164.733008 144.520039 
L 168.214737 143.988712 
L 191.120383 158.787858 
L 204.519327 168.580784 
L 214.026029 195.753239 
L 221.4 199.134671 
L 227.424973 204.819327 
L 232.519015 205.870273 
L 236.931675 208.87039 
L 240.823917 209.990493 
L 244.305646 213.582348 
L 267.211292 223.299933 
L 280.610236 227.96971 
L 290.116938 231.384218 
L 297.490909 232.897999 
L 303.515882 234.46226 
L 308.609924 235.36892 
L 313.022584 236.204245 
L 316.914826 236.76182 
L 320.396555 237.053142 
L 333.795499 238.717248 
L 343.302201 239.545831 
" style="fill:none;stroke:#a8a495;stroke-linecap:round;stroke-width:0.45;"/>
   </g>
   <g id="line2d_15">
    <path clip-path="url(#pbf49c329da)" d="M -1 132.15772 
L 92.123828 132.158467 
L 115.029474 132.694983 
L 128.428418 134.262131 
L 137.93512 135.524751 
L 145.309091 137.547673 
L 151.334064 139.753699 
L 156.428106 142.45826 
L 160.840766 146.158195 
L 164.733008 149.454517 
L 168.214737 152.88436 
L 191.120383 183.20212 
L 204.519327 200.043929 
L 214.026029 211.165263 
L 221.4 227.746603 
L 227.424973 231.893261 
L 232.519015 232.751156 
L 236.931675 233.797064 
L 240.823917 234.213804 
L 244.305646 234.855361 
L 267.211292 237.925616 
L 280.610236 239.065532 
L 290.116938 239.728686 
L 297.490909 240.1114 
L 303.515882 240.447034 
L 308.609924 240.60351 
L 313.022584 240.794847 
L 316.914826 240.913286 
L 320.396555 241.018188 
L 333.795499 241.322831 
L 343.302201 241.496414 
" style="fill:none;stroke:#a8a495;stroke-linecap:round;stroke-width:0.45;"/>
   </g>
   <g id="line2d_16">
    <path clip-path="url(#pbf49c329da)" d="M -1 136.963127 
L 92.123828 136.966885 
L 115.029474 141.83437 
L 128.428418 146.796602 
L 137.93512 151.470139 
L 145.309091 155.30536 
L 151.334064 158.540985 
L 156.428106 164.497794 
L 160.840766 171.043393 
L 164.733008 177.352901 
L 168.214737 181.149593 
L 191.120383 194.689739 
L 204.519327 203.285979 
L 214.026029 208.521879 
L 221.4 213.168372 
L 227.424973 216.044873 
L 232.519015 218.533257 
L 236.931675 220.568078 
L 240.823917 221.979733 
L 244.305646 223.48902 
L 267.211292 230.379145 
L 280.610236 233.017739 
L 290.116938 234.376815 
L 297.490909 235.232491 
L 303.515882 235.903386 
L 308.609924 236.353261 
L 313.022584 236.689935 
L 316.914826 236.95098 
L 320.396555 237.187319 
L 333.795499 237.78117 
L 343.302201 238.016982 
" style="fill:none;stroke:#a8a495;stroke-linecap:round;stroke-width:0.45;"/>
   </g>
   <g id="line2d_17">
    <path clip-path="url(#pbf49c329da)" d="M -1 122.384026 
L 92.123828 122.387279 
L 115.029474 124.674497 
L 128.428418 127.71973 
L 137.93512 132.099665 
L 145.309091 136.588598 
L 151.334064 141.36533 
L 156.428106 146.489747 
L 160.840766 151.741509 
L 164.733008 155.963763 
L 168.214737 160.760141 
L 191.120383 191.991948 
L 204.519327 205.327894 
L 214.026029 217.771543 
L 221.4 233.178536 
L 227.424973 234.597022 
L 232.519015 234.986042 
L 236.931675 235.912802 
L 240.823917 236.078156 
L 244.305646 236.568108 
L 267.211292 238.9198 
L 280.610236 239.732888 
L 290.116938 240.259967 
L 297.490909 240.539682 
L 303.515882 240.780885 
L 308.609924 240.9124 
L 313.022584 241.031321 
L 316.914826 241.138459 
L 320.396555 241.224518 
L 333.795499 241.460586 
L 343.302201 241.580349 
" style="fill:none;stroke:#a8a495;stroke-linecap:round;stroke-width:0.45;"/>
   </g>
   <g id="line2d_18">
    <path clip-path="url(#pbf49c329da)" d="M -1 125.495434 
L 92.123828 125.522023 
L 115.029474 128.945963 
L 128.428418 127.698742 
L 137.93512 130.964293 
L 145.309091 137.313147 
L 151.334064 135.955933 
L 156.428106 138.859042 
L 160.840766 142.290392 
L 164.733008 144.439927 
L 168.214737 143.053469 
L 191.120383 154.939511 
L 204.519327 169.84631 
L 214.026029 196.11158 
L 221.4 197.74442 
L 227.424973 201.000253 
L 232.519015 206.092938 
L 236.931675 208.180666 
L 240.823917 210.191469 
L 244.305646 211.791301 
L 267.211292 223.278619 
L 280.610236 228.307327 
L 290.116938 231.390186 
L 297.490909 232.994603 
L 303.515882 234.521977 
L 308.609924 235.424742 
L 313.022584 236.396039 
L 316.914826 236.842724 
L 320.396555 237.154562 
L 333.795499 238.851937 
L 343.302201 239.511449 
" style="fill:none;stroke:#a8a495;stroke-linecap:round;stroke-width:0.45;"/>
   </g>
   <g id="line2d_19">
    <path clip-path="url(#pbf49c329da)" d="M -1 128.247232 
L 92.123828 128.253013 
L 115.029474 135.751247 
L 128.428418 142.075732 
L 137.93512 147.293038 
L 145.309091 152.004646 
L 151.334064 156.295057 
L 156.428106 164.634279 
L 160.840766 172.268567 
L 164.733008 179.372625 
L 168.214737 181.912957 
L 191.120383 196.508129 
L 204.519327 205.260978 
L 214.026029 210.860827 
L 221.4 214.838282 
L 227.424973 218.320597 
L 232.519015 220.452582 
L 236.931675 222.41751 
L 240.823917 223.986514 
L 244.305646 225.117684 
L 267.211292 231.680674 
L 280.610236 234.053061 
L 290.116938 235.266318 
L 297.490909 236.047291 
L 303.515882 236.626799 
L 308.609924 237.079202 
L 313.022584 237.309014 
L 316.914826 237.527874 
L 320.396555 237.743832 
L 333.795499 238.257783 
L 343.302201 238.43984 
" style="fill:none;stroke:#a8a495;stroke-linecap:round;stroke-width:0.45;"/>
   </g>
   <g id="line2d_20">
    <path clip-path="url(#pbf49c329da)" d="M -1 140.245184 
L 69.218182 140.244968 
L 92.123828 143.060074 
L 115.029474 143.986723 
L 128.428418 146.482498 
L 137.93512 148.264845 
L 145.309091 149.386913 
L 151.334064 149.810556 
L 156.428106 156.678685 
L 160.840766 160.667981 
L 164.733008 156.798507 
L 168.214737 161.356435 
L 244.305646 205.04036 
L 267.211292 216.913542 
L 280.610236 225.544089 
L 297.490909 231.114387 
L 320.396555 236.031665 
L 343.302201 238.905114 
" style="fill:none;stroke:#a8a495;stroke-linecap:round;stroke-width:0.45;"/>
   </g>
   <g id="line2d_21">
    <path clip-path="url(#pbf49c329da)" d="M -1 139.443655 
L 92.123828 139.443423 
L 115.029474 140.544173 
L 128.428418 142.80125 
L 137.93512 146.898079 
L 145.309091 151.563148 
L 151.334064 156.030364 
L 156.428106 159.604912 
L 160.840766 162.526947 
L 164.733008 166.090869 
L 168.214737 171.099775 
L 191.120383 193.56469 
L 204.519327 202.278426 
L 214.026029 208.110415 
L 221.4 212.771264 
L 227.424973 216.105169 
L 232.519015 218.806395 
L 236.931675 220.979653 
L 240.823917 222.909409 
L 244.305646 224.132202 
L 267.211292 232.110062 
L 280.610236 235.12969 
L 290.116938 236.641216 
L 297.490909 237.704633 
L 303.515882 238.381206 
L 308.609924 238.9065 
L 313.022584 239.236804 
L 316.914826 239.499327 
L 320.396555 239.76819 
L 333.795499 240.474928 
L 343.302201 240.864257 
" style="fill:none;stroke:#a8a495;stroke-linecap:round;stroke-width:0.45;"/>
   </g>
   <g id="line2d_22">
    <path clip-path="url(#pbf49c329da)" d="M -1 109.034505 
L 92.123828 109.044436 
L 115.029474 115.059812 
L 128.428418 122.943165 
L 137.93512 131.605439 
L 145.309091 139.874772 
L 151.334064 147.270012 
L 156.428106 154.359228 
L 160.840766 160.890186 
L 164.733008 165.465104 
L 168.214737 170.792724 
L 191.120383 193.063724 
L 204.519327 204.870977 
L 214.026029 227.779683 
L 221.4 232.268447 
L 227.424973 233.124662 
L 232.519015 233.796577 
L 236.931675 234.159988 
L 240.823917 234.585608 
L 244.305646 235.102932 
L 267.211292 236.677091 
L 280.610236 237.450207 
L 290.116938 238.670069 
L 297.490909 238.845482 
L 303.515882 238.959599 
L 308.609924 238.847358 
L 313.022584 239.038518 
L 316.914826 239.020418 
L 320.396555 239.234384 
L 333.795499 239.692617 
L 343.302201 239.686427 
" style="fill:none;stroke:#a8a495;stroke-linecap:round;stroke-width:0.45;"/>
   </g>
   <g id="line2d_23">
    <path clip-path="url(#pbf49c329da)" d="M -1 71.60275 
L 92.123828 71.628261 
L 115.029474 79.599703 
L 128.428418 91.648545 
L 137.93512 104.912628 
L 145.309091 115.689092 
L 151.334064 124.294911 
L 156.428106 133.948835 
L 160.840766 142.284541 
L 164.733008 148.895034 
L 168.214737 154.819618 
L 191.120383 185.602765 
L 204.519327 202.596611 
L 214.026029 230.519738 
L 221.4 231.997737 
L 227.424973 233.238776 
L 232.519015 234.215117 
L 236.931675 234.905171 
L 240.823917 235.521825 
L 244.305646 236.155174 
L 267.211292 238.981376 
L 280.610236 240.344428 
L 290.116938 240.950066 
L 297.490909 241.192087 
L 303.515882 241.699265 
L 308.609924 241.851133 
L 313.022584 241.787379 
L 316.914826 242.106892 
L 320.396555 242.116364 
L 333.795499 242.116364 
L 343.302201 242.116364 
" style="fill:none;stroke:#a8a495;stroke-linecap:round;stroke-width:0.45;"/>
   </g>
   <g id="line2d_24">
    <path clip-path="url(#pbf49c329da)" d="M -1 76.731608 
L 92.123828 76.752364 
L 115.029474 93.260895 
L 128.428418 105.738288 
L 137.93512 116.718175 
L 145.309091 125.655521 
L 151.334064 133.276737 
L 156.428106 151.152717 
L 160.840766 171.155518 
L 164.733008 174.732846 
L 168.214737 177.940131 
L 191.120383 196.448251 
L 204.519327 206.409594 
L 214.026029 212.539836 
L 221.4 216.587034 
L 227.424973 219.661323 
L 232.519015 222.127859 
L 236.931675 223.915912 
L 240.823917 225.272943 
L 244.305646 226.666557 
L 267.211292 232.222058 
L 280.610236 234.439284 
L 290.116938 235.402746 
L 297.490909 236.046836 
L 303.515882 236.504777 
L 308.609924 236.865528 
L 313.022584 237.159956 
L 316.914826 237.226814 
L 320.396555 237.40313 
L 333.795499 237.540437 
L 343.302201 237.660257 
" style="fill:none;stroke:#a8a495;stroke-linecap:round;stroke-width:0.45;"/>
   </g>
   <g id="line2d_25">
    <path clip-path="url(#pbf49c329da)" d="M -1 124.214864 
L 92.123828 124.218276 
L 115.029474 130.425026 
L 128.428418 130.935504 
L 137.93512 132.430762 
L 145.309091 135.323173 
L 151.334064 135.98287 
L 156.428106 137.050665 
L 160.840766 153.252537 
L 164.733008 152.991585 
L 168.214737 151.061434 
L 191.120383 167.024798 
L 204.519327 174.124605 
L 214.026029 182.79394 
L 221.4 187.682463 
L 227.424973 193.359013 
L 232.519015 194.061937 
L 236.931675 200.87065 
L 240.823917 202.51267 
L 244.305646 204.699078 
L 267.211292 219.421059 
L 280.610236 226.542124 
L 290.116938 229.381162 
L 297.490909 232.136579 
L 303.515882 233.804913 
L 308.609924 234.752478 
L 313.022584 235.658117 
L 316.914826 236.194372 
L 320.396555 236.928806 
L 333.795499 238.426188 
L 343.302201 239.354802 
" style="fill:none;stroke:#a8a495;stroke-linecap:round;stroke-width:0.45;"/>
   </g>
   <g id="line2d_26">
    <path clip-path="url(#pbf49c329da)" d="M -1 141.290143 
L 92.123828 141.254045 
L 115.029474 171.531241 
L 128.428418 150.031173 
L 137.93512 160.473222 
L 145.309091 190.774133 
L 151.334064 186.28513 
L 156.428106 192.694412 
L 160.840766 185.508471 
L 164.733008 184.878315 
L 168.214737 185.284091 
L 191.120383 197.11521 
L 204.519327 215.592028 
L 214.026029 218.026658 
L 221.4 221.799992 
L 227.424973 228.728305 
L 232.519015 225.553906 
L 236.931675 235.121144 
L 240.823917 232.17786 
L 244.305646 232.155374 
L 267.211292 235.0348 
L 280.610236 237.548731 
L 290.116938 238.423692 
L 297.490909 239.389299 
L 303.515882 239.609927 
L 308.609924 240.136278 
L 313.022584 240.462501 
L 316.914826 240.003571 
L 320.396555 240.791287 
L 333.795499 241.1091 
L 343.302201 241.119191 
" style="fill:none;stroke:#a8a495;stroke-linecap:round;stroke-width:0.45;"/>
   </g>
   <g id="line2d_27">
    <path clip-path="url(#pbf49c329da)" d="M -1 154.522669 
L 92.123828 154.510284 
L 115.029474 182.287245 
L 128.428418 178.212418 
L 137.93512 178.070542 
L 145.309091 168.589002 
L 151.334064 122.311554 
L 156.428106 184.732984 
L 160.840766 177.413527 
L 164.733008 198.591896 
L 168.214737 187.865759 
L 191.120383 213.945981 
L 204.519327 206.348845 
L 214.026029 222.419951 
L 221.4 218.983411 
L 227.424973 206.399129 
L 232.519015 226.329759 
L 236.931675 229.134833 
L 240.823917 225.697651 
L 244.305646 229.755029 
L 267.211292 229.660192 
L 280.610236 236.981578 
L 290.116938 238.269179 
L 297.490909 238.251256 
L 303.515882 239.403761 
L 308.609924 239.957196 
L 313.022584 240.012544 
L 316.914826 240.155398 
L 320.396555 239.944465 
L 333.795499 241.130441 
L 343.302201 241.040868 
" style="fill:none;stroke:#a8a495;stroke-linecap:round;stroke-width:0.45;"/>
   </g>
   <g id="line2d_28">
    <path clip-path="url(#pbf49c329da)" d="M -1 131.91006 
L 69.218182 131.913286 
L 92.123828 131.115704 
L 115.029474 131.802135 
L 128.428418 133.127032 
L 137.93512 134.631312 
L 145.309091 135.252056 
L 151.334064 136.385396 
L 156.428106 136.725452 
L 160.840766 139.581627 
L 164.733008 139.78661 
L 168.214737 142.829514 
L 244.305646 190.603144 
L 267.211292 206.122708 
L 280.610236 213.877352 
L 297.490909 223.096323 
L 320.396555 231.560338 
L 343.302201 236.573563 
" style="fill:none;stroke:#a8a495;stroke-linecap:round;stroke-width:0.45;"/>
   </g>
   <g id="line2d_29">
    <path clip-path="url(#pbf49c329da)" d="M -1 112.650336 
L 92.123828 112.660113 
L 115.029474 123.173898 
L 128.428418 131.91834 
L 137.93512 138.997548 
L 145.309091 145.049976 
L 151.334064 150.601044 
L 156.428106 161.660773 
L 160.840766 171.200419 
L 164.733008 179.788819 
L 168.214737 182.342879 
L 191.120383 197.946392 
L 204.519327 206.534077 
L 214.026029 212.532202 
L 221.4 216.358165 
L 227.424973 219.079803 
L 232.519015 221.7068 
L 236.931675 223.39457 
L 240.823917 224.894067 
L 244.305646 226.091959 
L 267.211292 232.113879 
L 280.610236 234.214947 
L 290.116938 235.425244 
L 297.490909 236.064617 
L 303.515882 236.576543 
L 308.609924 236.928415 
L 313.022584 237.241208 
L 316.914826 237.413179 
L 320.396555 237.579359 
L 333.795499 237.855107 
L 343.302201 238.034604 
" style="fill:none;stroke:#a8a495;stroke-linecap:round;stroke-width:0.45;"/>
   </g>
   <g id="line2d_30">
    <path clip-path="url(#pbf49c329da)" d="M -1 144.917335 
L 69.218182 144.919551 
L 92.123828 140.910124 
L 115.029474 146.654639 
L 128.428418 147.065269 
L 137.93512 147.135394 
L 145.309091 152.263117 
L 151.334064 151.690512 
L 156.428106 153.696565 
L 160.840766 155.312665 
L 164.733008 155.859269 
L 168.214737 159.924192 
L 244.305646 211.706583 
L 267.211292 222.558358 
L 280.610236 227.322981 
L 297.490909 232.434655 
L 320.396555 236.449691 
L 343.302201 239.25373 
" style="fill:none;stroke:#a8a495;stroke-linecap:round;stroke-width:0.45;"/>
   </g>
   <g id="line2d_31">
    <path clip-path="url(#pbf49c329da)" d="M -1 139.441408 
L 92.123828 139.441466 
L 115.029474 139.318737 
L 128.428418 139.672112 
L 137.93512 139.980086 
L 145.309091 139.92189 
L 151.334064 140.330096 
L 156.428106 140.56672 
L 160.840766 141.207004 
L 164.733008 141.916947 
L 168.214737 142.49529 
L 191.120383 167.674414 
L 204.519327 194.047234 
L 214.026029 207.930351 
L 221.4 218.593388 
L 227.424973 227.090161 
L 232.519015 229.985824 
L 236.931675 232.910377 
L 240.823917 233.77631 
L 244.305646 234.420012 
L 267.211292 237.774707 
L 280.610236 239.033512 
L 290.116938 239.697359 
L 297.490909 240.121019 
L 303.515882 240.423921 
L 308.609924 240.601316 
L 313.022584 240.764652 
L 316.914826 240.88983 
L 320.396555 240.993585 
L 333.795499 241.304847 
L 343.302201 241.472534 
" style="fill:none;stroke:#a8a495;stroke-linecap:round;stroke-width:0.45;"/>
   </g>
   <g id="line2d_32">
    <path clip-path="url(#pbf49c329da)" d="M -1 128.458462 
L 92.123828 128.467235 
L 115.029474 130.889973 
L 128.428418 127.30375 
L 137.93512 134.46286 
L 145.309091 139.797381 
L 151.334064 135.891183 
L 156.428106 136.460137 
L 160.840766 138.518353 
L 164.733008 142.119897 
L 168.214737 149.745018 
L 191.120383 153.068657 
L 204.519327 169.534337 
L 214.026029 194.482829 
L 221.4 198.934261 
L 227.424973 203.215501 
L 232.519015 205.929589 
L 236.931675 208.04089 
L 240.823917 209.918277 
L 244.305646 212.146099 
L 267.211292 222.855287 
L 280.610236 228.328488 
L 290.116938 230.818525 
L 297.490909 232.168981 
L 303.515882 234.3385 
L 308.609924 235.304926 
L 313.022584 235.996792 
L 316.914826 236.821954 
L 320.396555 237.274277 
L 333.795499 238.662252 
L 343.302201 239.509776 
" style="fill:none;stroke:#a8a495;stroke-linecap:round;stroke-width:0.45;"/>
   </g>
   <g id="line2d_33">
    <path clip-path="url(#pbf49c329da)" d="M -1 132.069114 
L 69.218182 132.069689 
L 92.123828 132.749877 
L 115.029474 132.26882 
L 128.428418 133.241176 
L 137.93512 136.391898 
L 145.309091 136.73084 
L 151.334064 137.133876 
L 156.428106 134.939104 
L 160.840766 139.861731 
L 164.733008 140.177528 
L 168.214737 140.706007 
L 244.305646 180.493575 
L 267.211292 196.827268 
L 280.610236 205.707621 
L 297.490909 216.12094 
L 320.396555 226.821526 
L 343.302201 233.894184 
" style="fill:none;stroke:#a8a495;stroke-linecap:round;stroke-width:0.45;"/>
   </g>
   <g id="line2d_34">
    <path clip-path="url(#pbf49c329da)" d="M -1 128.29589 
L 69.218182 128.296316 
L 92.123828 128.496966 
L 115.029474 129.211936 
L 128.428418 129.81157 
L 137.93512 130.340062 
L 151.334064 131.298473 
L 156.428106 133.747812 
L 160.840766 135.046381 
L 164.733008 135.476592 
L 168.214737 135.801096 
L 267.211292 185.66496 
L 280.610236 196.918614 
L 297.490909 209.75657 
L 320.396555 223.150972 
L 343.302201 231.686077 
" style="fill:none;stroke:#a8a495;stroke-linecap:round;stroke-width:0.45;"/>
   </g>
   <g id="line2d_35">
    <path clip-path="url(#pbf49c329da)" d="M -1 106.052336 
L 69.218182 106.054315 
L 92.123828 108.276097 
L 105.522772 110.089872 
L 115.029474 109.706102 
L 122.403445 110.686634 
L 128.428418 120.222596 
L 133.52246 115.332224 
L 137.93512 114.708155 
L 141.827362 114.127145 
L 145.309091 114.777407 
L 175.588708 132.266582 
L 198.494354 151.598126 
L 211.893298 163.925854 
L 221.4 170.821007 
L 244.305646 194.198953 
L 257.70459 205.305829 
L 267.211292 211.846688 
L 274.585263 216.840917 
L 297.490909 241.715983 
L 320.396555 241.549856 
L 343.302201 241.731154 
L 350.676172 241.736752 
L 373.581818 241.766888 
" style="fill:none;stroke:#a8a495;stroke-linecap:round;stroke-width:0.45;"/>
   </g>
   <g id="line2d_36">
    <path clip-path="url(#pbf49c329da)" d="M -1 88.511393 
L 69.218182 88.511618 
L 92.123828 95.039354 
L 105.522772 90.341077 
L 115.029474 90.681566 
L 122.403445 87.800174 
L 128.428418 111.590711 
L 133.52246 88.308744 
L 137.93512 92.740702 
L 141.827362 94.270696 
L 145.309091 94.940931 
L 175.588708 161.980038 
L 198.494354 174.19398 
L 211.893298 196.733476 
L 221.4 209.204024 
L 244.305646 227.06614 
L 257.70459 232.017484 
L 267.211292 234.375603 
L 274.585263 235.86114 
L 297.490909 239.018693 
L 320.396555 240.488639 
L 343.302201 241.237129 
L 350.676172 241.388141 
L 373.581818 241.712832 
" style="fill:none;stroke:#a8a495;stroke-linecap:round;stroke-width:0.45;"/>
   </g>
   <g id="line2d_37">
    <path clip-path="url(#pbf49c329da)" d="M -1 105.630648 
L 69.218182 105.63172 
L 92.123828 108.812147 
L 105.522772 108.897582 
L 115.029474 110.988439 
L 122.403445 110.723014 
L 128.428418 115.640848 
L 133.52246 113.383371 
L 137.93512 107.527886 
L 141.827362 109.552897 
L 145.309091 110.772013 
L 175.588708 162.776205 
L 198.494354 193.407159 
L 211.893298 211.070947 
L 221.4 220.749915 
L 244.305646 233.353831 
L 257.70459 236.41874 
L 267.211292 237.724749 
L 274.585263 238.507415 
L 297.490909 240.194062 
L 320.396555 241.180035 
L 343.302201 241.596413 
L 350.676172 241.68801 
L 373.581818 241.878461 
" style="fill:none;stroke:#a8a495;stroke-linecap:round;stroke-width:0.45;"/>
   </g>
   <g id="line2d_38">
    <path clip-path="url(#pbf49c329da)" d="M -1 150.78031 
L 69.218182 150.787479 
L 92.123828 170.348142 
L 115.029474 180.106963 
L 128.428418 186.006539 
L 137.93512 192.746338 
L 145.309091 197.187524 
L 151.334064 201.100228 
L 156.428106 204.500782 
L 160.840766 208.216693 
L 164.733008 210.179206 
L 168.214737 212.058992 
L 244.305646 238.12892 
L 267.211292 240.030283 
L 280.610236 240.694677 
L 297.490909 241.176523 
L 320.396555 241.631572 
L 343.302201 241.852229 
" style="fill:none;stroke:#a8a495;stroke-linecap:round;stroke-width:0.45;"/>
   </g>
   <g id="line2d_39">
    <path clip-path="url(#pbf49c329da)" d="M -1 127.442677 
L 92.123828 127.450804 
L 115.029474 124.673908 
L 128.428418 132.631817 
L 137.93512 129.230832 
L 145.309091 136.884838 
L 151.334064 133.406221 
L 156.428106 138.416314 
L 160.840766 150.501917 
L 164.733008 146.694558 
L 168.214737 152.650918 
L 191.120383 163.957137 
L 204.519327 174.343539 
L 214.026029 181.492017 
L 221.4 186.915112 
L 227.424973 191.332331 
L 232.519015 196.940481 
L 236.931675 200.66165 
L 240.823917 201.742115 
L 244.305646 206.763826 
L 267.211292 219.541596 
L 280.610236 225.972228 
L 290.116938 229.834774 
L 297.490909 231.249726 
L 303.515882 233.288614 
L 308.609924 234.565981 
L 313.022584 235.438367 
L 316.914826 236.169506 
L 320.396555 236.45473 
L 333.795499 238.348907 
L 343.302201 239.347463 
" style="fill:none;stroke:#a8a495;stroke-linecap:round;stroke-width:0.45;"/>
   </g>
   <g id="line2d_40">
    <path clip-path="url(#pbf49c329da)" d="M -1 108.693278 
L 69.218182 108.69524 
L 92.123828 106.359103 
L 105.522772 107.95293 
L 115.029474 106.092527 
L 122.403445 109.186967 
L 128.428418 108.468343 
L 133.52246 108.696474 
L 137.93512 112.947883 
L 141.827362 109.632188 
L 145.309091 110.022524 
L 175.588708 130.091019 
L 198.494354 135.094814 
L 211.893298 146.288955 
L 221.4 153.636048 
L 244.305646 176.103454 
L 257.70459 188.052232 
L 267.211292 196.974442 
L 274.585263 202.268366 
L 297.490909 235.158225 
L 320.396555 237.904738 
L 343.302201 239.397278 
L 350.676172 239.822772 
L 373.581818 240.953613 
" style="fill:none;stroke:#a8a495;stroke-linecap:round;stroke-width:0.45;"/>
   </g>
   <g id="line2d_41">
    <path clip-path="url(#pbf49c329da)" d="M -1 122.567045 
L 92.123828 122.568571 
L 115.029474 125.781291 
L 128.428418 122.239209 
L 137.93512 125.309898 
L 145.309091 130.749258 
L 151.334064 128.608021 
L 156.428106 131.758206 
L 160.840766 134.194137 
L 164.733008 136.724027 
L 168.214737 147.162666 
L 191.120383 162.781668 
L 204.519327 171.951856 
L 214.026029 191.909092 
L 221.4 202.525017 
L 227.424973 206.008483 
L 232.519015 207.71854 
L 236.931675 210.888134 
L 240.823917 212.85071 
L 244.305646 216.021706 
L 267.211292 225.587225 
L 280.610236 230.345452 
L 290.116938 231.864822 
L 297.490909 234.301405 
L 303.515882 235.063537 
L 308.609924 235.781654 
L 313.022584 236.948068 
L 316.914826 237.448809 
L 320.396555 237.513653 
L 333.795499 239.0522 
L 343.302201 239.749645 
" style="fill:none;stroke:#a8a495;stroke-linecap:round;stroke-width:0.45;"/>
   </g>
   <g id="line2d_42">
    <path clip-path="url(#pbf49c329da)" d="M -1 120.122151 
L 92.123828 120.117148 
L 115.029474 126.497284 
L 128.428418 126.992402 
L 137.93512 131.246047 
L 145.309091 135.784274 
L 151.334064 139.119168 
L 156.428106 141.225447 
L 160.840766 140.196468 
L 164.733008 150.552973 
L 168.214737 150.843257 
L 191.120383 163.415431 
L 204.519327 175.281088 
L 214.026029 182.494591 
L 221.4 187.736077 
L 227.424973 194.043986 
L 232.519015 197.335581 
L 236.931675 200.35798 
L 240.823917 204.106718 
L 244.305646 206.875398 
L 267.211292 219.783923 
L 280.610236 226.250769 
L 290.116938 229.846155 
L 297.490909 231.893592 
L 303.515882 233.187314 
L 308.609924 234.314999 
L 313.022584 235.253839 
L 316.914826 235.887496 
L 320.396555 236.494686 
L 333.795499 238.162699 
L 343.302201 238.998327 
" style="fill:none;stroke:#a8a495;stroke-linecap:round;stroke-width:0.45;"/>
   </g>
   <g id="line2d_43">
    <path clip-path="url(#pbf49c329da)" d="M -1 145.857365 
L 69.218182 145.859389 
L 92.123828 146.419156 
L 115.029474 143.359582 
L 128.428418 144.662819 
L 137.93512 146.915636 
L 145.309091 146.37086 
L 151.334064 148.555133 
L 156.428106 145.2128 
L 160.840766 152.415218 
L 164.733008 157.829287 
L 168.214737 155.667462 
L 244.305646 196.362327 
L 267.211292 213.470984 
L 280.610236 218.584185 
L 297.490909 226.578681 
L 320.396555 233.948406 
L 343.302201 237.809348 
" style="fill:none;stroke:#a8a495;stroke-linecap:round;stroke-width:0.45;"/>
   </g>
   <g id="line2d_44">
    <path clip-path="url(#pbf49c329da)" d="M -1 124.53643 
L 92.123828 124.536832 
L 115.029474 129.486784 
L 128.428418 127.915547 
L 137.93512 134.42211 
L 145.309091 131.959452 
L 151.334064 137.811225 
L 156.428106 137.377802 
L 160.840766 151.181241 
L 164.733008 149.209735 
L 168.214737 150.985192 
L 191.120383 163.409821 
L 204.519327 173.840704 
L 214.026029 179.796632 
L 221.4 187.725882 
L 227.424973 191.480312 
L 232.519015 195.579902 
L 236.931675 199.925417 
L 240.823917 202.563639 
L 244.305646 203.832918 
L 267.211292 219.598266 
L 280.610236 225.834885 
L 290.116938 228.875411 
L 297.490909 231.5706 
L 303.515882 233.334796 
L 308.609924 234.355358 
L 313.022584 235.321521 
L 316.914826 235.814295 
L 320.396555 236.243338 
L 333.795499 238.279881 
L 343.302201 239.220006 
" style="fill:none;stroke:#a8a495;stroke-linecap:round;stroke-width:0.45;"/>
   </g>
   <g id="line2d_45">
    <path clip-path="url(#pbf49c329da)" d="M -1 188.682613 
L 69.218182 188.682677 
L 92.123828 188.775853 
L 115.029474 189.134683 
L 128.428418 188.404884 
L 137.93512 189.843974 
L 145.309091 190.040135 
L 151.334064 190.597841 
L 156.428106 190.370965 
L 160.840766 190.990857 
L 164.733008 191.505291 
L 168.214737 190.502808 
L 244.305646 215.464551 
L 267.211292 222.956127 
L 280.610236 226.827201 
L 297.490909 231.517817 
L 320.396555 236.044821 
L 343.302201 238.764704 
" style="fill:none;stroke:#a8a495;stroke-linecap:round;stroke-width:0.45;"/>
   </g>
   <g id="line2d_46">
    <path clip-path="url(#pbf49c329da)" d="M -1 49.42839 
L 69.218182 49.418463 
L 92.123828 50.605293 
L 105.522772 48.71677 
L 115.029474 48.967438 
L 122.403445 48.189354 
L 128.428418 79.727726 
L 133.52246 52.05475 
L 137.93512 48.783376 
L 141.827362 52.157486 
L 145.309091 52.310558 
L 175.588708 101.919167 
L 198.494354 128.087111 
L 211.893298 149.933557 
L 221.4 163.597568 
L 244.305646 193.763715 
L 257.70459 206.491387 
L 267.211292 214.544708 
L 274.585263 219.378994 
L 297.490909 235.005631 
L 320.396555 238.352546 
L 343.302201 240.021372 
L 350.676172 240.361166 
L 373.581818 241.13666 
" style="fill:none;stroke:#a8a495;stroke-linecap:round;stroke-width:0.45;"/>
   </g>
   <g id="line2d_47">
    <path clip-path="url(#pbf49c329da)" d="M -1 158.017166 
L 69.218182 158.019242 
L 92.123828 157.796377 
L 105.522772 156.802556 
L 115.029474 159.252787 
L 122.403445 156.673435 
L 128.428418 157.088916 
L 133.52246 159.193857 
L 137.93512 161.182647 
L 141.827362 162.472181 
L 145.309091 160.796864 
L 175.588708 167.314205 
L 198.494354 173.70312 
L 211.893298 177.537044 
L 221.4 180.917092 
L 244.305646 192.273356 
L 257.70459 199.16967 
L 267.211292 202.902194 
L 274.585263 209.19248 
L 297.490909 236.170543 
L 320.396555 238.207003 
L 343.302201 239.579215 
L 350.676172 239.769305 
L 373.581818 240.865751 
" style="fill:none;stroke:#a8a495;stroke-linecap:round;stroke-width:0.45;"/>
   </g>
   <g id="line2d_48">
    <path clip-path="url(#pbf49c329da)" d="M -1 148.084726 
L 69.218182 148.08761 
L 92.123828 146.636633 
L 115.029474 149.451264 
L 128.428418 153.081988 
L 137.93512 150.007878 
L 145.309091 152.05848 
L 151.334064 152.626782 
L 156.428106 154.144843 
L 160.840766 155.510748 
L 164.733008 156.09599 
L 168.214737 153.596009 
L 244.305646 199.456022 
L 267.211292 211.911411 
L 280.610236 218.364848 
L 297.490909 225.605539 
L 320.396555 232.821082 
L 343.302201 237.157152 
" style="fill:none;stroke:#a8a495;stroke-linecap:round;stroke-width:0.45;"/>
   </g>
   <g id="line2d_49">
    <path clip-path="url(#pbf49c329da)" d="M -1 143.601533 
L 69.218182 143.607342 
L 92.123828 143.918738 
L 128.428418 151.262157 
L 137.93512 153.742549 
L 145.309091 154.177838 
L 151.334064 156.951741 
L 156.428106 158.613349 
L 160.840766 160.893816 
L 164.733008 162.480372 
L 168.214737 164.600995 
L 244.305646 224.460306 
L 267.211292 230.800427 
L 280.610236 233.95723 
L 297.490909 236.507213 
L 320.396555 239.140154 
L 343.302201 240.521897 
" style="fill:none;stroke:#a8a495;stroke-linecap:round;stroke-width:0.45;"/>
   </g>
   <g id="line2d_50">
    <path clip-path="url(#pbf49c329da)" d="M -1 134.62205 
L 69.218182 134.635223 
L 92.123828 144.992221 
L 115.029474 163.071754 
L 128.428418 177.241015 
L 137.93512 184.815754 
L 145.309091 190.755924 
L 151.334064 195.152192 
L 156.428106 199.018588 
L 160.840766 211.430829 
L 164.733008 216.570816 
L 168.214737 217.991574 
L 244.305646 238.047151 
L 267.211292 239.965443 
L 280.610236 240.625877 
L 297.490909 241.184953 
L 320.396555 241.627094 
L 343.302201 241.856878 
" style="fill:none;stroke:#a8a495;stroke-linecap:round;stroke-width:0.45;"/>
   </g>
   <g id="line2d_51">
    <path clip-path="url(#pbf49c329da)" d="M -1 128.958571 
L 69.218182 128.958875 
L 92.123828 130.270643 
L 115.029474 131.085567 
L 128.428418 133.124951 
L 137.93512 133.126367 
L 145.309091 134.937453 
L 151.334064 136.233614 
L 156.428106 137.41036 
L 160.840766 138.428517 
L 164.733008 140.396416 
L 168.214737 140.191658 
L 244.305646 196.726642 
L 267.211292 210.64392 
L 280.610236 218.621066 
L 297.490909 226.014138 
L 320.396555 233.309061 
L 343.302201 237.395935 
" style="fill:none;stroke:#a8a495;stroke-linecap:round;stroke-width:0.45;"/>
   </g>
   <g id="line2d_52">
    <path clip-path="url(#pbf49c329da)" d="M -1 134.28098 
L 69.218182 134.279773 
L 92.123828 136.76391 
L 115.029474 137.242827 
L 128.428418 137.723902 
L 137.93512 136.215588 
L 145.309091 141.912164 
L 151.334064 142.070576 
L 156.428106 145.555148 
L 160.840766 147.466635 
L 164.733008 146.264187 
L 168.214737 150.872371 
L 244.305646 190.567365 
L 280.610236 216.677285 
L 297.490909 225.030134 
L 320.396555 232.833446 
L 343.302201 237.139727 
" style="fill:none;stroke:#a8a495;stroke-linecap:round;stroke-width:0.45;"/>
   </g>
   <g id="line2d_53">
    <path clip-path="url(#pbf49c329da)" d="M -1 129.4583 
L 69.218182 129.457063 
L 92.123828 132.597747 
L 115.029474 138.400752 
L 128.428418 137.2474 
L 137.93512 140.733975 
L 145.309091 142.555569 
L 151.334064 146.375298 
L 156.428106 147.732018 
L 160.840766 154.833098 
L 164.733008 158.749151 
L 168.214737 160.699653 
L 244.305646 210.383404 
L 267.211292 223.14172 
L 280.610236 228.465825 
L 297.490909 233.416233 
L 320.396555 237.422573 
L 343.302201 239.670202 
" style="fill:none;stroke:#a8a495;stroke-linecap:round;stroke-width:0.45;"/>
   </g>
   <g id="line2d_54">
    <path clip-path="url(#pbf49c329da)" d="M -1 137.99243 
L 69.218182 137.998797 
L 92.123828 142.72138 
L 115.029474 144.344448 
L 128.428418 149.081967 
L 137.93512 150.560541 
L 145.309091 154.585183 
L 151.334064 159.979034 
L 156.428106 166.873046 
L 160.840766 167.93737 
L 164.733008 172.50216 
L 168.214737 172.801336 
L 244.305646 218.046623 
L 267.211292 228.179599 
L 280.610236 231.993045 
L 297.490909 235.564383 
L 320.396555 238.671019 
L 343.302201 240.232714 
" style="fill:none;stroke:#a8a495;stroke-linecap:round;stroke-width:0.45;"/>
   </g>
   <g id="line2d_55">
    <path clip-path="url(#pbf49c329da)" d="M -1 150.910435 
L 69.218182 150.922932 
L 92.123828 161.030132 
L 115.029474 176.407539 
L 128.428418 186.959791 
L 137.93512 195.129693 
L 145.309091 201.31069 
L 151.334064 205.850716 
L 156.428106 209.767939 
L 160.840766 212.609972 
L 164.733008 215.185655 
L 168.214737 217.144553 
L 244.305646 238.42372 
L 267.211292 240.060844 
L 280.610236 240.664233 
L 297.490909 241.167438 
L 320.396555 241.585946 
L 343.302201 241.814854 
" style="fill:none;stroke:#a8a495;stroke-linecap:round;stroke-width:0.45;"/>
   </g>
   <g id="line2d_56">
    <path clip-path="url(#pbf49c329da)" d="M -1 116.953298 
L 69.218182 116.953578 
L 92.123828 117.447229 
L 128.428418 117.961485 
L 137.93512 118.48008 
L 145.309091 118.482445 
L 151.334064 119.078287 
L 156.428106 119.430887 
L 160.840766 119.433812 
L 164.733008 119.801485 
L 168.214737 120.075933 
L 244.305646 150.364349 
L 267.211292 166.787044 
L 280.610236 178.161529 
L 343.302201 224.680381 
" style="fill:none;stroke:#a8a495;stroke-linecap:round;stroke-width:0.45;"/>
   </g>
   <g id="line2d_57">
    <path clip-path="url(#pbf49c329da)" d="M -1 175.477173 
L 69.218182 175.48436 
L 92.123828 178.918209 
L 115.029474 182.16351 
L 128.428418 187.77086 
L 137.93512 192.871835 
L 145.309091 197.290122 
L 151.334064 200.628957 
L 156.428106 203.551218 
L 160.840766 206.207175 
L 164.733008 208.385215 
L 168.214737 210.430333 
L 244.305646 236.685273 
L 267.211292 239.136475 
L 280.610236 239.994023 
L 297.490909 240.732289 
L 320.396555 241.318052 
L 343.302201 241.665467 
" style="fill:none;stroke:#a8a495;stroke-linecap:round;stroke-width:0.45;"/>
   </g>
   <g id="line2d_58">
    <path clip-path="url(#pbf49c329da)" d="M -1 146.869763 
L 69.218182 146.871516 
L 92.123828 141.119972 
L 115.029474 144.49426 
L 128.428418 148.13477 
L 137.93512 150.751967 
L 145.309091 152.274905 
L 151.334064 151.558948 
L 156.428106 150.121152 
L 160.840766 152.83659 
L 164.733008 149.360605 
L 168.214737 155.384616 
L 244.305646 202.637116 
L 297.490909 229.025035 
L 320.396555 234.826778 
L 343.302201 238.149294 
" style="fill:none;stroke:#a8a495;stroke-linecap:round;stroke-width:0.45;"/>
   </g>
   <g id="line2d_59">
    <path clip-path="url(#pbf49c329da)" d="M -1 144.319432 
L 69.218182 144.316169 
L 92.123828 146.325959 
L 115.029474 143.050641 
L 128.428418 149.618158 
L 137.93512 150.025119 
L 145.309091 152.835108 
L 151.334064 151.16575 
L 156.428106 155.01315 
L 160.840766 157.072023 
L 164.733008 155.622442 
L 168.214737 155.99868 
L 244.305646 193.189642 
L 267.211292 207.029562 
L 280.610236 215.842348 
L 297.490909 223.976922 
L 320.396555 231.721682 
" style="fill:none;stroke:#a8a495;stroke-linecap:round;stroke-width:0.45;"/>
   </g>
   <g id="line2d_60">
    <path clip-path="url(#pbf49c329da)" d="M -1 120.935503 
L 92.123828 120.935751 
L 115.029474 122.097142 
L 128.428418 122.696731 
L 137.93512 123.295799 
L 145.309091 123.674411 
L 151.334064 124.581973 
L 156.428106 125.324819 
L 160.840766 128.368324 
L 164.733008 129.034796 
L 168.214737 129.884976 
L 244.305646 164.121622 
L 280.610236 195.69868 
L 297.490909 209.126183 
L 320.396555 222.901134 
L 343.302201 231.604731 
" style="fill:none;stroke:#a8a495;stroke-linecap:round;stroke-width:0.45;"/>
   </g>
   <g id="line2d_61">
    <path clip-path="url(#pbf49c329da)" d="M -1 130.329883 
L 69.218182 130.330256 
L 92.123828 129.931307 
L 115.029474 130.038008 
L 128.428418 130.772088 
L 137.93512 130.762746 
L 145.309091 130.820586 
L 151.334064 131.500838 
L 156.428106 131.807016 
L 160.840766 131.810996 
L 164.733008 133.037983 
L 168.214737 132.781756 
L 244.305646 156.944319 
L 267.211292 171.124986 
L 280.610236 181.431665 
L 297.490909 194.611506 
L 320.396555 211.703206 
L 343.302201 224.423731 
" style="fill:none;stroke:#a8a495;stroke-linecap:round;stroke-width:0.45;"/>
   </g>
   <g id="line2d_62">
    <path clip-path="url(#pbf49c329da)" d="M -1 110.272646 
L 69.218182 110.273097 
L 92.123828 109.812669 
L 115.029474 109.926754 
L 128.428418 110.614726 
L 137.93512 110.772275 
L 145.309091 111.154647 
L 151.334064 111.39617 
L 156.428106 112.238607 
L 160.840766 112.512452 
L 164.733008 112.829462 
L 168.214737 113.237759 
L 244.305646 144.099248 
L 267.211292 161.32415 
L 280.610236 173.172279 
L 297.490909 189.028297 
L 320.396555 208.649672 
L 343.302201 223.019168 
" style="fill:none;stroke:#a8a495;stroke-linecap:round;stroke-width:0.45;"/>
   </g>
   <g id="line2d_63">
    <path clip-path="url(#pbf49c329da)" d="M -1 132.158981 
L 69.218182 132.159156 
L 92.123828 132.390679 
L 115.029474 133.052151 
L 128.428418 133.67913 
L 137.93512 134.123739 
L 145.309091 134.477718 
L 151.334064 135.220512 
L 156.428106 137.409711 
L 160.840766 138.619264 
L 164.733008 138.752649 
L 168.214737 139.177826 
L 244.305646 169.362663 
L 267.211292 187.256627 
L 280.610236 198.012709 
L 297.490909 210.423416 
L 320.396555 223.530446 
L 343.302201 231.891974 
" style="fill:none;stroke:#a8a495;stroke-linecap:round;stroke-width:0.45;"/>
   </g>
   <g id="line2d_64">
    <path clip-path="url(#pbf49c329da)" d="M -1 123.338032 
L 69.218182 123.338398 
L 92.123828 123.54816 
L 115.029474 124.034835 
L 128.428418 123.847209 
L 137.93512 123.8413 
L 145.309091 124.863102 
L 156.428106 124.550879 
L 160.840766 125.269041 
L 164.733008 125.944825 
L 168.214737 125.613911 
L 244.305646 151.110479 
L 267.211292 165.594861 
L 280.610236 176.457158 
L 297.490909 190.829955 
L 320.396555 209.111355 
L 343.302201 222.962898 
" style="fill:none;stroke:#a8a495;stroke-linecap:round;stroke-width:0.45;"/>
   </g>
   <g id="line2d_65">
    <path clip-path="url(#pbf49c329da)" d="M -1 124.932389 
L 69.218182 124.933099 
L 92.123828 125.035882 
L 115.029474 125.698917 
L 128.428418 126.189225 
L 137.93512 126.766395 
L 145.309091 127.224746 
L 151.334064 127.967493 
L 156.428106 130.796142 
L 160.840766 131.674293 
L 164.733008 132.135101 
L 168.214737 132.604649 
L 244.305646 165.511664 
L 267.211292 184.644861 
L 280.610236 196.136402 
L 297.490909 209.279675 
L 320.396555 222.953206 
" style="fill:none;stroke:#a8a495;stroke-linecap:round;stroke-width:0.45;"/>
   </g>
   <g id="line2d_66">
    <path clip-path="url(#pbf49c329da)" d="M -1 133.412295 
L 69.218182 133.413777 
L 92.123828 133.098768 
L 115.029474 133.253294 
L 128.428418 133.227488 
L 137.93512 134.723089 
L 145.309091 134.153706 
L 151.334064 137.201694 
L 156.428106 136.841754 
L 160.840766 138.248806 
L 164.733008 139.121538 
L 168.214737 142.017292 
L 244.305646 185.480312 
L 267.211292 201.792827 
L 280.610236 210.514039 
L 297.490909 219.654792 
L 320.396555 228.580663 
L 343.302201 233.969902 
" style="fill:none;stroke:#a8a495;stroke-linecap:round;stroke-width:0.45;"/>
   </g>
   <g id="line2d_67">
    <path clip-path="url(#pbf49c329da)" d="M -1 172.296912 
L 69.218182 172.296489 
L 92.123828 172.631655 
L 115.029474 174.190924 
L 128.428418 175.368595 
L 137.93512 175.540526 
L 145.309091 176.386521 
L 151.334064 178.046064 
L 156.428106 181.316361 
L 160.840766 181.326997 
L 164.733008 182.702017 
L 168.214737 182.679796 
L 244.305646 209.230804 
L 267.211292 219.374344 
L 280.610236 225.247175 
L 297.490909 230.678982 
L 320.396555 235.736842 
L 343.302201 238.714313 
" style="fill:none;stroke:#a8a495;stroke-linecap:round;stroke-width:0.45;"/>
   </g>
   <g id="line2d_68">
    <path clip-path="url(#pbf49c329da)" d="M -1 134.46888 
L 69.218182 134.470329 
L 92.123828 135.35927 
L 115.029474 139.009202 
L 128.428418 139.136462 
L 137.93512 139.384155 
L 145.309091 141.846967 
L 151.334064 144.862111 
L 156.428106 145.809806 
L 160.840766 145.630244 
L 164.733008 151.820664 
L 168.214737 152.632033 
L 244.305646 199.834822 
L 267.211292 214.986083 
L 280.610236 222.041125 
L 297.490909 229.002219 
L 320.396555 235.085528 
L 343.302201 238.273649 
" style="fill:none;stroke:#a8a495;stroke-linecap:round;stroke-width:0.45;"/>
   </g>
   <g id="line2d_69">
    <path clip-path="url(#pbf49c329da)" d="M -1 135.53646 
L 69.218182 135.535098 
L 92.123828 131.830206 
L 115.029474 137.442076 
L 128.428418 137.516798 
L 137.93512 137.914108 
L 145.309091 138.091224 
L 151.334064 140.716978 
L 156.428106 142.789612 
L 160.840766 145.548897 
L 164.733008 147.035523 
L 168.214737 149.681047 
L 244.305646 183.492428 
L 267.211292 200.97153 
L 280.610236 211.64708 
L 320.396555 230.491361 
L 343.302201 235.857004 
" style="fill:none;stroke:#a8a495;stroke-linecap:round;stroke-width:0.45;"/>
   </g>
   <g id="line2d_70">
    <path clip-path="url(#pbf49c329da)" d="M 69.218182 167.097186 
L 92.123828 166.89283 
L 105.522772 166.701923 
L 115.029474 167.095118 
L 122.403445 166.995653 
L 128.428418 167.861019 
L 133.52246 167.571953 
L 137.93512 170.193 
L 141.827362 170.970071 
L 145.309091 171.912373 
L 175.588708 175.617123 
L 198.494354 184.10197 
L 211.893298 189.861244 
L 221.4 190.804005 
L 244.305646 206.104653 
L 257.70459 213.493919 
L 267.211292 217.125825 
L 274.585263 220.887602 
L 373.581818 242.097866 
" style="fill:none;stroke:#a8a495;stroke-linecap:round;stroke-width:0.45;"/>
   </g>
   <g id="line2d_71">
    <path clip-path="url(#pbf49c329da)" d="M 69.218182 48.291717 
L 92.123828 44.753632 
L 105.522772 44.443636 
L 115.029474 45.393496 
L 122.403445 46.361727 
L 128.428418 74.206682 
L 133.52246 47.387577 
L 137.93512 47.241255 
L 141.827362 55.117192 
L 145.309091 62.195111 
L 175.588708 123.955108 
L 198.494354 137.549697 
L 211.893298 159.721156 
L 221.4 173.381212 
L 244.305646 200.91549 
L 257.70459 212.581627 
L 267.211292 219.331623 
L 274.585263 223.250144 
L 297.490909 233.906421 
L 320.396555 237.715549 
L 343.302201 239.772506 
L 350.676172 240.187482 
L 373.581818 241.066466 
" style="fill:none;stroke:#a8a495;stroke-linecap:round;stroke-width:0.45;"/>
   </g>
   <g id="line2d_72"/>
   <g id="line2d_73"/>
   <g id="line2d_74"/>
   <g id="line2d_75"/>
   <g id="line2d_76"/>
   <g id="line2d_77"/>
   <g id="line2d_78"/>
   <g id="line2d_79"/>
   <g id="line2d_80"/>
   <g id="line2d_81"/>
   <g id="line2d_82"/>
   <g id="line2d_83"/>
   <g id="line2d_84"/>
   <g id="line2d_85"/>
   <g id="line2d_86"/>
   <g id="line2d_87"/>
   <g id="line2d_88"/>
   <g id="line2d_89"/>
   <g id="line2d_90"/>
   <g id="line2d_91"/>
   <g id="line2d_92"/>
   <g id="line2d_93"/>
   <g id="line2d_94"/>
   <g id="line2d_95"/>
   <g id="line2d_96"/>
   <g id="line2d_97"/>
   <g id="line2d_98"/>
   <g id="line2d_99"/>
   <g id="line2d_100"/>
   <g id="line2d_101"/>
   <g id="line2d_102"/>
   <g id="line2d_103"/>
   <g id="line2d_104"/>
   <g id="line2d_105"/>
   <g id="line2d_106"/>
   <g id="line2d_107"/>
   <g id="line2d_108"/>
   <g id="line2d_109"/>
   <g id="line2d_110"/>
   <g id="line2d_111"/>
   <g id="line2d_112"/>
   <g id="line2d_113"/>
   <g id="line2d_114"/>
   <g id="line2d_115"/>
   <g id="line2d_116"/>
   <g id="line2d_117"/>
   <g id="line2d_118"/>
   <g id="line2d_119"/>
   <g id="line2d_120"/>
   <g id="line2d_121"/>
   <g id="line2d_122"/>
   <g id="line2d_123"/>
   <g id="line2d_124"/>
   <g id="line2d_125"/>
   <g id="line2d_126"/>
   <g id="line2d_127"/>
   <g id="line2d_128"/>
   <g id="line2d_129"/>
   <g id="line2d_130"/>
   <g id="line2d_131">
    <path clip-path="url(#pbf49c329da)" d="M -1 71.60275 
L 92.123828 71.628261 
L 115.029474 79.599703 
L 128.428418 91.648545 
L 137.93512 104.912628 
L 145.309091 115.689092 
L 151.334064 124.294911 
L 156.428106 133.948835 
L 160.840766 142.284541 
L 164.733008 148.895034 
L 168.214737 154.819618 
L 191.120383 185.602765 
L 204.519327 202.596611 
L 214.026029 230.519738 
L 221.4 231.997737 
L 227.424973 233.238776 
L 232.519015 234.215117 
L 236.931675 234.905171 
L 240.823917 235.521825 
L 244.305646 236.155174 
L 267.211292 238.981376 
L 280.610236 240.344428 
L 290.116938 240.950066 
L 297.490909 241.192087 
L 303.515882 241.699265 
L 308.609924 241.851133 
L 313.022584 241.787379 
L 316.914826 242.106892 
L 320.396555 242.116364 
L 333.795499 242.116364 
L 343.302201 242.116364 
" style="fill:none;stroke:#0000ff;stroke-dasharray:7.4,3.2;stroke-dashoffset:0;stroke-width:2;"/>
   </g>
   <g id="line2d_132">
    <path clip-path="url(#pbf49c329da)" d="M -1 144.917335 
L 69.218182 144.919551 
L 92.123828 140.910124 
L 115.029474 146.654639 
L 128.428418 147.065269 
L 137.93512 147.135394 
L 145.309091 152.263117 
L 151.334064 151.690512 
L 156.428106 153.696565 
L 160.840766 155.312665 
L 164.733008 155.859269 
L 168.214737 159.924192 
L 244.305646 211.706583 
L 267.211292 222.558358 
L 280.610236 227.322981 
L 297.490909 232.434655 
L 320.396555 236.449691 
L 343.302201 239.25373 
" style="fill:none;stroke:#ff0000;stroke-dasharray:7.4,3.2;stroke-dashoffset:0;stroke-width:2;"/>
   </g>
   <g id="patch_3">
    <path d="M 54 252 
L 54 34.56 
" style="fill:none;stroke:#cccccc;stroke-linecap:square;stroke-linejoin:miter;stroke-width:0.8;"/>
   </g>
   <g id="patch_4">
    <path d="M 388.8 252 
L 388.8 34.56 
" style="fill:none;stroke:#cccccc;stroke-linecap:square;stroke-linejoin:miter;stroke-width:0.8;"/>
   </g>
   <g id="patch_5">
    <path d="M 54 252 
L 388.8 252 
" style="fill:none;stroke:#cccccc;stroke-linecap:square;stroke-linejoin:miter;stroke-width:0.8;"/>
   </g>
   <g id="patch_6">
    <path d="M 54 34.56 
L 388.8 34.56 
" style="fill:none;stroke:#cccccc;stroke-linecap:square;stroke-linejoin:miter;stroke-width:0.8;"/>
   </g>
  </g>
 </g>
 <defs>
  <clipPath id="pbf49c329da">
   <rect height="217.44" width="334.8" x="54" y="34.56"/>
  </clipPath>
 </defs>
</svg>
